<?xml version="1.0" standalone="no"?>
<!DOCTYPE svg PUBLIC "-//W3C//DTD SVG 1.1//EN" "http://www.w3.org/Graphics/SVG/1.1/DTD/svg11.dtd" >
<svg xmlns="http://www.w3.org/2000/svg" xmlns:xlink="http://www.w3.org/1999/xlink" version="1.1">
<metadata>
Created by FontForge 20170731 at Tue Aug  7 03:24:36 2012
 By Aleksey,,,
Copyright (c) 2004 - 2007 Linotype GmbH, www.linotype.com. All rights reserved.
</metadata>
<defs>
<font id="AvenirNextCondensed-MediumItalic" horiz-adv-x="477" >
  <font-face 
    font-family="Avenir Next Condensed Medium"
    font-weight="500"
    font-style="italic"
    font-stretch="condensed"
    units-per-em="1000"
    panose-1="2 11 8 6 2 2 2 9 2 4"
    ascent="800"
    descent="-200"
    x-height="501"
    cap-height="708"
    bbox="-162 -250 868 954"
    underline-thickness="50"
    underline-position="-200"
    unicode-range="U+000D-FB02"
  />
<missing-glyph horiz-adv-x="512" 
d="M222 117v67h56v-67h-56zM225 234l-2 17q0 56 13 81q7 13 18 27.5t28 31.5q16 15 26 26.5t15 21t7 18t2 17.5q0 36 -22.5 60.5t-53.5 24.5t-53.5 -22t-28.5 -73l-50 8q7 72 44 104.5t91 32.5t89 -35.5t35 -95.5q0 -32 -12.5 -58.5t-50.5 -61.5q-37 -33 -43 -52
q-6 -20 -6 -72h-46zM462 50v617h-412v-617h412zM512 718v-718h-512v718h512z" />
    <glyph glyph-name=".notdef" horiz-adv-x="512" 
d="M222 117v67h56v-67h-56zM225 234l-2 17q0 56 13 81q7 13 18 27.5t28 31.5q16 15 26 26.5t15 21t7 18t2 17.5q0 36 -22.5 60.5t-53.5 24.5t-53.5 -22t-28.5 -73l-50 8q7 72 44 104.5t91 32.5t89 -35.5t35 -95.5q0 -32 -12.5 -58.5t-50.5 -61.5q-37 -33 -43 -52
q-6 -20 -6 -72h-46zM462 50v617h-412v-617h412zM512 718v-718h-512v718h512z" />
    <glyph glyph-name=".null" horiz-adv-x="187" 
 />
    <glyph glyph-name=".null" horiz-adv-x="187" 
 />
    <glyph glyph-name="nonmarkingreturn" unicode="&#xd;" horiz-adv-x="0" 
 />
    <glyph glyph-name="space" unicode=" " horiz-adv-x="187" 
 />
    <glyph glyph-name="exclam" unicode="!" horiz-adv-x="296" 
d="M186 217h-82l85 491h82zM174 59q0 -28 -17.5 -47t-43.5 -19q-23 0 -35.5 15t-12.5 35q0 25 17 45.5t43 20.5q23 0 36 -14t13 -36z" />
    <glyph glyph-name="quotedbl" unicode="&#x22;" horiz-adv-x="349" 
d="M248 457l44 251h67l-44 -251h-67zM116 457l44 251h67l-44 -251h-67z" />
    <glyph glyph-name="numbersign" unicode="#" horiz-adv-x="382" 
d="M325 425l-38 -141h57l-12 -67h-63l-57 -217h-58l57 217h-67l-58 -217h-58l56 217h-62l12 67h69l39 141h-64l12 67h69l57 216h59l-57 -216h67l58 216h58l-58 -216h63l-12 -67h-69zM199 425l-37 -141h67l38 141h-68z" />
    <glyph glyph-name="dollar" unicode="$" horiz-adv-x="476" 
d="M427 590q-14 18 -40 31.5t-58 13.5l-43 -243q29 -15 53 -32.5t41.5 -39t27 -48.5t9.5 -60q0 -47 -16.5 -86t-44 -67t-64.5 -43t-77 -15l-14 -81h-42l14 81q-43 1 -84.5 20.5t-64.5 49.5l55 62q20 -27 49 -42.5t59 -16.5l44 253q-29 15 -52 30.5t-39 35.5t-24 46t-8 61
q0 46 17 83.5t44.5 64.5t61.5 42.5t68 15.5l14 80h42l-14 -79q41 -1 77 -15.5t59 -41.5zM336 200q0 43 -17.5 68t-46.5 42l-41 -236q19 -1 38 8.5t34 26.5t24 40.5t9 50.5zM284 633q-19 0 -36.5 -9.5t-31.5 -25.5t-22.5 -38.5t-8.5 -47.5q0 -36 14.5 -60.5t45.5 -41.5z" />
    <glyph glyph-name="percent" unicode="%" horiz-adv-x="654" 
d="M621 225q0 -44 -12.5 -86t-34.5 -75t-52.5 -53.5t-67.5 -20.5q-51 0 -77.5 35.5t-26.5 94.5q0 43 12 85.5t34 76.5t53 54.5t68 20.5q51 0 77.5 -36.5t26.5 -95.5zM552 221q0 34 -11 54t-34 20q-20 0 -36.5 -16.5t-28 -41.5t-17.5 -55t-6 -56q0 -33 11 -54t34 -21
q21 0 37 17t27.5 42.5t17.5 55t6 55.5zM349 590q0 -43 -12.5 -85t-34.5 -75.5t-52.5 -54t-67.5 -20.5q-51 0 -77.5 36t-26.5 94q0 44 12.5 86.5t34.5 76t53 54t68 20.5q51 0 77 -36t26 -96zM280 586q0 34 -11 54.5t-34 20.5q-20 0 -36.5 -16.5t-28 -42t-17.5 -55t-6 -55.5
q0 -34 11 -54.5t34 -20.5q21 0 37 17t27.5 42t17.5 54.5t6 55.5zM170 -23l-49 17l409 743l50 -17z" />
    <glyph glyph-name="ampersand" unicode="&#x26;" horiz-adv-x="529" 
d="M405 165l87 -165h-94l-44 89q-30 -44 -70 -75t-93 -31q-72 0 -112.5 43.5t-40.5 116.5q0 43 12 81t33.5 69.5t51 57.5t64.5 45q-37 75 -37 133q0 43 12 79.5t34 63t52.5 41t66.5 14.5q33 0 58 -10t41 -28t24 -42t8 -52q0 -39 -13.5 -70.5t-36 -57t-52.5 -47t-64 -41.5
l75 -156l92 161h80zM226 339q-21 -11 -40.5 -29.5t-34.5 -42.5t-24 -52.5t-9 -58.5q0 -47 19.5 -73t63.5 -26q19 0 36.5 7.5t32.5 20.5t27.5 29t21.5 34zM382 587q0 32 -17 52t-43 20q-20 0 -35.5 -10.5t-26.5 -27.5t-16.5 -39.5t-5.5 -46.5q0 -26 8 -52t22 -55
q24 15 44.5 30.5t36 34t24.5 41.5t9 53z" />
    <glyph glyph-name="quotesingle" unicode="'" horiz-adv-x="217" 
d="M116 457l44 251h67l-44 -251h-67z" />
    <glyph glyph-name="parenleft" unicode="(" horiz-adv-x="250" 
d="M285 711q-45 -60 -81 -130t-62 -144.5t-40 -151.5t-14 -152t12.5 -144.5t37.5 -126.5l-62 -27q-26 59 -42 137t-16 158q0 82 14.5 164t41.5 160t66 151t89 137l56 -31v0z" />
    <glyph glyph-name="parenright" unicode=")" horiz-adv-x="250" 
d="M-14 -133q45 60 81 130t62 144.5t40 151.5t14 152t-12.5 144.5t-37.5 126.5l62 27q26 -59 42 -137t16 -158q0 -82 -14.5 -164t-41.5 -160t-66.5 -151t-88.5 -137l-56 31v0z" />
    <glyph glyph-name="asterisk" unicode="*" horiz-adv-x="429" 
d="M324 503l80 -121l-55 -40l-79 123l-78 -120l-56 39l81 119l-128 45l22 61l125 -46v145h69v-145l125 44l21 -62z" />
    <glyph glyph-name="plus" unicode="+" horiz-adv-x="666" 
d="M374 344h222v-82h-222v-222h-82v222h-222v82h222v222h82v-222z" />
    <glyph glyph-name="comma" unicode="," horiz-adv-x="222" 
d="M35 -129h-66l103 255h80z" />
    <glyph glyph-name="hyphen" unicode="-" horiz-adv-x="224" 
d="M34 231l12 69h158l-12 -69h-158z" />
    <glyph glyph-name="period" unicode="." horiz-adv-x="222" 
d="M133 59q0 -28 -17.5 -47t-43.5 -19q-23 0 -35.5 15t-12.5 35q0 25 17 45.5t43 20.5q23 0 36 -14t13 -36z" />
    <glyph glyph-name="slash" unicode="/" horiz-adv-x="244" 
d="M15 -34l-56 12l318 781l55 -12z" />
    <glyph glyph-name="zero" unicode="0" horiz-adv-x="476" 
d="M475 492q0 -42 -5.5 -95.5t-18.5 -109.5t-33.5 -110t-50.5 -96t-70 -67.5t-91 -25.5q-45 0 -75 18t-48.5 48.5t-26 70t-7.5 83.5q0 45 5.5 100.5t18 112.5t33 111t50.5 95.5t70 67t92 25.5q45 0 75.5 -19t48.5 -50.5t25.5 -73t7.5 -85.5zM387 501q0 28 -4 54.5t-13 46
t-24 31.5t-37 12q-34 0 -60 -25t-45.5 -65.5t-32 -90t-20.5 -98.5t-11.5 -92t-3.5 -69q0 -28 3.5 -54t12.5 -45.5t24 -31t37 -11.5q34 0 60.5 25t45.5 65t32 89t21 98t11.5 91.5t3.5 69.5z" />
    <glyph glyph-name="one" unicode="1" horiz-adv-x="476" 
d="M284 0h-85l106 610l-144 -97l-28 66l194 129h80z" />
    <glyph glyph-name="two" unicode="2" horiz-adv-x="476" 
d="M120 76h267l-13 -76h-362l15 82l240 269q34 38 55 67t33 52t16 42.5t4 38.5q0 17 -4.5 33.5t-14.5 29.5t-25.5 21t-37.5 8q-42 0 -70 -30t-40 -72l-81 17q24 75 74.5 119t127.5 44q40 0 70 -14t50 -36.5t29.5 -51.5t9.5 -60q0 -29 -6.5 -55t-23 -56t-45.5 -67.5
t-75 -88.5z" />
    <glyph glyph-name="three" unicode="3" horiz-adv-x="476" 
d="M197 -13q-74 0 -119 37t-61 97l77 27q11 -36 35.5 -61.5t68.5 -25.5q28 0 52.5 10.5t43 31.5t29 51.5t10.5 69.5q0 50 -29.5 79.5t-78.5 29.5h-25l12 72h27q27 0 51.5 10.5t43.5 30t30 47.5t11 63q0 16 -5.5 32.5t-16 30t-26 21.5t-36.5 8q-35 0 -59.5 -19t-42.5 -50
l-67 26q56 116 180 116q39 0 68 -12.5t48.5 -34.5t29.5 -50.5t10 -61.5q0 -27 -8 -57t-24.5 -56.5t-42.5 -46.5t-62 -29l-1 -2q47 -11 72 -51t25 -94q0 -44 -14 -87t-42 -77t-69 -54.5t-95 -20.5z" />
    <glyph glyph-name="four" unicode="4" horiz-adv-x="476" 
d="M436 164h-85l-28 -164h-78l28 164h-254l13 80l301 464h113l-82 -471h85zM354 625l-244 -388h179l67 388h-2z" />
    <glyph glyph-name="five" unicode="5" horiz-adv-x="476" 
d="M458 633h-216l-43 -203q17 8 38.5 12.5t38.5 4.5q37 0 64.5 -13t46 -36.5t27.5 -55t9 -67.5q0 -63 -17.5 -116t-49 -91.5t-75.5 -60t-96 -21.5q-34 0 -60.5 10t-46 26.5t-32.5 39t-21 46.5l75 33q11 -35 34.5 -57t61.5 -22q33 0 59 16t44.5 43.5t28.5 63t10 74.5
q0 54 -25.5 87.5t-75.5 33.5q-29 0 -65.5 -9.5t-62.5 -23.5l72 361h290z" />
    <glyph glyph-name="six" unicode="6" horiz-adv-x="476" 
d="M441 271q0 -59 -16 -110.5t-46 -89.5t-73 -60.5t-97 -22.5q-41 0 -73 14t-54.5 39.5t-34 59.5t-11.5 75q0 63 24.5 123t65.5 120l195 289h93l-202 -292l1 -1q37 31 79 31q69 0 109 -48.5t40 -126.5zM353 268q0 49 -22 80.5t-70 31.5q-33 0 -58.5 -18t-43.5 -47t-27.5 -65
t-9.5 -71q0 -52 24 -85.5t69 -33.5q32 0 57.5 17.5t43.5 47t27.5 67t9.5 76.5z" />
    <glyph glyph-name="seven" unicode="7" horiz-adv-x="476" 
d="M483 638l-335 -638h-93l338 632h-270l13 76h359z" />
    <glyph glyph-name="eight" unicode="8" horiz-adv-x="476" 
d="M472 569q0 -66 -32.5 -118t-91.5 -73l-1 -2q41 -16 63 -52.5t22 -89.5q0 -52 -15.5 -97t-44 -78.5t-70.5 -52.5t-94 -19q-43 0 -75.5 13t-54 35.5t-32 53.5t-10.5 67q0 38 11 74t30.5 66t46.5 51t60 29l1 2q-35 19 -53 51t-18 73q0 43 12.5 82.5t37 70t62 49t87.5 18.5
q44 0 74.5 -12.5t49 -33.5t27 -48.5t8.5 -58.5zM345 236q0 48 -22.5 76.5t-66.5 28.5q-28 0 -52.5 -14.5t-42.5 -38.5t-28.5 -55.5t-10.5 -65.5q0 -46 22 -78.5t71 -32.5q33 0 57 15.5t40.5 41t24.5 57.5t8 66zM389 564q0 41 -20.5 67t-60.5 26q-26 0 -46.5 -13t-35 -34
t-22.5 -48.5t-8 -57.5q0 -39 19.5 -67.5t57.5 -28.5q26 0 47.5 14t36.5 36.5t23.5 50t8.5 55.5z" />
    <glyph glyph-name="nine" unicode="9" horiz-adv-x="476" 
d="M85 444q0 54 15 104t44 88.5t71 61t96 22.5q88 0 131 -51t43 -132q0 -69 -24.5 -128.5t-65.5 -119.5l-195 -289h-93l207 299l-1 1q-18 -17 -38.5 -24t-42.5 -7q-30 0 -56.5 10t-46.5 31.5t-32 54.5t-12 79zM173 447q0 -49 20 -80.5t65 -31.5q33 0 59 16.5t44 43.5t28 62
t10 73q0 52 -23 85t-68 33q-32 0 -57.5 -17.5t-42.5 -46t-26 -64.5t-9 -73z" />
    <glyph glyph-name="colon" unicode=":" horiz-adv-x="262" 
d="M225 453q0 -28 -17.5 -47t-43.5 -19q-23 0 -35.5 15t-12.5 35q0 25 17 45.5t43 20.5q23 0 36 -14t13 -36zM156 65q0 -28 -17.5 -47t-43.5 -19q-23 0 -35.5 15t-12.5 35q0 25 17 45.5t43 20.5q23 0 36 -14t13 -36z" />
    <glyph glyph-name="semicolon" unicode=";" horiz-adv-x="262" 
d="M51 -129h-66l103 255h80zM225 453q0 -28 -17.5 -47t-43.5 -19q-23 0 -35.5 15t-12.5 35q0 25 17 45.5t43 20.5q23 0 36 -14t13 -36z" />
    <glyph glyph-name="less" unicode="&#x3c;" horiz-adv-x="666" 
d="M589 479l-385 -176l383 -176v-85l-508 231v60l510 231v-85z" />
    <glyph glyph-name="equal" unicode="=" horiz-adv-x="666" 
d="M596 426v-81h-526v81h526zM596 261v-81h-526v81h526z" />
    <glyph glyph-name="greater" unicode="&#x3e;" horiz-adv-x="666" 
d="M79 564l508 -231v-60l-508 -231v85l383 176l-383 176v85z" />
    <glyph glyph-name="question" unicode="?" horiz-adv-x="375" 
d="M417 578q0 -34 -10 -62t-26 -52t-37.5 -45.5t-43.5 -40.5q-20 -17 -33 -31.5t-21.5 -28.5t-13.5 -29.5t-8 -34.5l-6 -37h-71l8 48q7 42 26.5 80.5t58.5 73.5l27 24q30 26 49.5 54t19.5 73q0 36 -19.5 59t-53.5 23q-23 0 -40.5 -9t-31 -23.5t-22.5 -32.5t-15 -36l-70 19
q10 32 27 60t41 49t55.5 33.5t71.5 12.5q39 0 65.5 -14t42.5 -36t23 -47.5t7 -49.5zM221 59q0 -28 -17.5 -47t-43.5 -19q-23 0 -35.5 15t-12.5 35q0 25 17 45.5t43 20.5q23 0 36 -14t13 -36z" />
    <glyph glyph-name="at" unicode="@" horiz-adv-x="634" 
d="M642 483q0 -56 -14 -113t-40 -104t-63 -76.5t-84 -29.5q-65 0 -64 73h-1q-8 -12 -18 -25t-23.5 -23.5t-29.5 -17.5t-35 -7q-43 0 -63 32.5t-20 79.5q0 46 15 96.5t41 92.5t61 69.5t75 27.5q35 0 50.5 -20t13.5 -49h3l18 45h63l-62 -164q-10 -26 -19.5 -57.5t-9.5 -57.5
q0 -14 5 -21.5t19 -7.5q28 0 50 26.5t37.5 65t24 82.5t8.5 79q0 88 -43.5 138.5t-133.5 50.5q-64 0 -117.5 -35t-92 -91.5t-60 -127t-21.5 -140.5q0 -50 12.5 -92.5t37.5 -73.5t63 -48.5t90 -17.5q57 0 102.5 21.5t77.5 52.5l29 -51q-45 -38 -96.5 -61t-124.5 -23
q-67 0 -115.5 22t-80 61t-46.5 91.5t-15 113.5q0 84 26.5 166t74.5 147t114.5 105t146.5 40q118 0 176 -66.5t58 -177.5zM417 438q0 23 -9 38.5t-32 15.5t-44 -20.5t-37.5 -51.5t-26.5 -67t-10 -67q0 -25 9.5 -42.5t32.5 -17.5q24 0 45 24.5t37 58.5t25.5 70t9.5 59z" />
    <glyph glyph-name="A" unicode="A" horiz-adv-x="481" 
d="M344 0l-7 168h-210l-74 -168h-88l318 708h113l35 -708h-87zM326 628h-4l-169 -392h185z" />
    <glyph glyph-name="B" unicode="B" horiz-adv-x="494" 
d="M485 555q0 -39 -10.5 -70t-28 -53.5t-40.5 -37.5t-48 -22v-2q17 -3 34 -13t31 -27.5t23 -42t9 -56.5q0 -58 -19 -101.5t-50.5 -72t-73 -43t-85.5 -14.5h-189l123 708h163q30 0 59 -9t51.5 -27.5t36.5 -47.5t14 -69zM370 232q0 28 -9.5 47.5t-25 32t-34.5 18t-38 5.5h-86
l-46 -262h90q66 0 107.5 41.5t41.5 117.5zM401 544q0 47 -28.5 69t-70.5 22h-73l-40 -232h79q24 0 48 8.5t43 26t30.5 44t11.5 62.5z" />
    <glyph glyph-name="C" unicode="C" horiz-adv-x="479" 
d="M475 583q-35 62 -104 62q-53 0 -94 -38t-69.5 -96t-43.5 -127t-15 -132q0 -41 7.5 -76t22.5 -60.5t38 -39.5t55 -14q22 0 41 6t34.5 16t28 22t21.5 23l46 -56q-36 -42 -81 -66t-106 -24q-48 0 -85 19.5t-62 55t-38 84t-13 106.5q0 88 23.5 173t66.5 152.5t102 109
t131 41.5q54 0 94.5 -20.5t63.5 -62.5z" />
    <glyph glyph-name="D" unicode="D" horiz-adv-x="545" 
d="M533 438q0 -90 -22 -170t-65 -139.5t-105 -94t-143 -34.5h-160l123 708h160q55 0 95 -20t66 -56t38.5 -85.5t12.5 -108.5zM446 433q0 94 -35 147t-104 53h-75l-96 -558h75q52 0 95.5 28.5t74.5 77.5t48 114t17 138z" />
    <glyph glyph-name="E" unicode="E" horiz-adv-x="416" 
d="M436 632h-206l-40 -229h196l-13 -71h-195l-44 -255h222l-13 -77h-305l123 708h288z" />
    <glyph glyph-name="F" unicode="F" horiz-adv-x="399" 
d="M441 630h-209l-41 -233h195l-13 -75h-194l-56 -322h-85l123 708h294z" />
    <glyph glyph-name="G" unicode="G" horiz-adv-x="534" 
d="M474 581q-32 65 -103 65q-35 0 -65.5 -18t-55 -48.5t-43.5 -70.5t-32 -84t-19.5 -89.5t-6.5 -86.5q0 -83 30.5 -134.5t94.5 -51.5q29 0 54 8t41 20l39 222h-95l14 75h177l-59 -344q-35 -26 -80.5 -42.5t-104.5 -16.5q-50 0 -87.5 19t-63 53.5t-38.5 82.5t-13 107
q0 84 23.5 169.5t66 153.5t102 111t131.5 43q56 0 96 -21t62 -64z" />
    <glyph glyph-name="H" unicode="H" horiz-adv-x="577" 
d="M461 0h-85l58 329h-253l-57 -329h-86l123 708h86l-53 -303h252l52 303h86z" />
    <glyph glyph-name="I" unicode="I" horiz-adv-x="240" 
d="M124 0h-86l123 708h86z" />
    <glyph glyph-name="J" unicode="J" horiz-adv-x="389" 
d="M313 195q-9 -51 -23 -90.5t-35.5 -66.5t-52.5 -41t-73 -14q-32 0 -57 9t-43.5 24.5t-30.5 36t-18 43.5l73 31q7 -23 24.5 -44t52.5 -21q25 0 41.5 10t27.5 28.5t17.5 44.5t12.5 59l88 504h86z" />
    <glyph glyph-name="K" unicode="K" horiz-adv-x="492" 
d="M266 373l180 -373h-96l-164 357h-2l-62 -357h-84l123 708h84l-55 -316h2l262 316h100z" />
    <glyph glyph-name="L" unicode="L" horiz-adv-x="370" 
d="M324 0h-286l123 708h86l-109 -628h200z" />
    <glyph glyph-name="M" unicode="M" horiz-adv-x="721" 
d="M518 0l103 586h-3l-261 -586h-81l-53 586h-3l-103 -586h-79l125 708h126l51 -562h4l249 562h135l-125 -708h-85z" />
    <glyph glyph-name="N" unicode="N" horiz-adv-x="567" 
d="M451 0h-101l-134 557h-3l-96 -557h-79l123 708h103l130 -558h3l98 558h79z" />
    <glyph glyph-name="O" unicode="O" horiz-adv-x="573" 
d="M561 461q0 -86 -21.5 -171t-61.5 -153.5t-96.5 -111t-125.5 -42.5q-48 0 -84.5 19t-62 53t-38.5 81.5t-13 105.5q0 85 21 171t60 155t95.5 112.5t128.5 43.5q49 0 86 -19.5t62 -54t37.5 -83t12.5 -106.5zM468 448q0 36 -4 72t-16 64t-33.5 45.5t-56.5 17.5q-33 0 -62 -19
t-52 -50.5t-41 -73.5t-30 -87.5t-18 -92t-6 -87.5q0 -36 6 -68t19.5 -55.5t35 -37.5t52.5 -14q48 0 86 36.5t64.5 93t41 125t14.5 131.5z" />
    <glyph glyph-name="P" unicode="P" horiz-adv-x="470" 
d="M487 544q0 -57 -15.5 -101t-43.5 -74.5t-67 -46.5t-87 -16h-98l-53 -306h-85l123 708h163q35 0 65 -10t51.5 -30t34 -51t12.5 -73zM402 533q0 46 -22 73.5t-70 27.5h-77l-44 -257h83q61 0 95.5 41.5t34.5 114.5z" />
    <glyph glyph-name="Q" unicode="Q" horiz-adv-x="577" 
d="M58 242q0 85 21 171t60 155t95.5 112.5t128.5 43.5q49 0 86 -19.5t61.5 -54t37 -82.5t12.5 -105q0 -53 -12 -112.5t-34 -114.5t-53.5 -98t-69.5 -61v-2h137l-12 -75h-262q-97 0 -146.5 62.5t-49.5 179.5zM148 237q0 -73 29.5 -114.5t85.5 -41.5q48 0 86.5 35.5t65 89.5
t41 118.5t14.5 123.5q0 36 -4 72t-16 64t-33.5 45.5t-56.5 17.5q-34 0 -62.5 -19t-52 -50.5t-41.5 -73.5t-30.5 -87.5t-19 -92t-6.5 -87.5z" />
    <glyph glyph-name="R" unicode="R" horiz-adv-x="487" 
d="M497 547q0 -43 -11.5 -79.5t-32.5 -64.5t-49.5 -47t-62.5 -27l94 -329h-90l-84 318h-84l-55 -318h-84l123 708h163q83 0 128 -40t45 -121zM414 536q0 53 -28.5 76t-72.5 23h-81l-43 -250h85q30 0 55.5 10.5t44.5 30.5t29.5 47.5t10.5 62.5z" />
    <glyph glyph-name="S" unicode="S" horiz-adv-x="434" 
d="M405 600q-37 47 -99 47q-21 0 -43 -8.5t-39.5 -25t-29 -42.5t-11.5 -60q0 -43 22 -69.5t59 -49.5q24 -15 46 -32t39.5 -39t28 -50t10.5 -63q0 -54 -16.5 -95.5t-45.5 -70.5t-68.5 -44t-84.5 -15q-54 0 -100.5 22t-72.5 57l58 62q20 -29 50 -45.5t65 -16.5q25 0 48 8.5
t41 24.5t28.5 40t10.5 56q0 44 -22 74.5t-68 58.5q-22 13 -42.5 29.5t-36.5 38t-25.5 49t-9.5 63.5q0 51 17 92t46 69.5t67.5 44t82.5 15.5q50 0 89.5 -16.5t63.5 -47.5z" />
    <glyph glyph-name="T" unicode="T" horiz-adv-x="349" 
d="M421 634h-135l-111 -634h-85l111 634h-136l13 74h356z" />
    <glyph glyph-name="U" unicode="U" horiz-adv-x="551" 
d="M488 244q-9 -54 -26.5 -101.5t-46.5 -83t-71 -56t-100 -20.5q-47 0 -81.5 14.5t-56.5 39t-32.5 58.5t-10.5 73q0 35 7 76l81 464h86l-80 -455q-3 -18 -5 -36.5t-2 -35.5q0 -24 4.5 -45.5t16 -38t30.5 -26t48 -9.5q38 0 64.5 16t44.5 43t28.5 61.5t16.5 70.5l80 455h86z
" />
    <glyph glyph-name="V" unicode="V" horiz-adv-x="471" 
d="M249 0h-111l-51 708h93l31 -609h2l245 609h92z" />
    <glyph glyph-name="W" unicode="W" horiz-adv-x="738" 
d="M550 0h-111l-7 580h-2l-209 -580h-110l-14 708h88l3 -596h3l214 596h101l10 -596h2l208 596h84z" />
    <glyph glyph-name="X" unicode="X" horiz-adv-x="465" 
d="M304 373l115 -373h-92l-81 301l-188 -301h-92l244 374l-103 334h89l72 -267l165 267h91z" />
    <glyph glyph-name="Y" unicode="Y" horiz-adv-x="425" 
d="M257 285l-49 -285h-85l49 285l-102 423h91l66 -335h2l185 335h95z" />
    <glyph glyph-name="Z" unicode="Z" horiz-adv-x="405" 
d="M442 635l-346 -557h252l-13 -78h-349l12 73l348 559h-236l13 76h331z" />
    <glyph glyph-name="bracketleft" unicode="[" horiz-adv-x="248" 
d="M-32 -156l157 888h166l-11 -63h-90l-134 -762h90l-12 -63h-166z" />
    <glyph glyph-name="backslash" unicode="\" horiz-adv-x="244" 
d="M155 759l42 -781l-60 -12l-41 781z" />
    <glyph glyph-name="bracketright" unicode="]" horiz-adv-x="248" 
d="M-7 -93h90l134 762h-90l11 63h165l-157 -888h-165z" />
    <glyph glyph-name="asciicircum" unicode="^" horiz-adv-x="666" 
d="M300 708h66l226 -399h-91l-169 300l-167 -300h-91z" />
    <glyph glyph-name="underscore" unicode="_" horiz-adv-x="500" 
d="M0 -75h500v-63h-500v63z" />
    <glyph glyph-name="grave" unicode="`" horiz-adv-x="229" 
d="M131 715l103 -144h-67l-120 144h84z" />
    <glyph glyph-name="a" unicode="a" horiz-adv-x="409" 
d="M370 385q0 -18 -2 -36t-6 -40l-35 -204q-2 -9 -4 -24t-4 -30.5t-4 -29.5t-2 -21h-69q0 7 1.5 18t3.5 23t3.5 24t3.5 20h-2q-19 -47 -51 -72.5t-80 -25.5q-43 0 -72.5 29t-29.5 89t22 99.5t56 63t75 33t80 9.5h34q5 28 6.5 40t1.5 20q0 41 -18 59.5t-50 18.5
q-28 0 -54.5 -14t-47.5 -37l-36 50q29 32 71 51.5t81 19.5q66 0 97 -35t31 -98zM242 248q-26 0 -52 -6.5t-46.5 -21.5t-33.5 -40.5t-13 -62.5q0 -33 15.5 -48.5t38.5 -15.5q27 0 47.5 16t36 40t25 53t14.5 56l6 30h-38z" />
    <glyph glyph-name="b" unicode="b" horiz-adv-x="478" 
d="M445 344q0 -61 -15 -125t-42.5 -116.5t-66.5 -86t-87 -33.5q-51 0 -75.5 28t-29.5 70h-2l-14 -81h-79l132 756h81l-58 -330h2q19 41 51 66.5t76 25.5q63 0 95 -47.5t32 -126.5zM360 334q0 51 -16.5 82t-53.5 31q-33 0 -59 -27.5t-44 -68.5t-27.5 -89t-9.5 -89
q0 -53 16.5 -85.5t54.5 -32.5q34 0 60 28.5t43.5 70.5t26.5 90.5t9 89.5z" />
    <glyph glyph-name="c" unicode="c" horiz-adv-x="338" 
d="M326 418q-10 11 -24.5 19t-39.5 8q-33 0 -58.5 -27t-43.5 -68t-27.5 -89t-9.5 -90q0 -52 17 -82t65 -30q20 0 36.5 7t33.5 21l29 -65q-23 -19 -51.5 -29t-57.5 -10q-41 0 -70 14t-48.5 38.5t-28.5 58t-9 72.5q0 62 15 125t44 113.5t71 82t97 31.5q45 0 68.5 -12.5
t37.5 -26.5z" />
    <glyph glyph-name="d" unicode="d" horiz-adv-x="472" 
d="M361 0h-79l14 81h-1q-20 -42 -51.5 -70t-83.5 -28q-61 0 -91 49t-30 129q0 61 15 124.5t42.5 115t67 84.5t89.5 33q45 0 70 -25.5t30 -66.5h2l57 330h81zM333 327q0 54 -17 87t-54 33q-34 0 -60 -28t-43.5 -70t-26.5 -91t-9 -90q0 -51 16.5 -82t53.5 -31q33 0 59 27
t44 68t27.5 88.5t9.5 88.5z" />
    <glyph glyph-name="e" unicode="e" horiz-adv-x="431" 
d="M401 355q0 -10 -0.5 -21t-1.5 -25.5t-4 -33.5t-7 -46h-261q-2 -15 -3.5 -29.5t-1.5 -28.5q0 -50 18 -81t58 -31q34 0 57.5 21t40.5 50l58 -37q-28 -48 -67.5 -79t-97.5 -31q-70 0 -110 47.5t-40 135.5q0 64 16 127.5t45.5 113t71.5 80.5t93 31q36 0 62 -12t42.5 -33.5
t24 -51.5t7.5 -66zM324 353q0 42 -15.5 67t-49.5 25q-26 0 -46 -15.5t-35 -38t-24.5 -48.5t-13.5 -47h178q6 33 6 57z" />
    <glyph glyph-name="f" unicode="f" horiz-adv-x="248" 
d="M334 701q-5 2 -12.5 3t-15.5 1q-20 0 -34 -9.5t-24 -25t-16 -35t-10 -40.5l-16 -94h82l-11 -66h-82l-75 -435h-80l75 435h-65l11 66h65l17 94q7 39 19.5 72t32.5 56.5t47.5 37t63.5 13.5q22 0 40 -6z" />
    <glyph glyph-name="g" unicode="g" horiz-adv-x="472" 
d="M356 1q-9 -51 -25 -95t-42 -76.5t-64 -51t-91 -18.5q-50 0 -92.5 21t-66.5 54l55 57q19 -24 47 -41t65 -17q31 0 54 13t38.5 35.5t25.5 53t16 65.5l15 80h-2q-10 -21 -21.5 -38.5t-26.5 -31t-34.5 -21t-45.5 -7.5q-61 0 -94.5 49t-33.5 130q0 61 14.5 124.5t41.5 115
t66 84t89 32.5q44 0 71.5 -25.5t32.5 -66.5h3l13 75h79zM327 327q0 54 -17 87t-54 33q-34 0 -60 -28t-43.5 -70t-26.5 -91t-9 -90q0 -51 16.5 -82t53.5 -31q33 0 59 27t44 67.5t27.5 88.5t9.5 89z" />
    <glyph glyph-name="h" unicode="h" horiz-adv-x="481" 
d="M432 396q0 -14 -2 -35t-6 -41l-55 -320h-82l55 320l4 28t2 28q0 29 -11.5 49t-44.5 20q-22 0 -42.5 -12t-37 -33t-28.5 -49.5t-18 -62.5l-50 -288h-82l131 756h82l-60 -342h2q19 43 55 73.5t83 30.5q29 0 49 -10.5t32.5 -27.5t18 -39t5.5 -45z" />
    <glyph glyph-name="i" unicode="i" horiz-adv-x="226" 
d="M114 0h-81l87 501h81zM236 658q0 -26 -16.5 -44.5t-41.5 -18.5q-22 0 -34 14.5t-12 33.5q0 24 16 43.5t41 19.5q22 0 34.5 -13.5t12.5 -34.5z" />
    <glyph glyph-name="j" unicode="j" horiz-adv-x="227" 
d="M106 -62q-7 -39 -19 -72t-31 -56.5t-46.5 -36.5t-66.5 -13q-17 0 -39 5l12 78q7 -2 15 -3t14 -1q20 0 33.5 8.5t22.5 23t14 33.5t9 40l98 557h83zM237 658q0 -26 -16.5 -44.5t-41.5 -18.5q-22 0 -34 14.5t-12 33.5q0 24 16 43.5t41 19.5q22 0 34.5 -13.5t12.5 -34.5z" />
    <glyph glyph-name="k" unicode="k" horiz-adv-x="419" 
d="M234 264l138 -264h-91l-123 248h-2l-41 -248h-81l131 756h81l-84 -473h2l186 218h99z" />
    <glyph glyph-name="l" unicode="l" horiz-adv-x="226" 
d="M116 0h-82l131 756h82z" />
    <glyph glyph-name="m" unicode="m" horiz-adv-x="727" 
d="M425 404q9 22 23 42.5t32.5 36.5t41.5 25.5t51 9.5q29 0 49 -10.5t32.5 -27.5t18 -39t5.5 -45q0 -14 -2 -35t-6 -41l-55 -320h-82l55 320l4 28t2 28q0 29 -11.5 49t-44.5 20q-18 0 -36 -10t-34 -27t-28.5 -39.5t-19.5 -48.5l-55 -320h-82l55 320l4 28t2 28q0 29 -11.5 49
t-44.5 20q-22 0 -42.5 -12t-37 -33t-28.5 -49.5t-18 -62.5l-50 -288h-81l65 374q1 8 3.5 26t5.5 38t6 38t4 25h80q-2 -14 -5.5 -39.5t-7.5 -49.5h2q20 45 56 75.5t83 30.5q29 0 48 -9t30.5 -24.5t16.5 -36.5t5 -44h2z" />
    <glyph glyph-name="n" unicode="n" 
d="M112 0h-81l65 374q1 8 3.5 26t5.5 38t6 38t4 25h80q-2 -14 -5.5 -39.5t-7.5 -49.5h2q20 45 56 75.5t83 30.5q29 0 49 -10.5t32.5 -27.5t18 -39t5.5 -45q0 -14 -2 -35t-6 -41l-55 -320h-82l55 320l4 28t2 28q0 29 -11.5 49t-44.5 20q-22 0 -42.5 -12t-37 -33t-28.5 -49.5
t-18 -62.5z" />
    <glyph glyph-name="o" unicode="o" horiz-adv-x="449" 
d="M416 333q0 -64 -16 -127t-46 -112.5t-72.5 -80t-94.5 -30.5q-69 0 -108.5 50.5t-39.5 135.5q0 65 16 127.5t46 112t72.5 79.5t94.5 30q69 0 108.5 -50t39.5 -135zM332 330q0 53 -17 85t-54 32q-33 0 -58.5 -28t-43 -70t-27 -90.5t-9.5 -89.5q0 -51 16.5 -82.5t53.5 -31.5
q33 0 59 27.5t44 68.5t27 89t9 90z" />
    <glyph glyph-name="p" unicode="p" horiz-adv-x="478" 
d="M445 339q0 -61 -14 -124.5t-41 -115t-66 -84t-88 -32.5q-45 0 -72.5 26t-32.5 66h-2l-54 -315h-81l129 741h79l-14 -80h1q20 42 49 69.5t81 27.5q61 0 93.5 -49t32.5 -130zM361 334q0 51 -16.5 82t-53.5 31q-33 0 -59 -27t-44 -68t-27.5 -88.5t-9.5 -88.5q0 -54 17 -87
t54 -33q34 0 60 28t43.5 70t26.5 91t9 90z" />
    <glyph glyph-name="q" unicode="q" horiz-adv-x="479" 
d="M322 -240h-82l55 315h-2q-19 -40 -51 -66t-76 -26q-62 0 -94.5 47.5t-32.5 125.5q0 61 14.5 125.5t42 117t66.5 86t88 33.5q51 0 75.5 -27.5t29.5 -69.5h2l14 80h79zM334 329q0 53 -16.5 85.5t-54.5 32.5q-34 0 -60 -28.5t-43.5 -70.5t-26.5 -90.5t-9 -89.5
q0 -51 16.5 -82t53.5 -31q33 0 59 27t44 68t27.5 89t9.5 90z" />
    <glyph glyph-name="r" unicode="r" horiz-adv-x="276" 
d="M304 429q-4 1 -8 1.5t-9 0.5q-24 0 -45 -15.5t-38 -40t-29 -56.5t-18 -65l-44 -254h-82l65 374q1 8 4 26t6 38t5.5 38t3.5 25h79q-1 -7 -3 -21.5t-4.5 -30.5t-5.5 -31t-4 -23h3q23 61 58 90t73 29q8 0 11 -1z" />
    <glyph glyph-name="s" unicode="s" horiz-adv-x="347" 
d="M303 418q-26 35 -80 35q-32 0 -57 -22.5t-25 -61.5q0 -33 16 -49t48 -33q41 -23 68 -53.5t27 -81.5q0 -43 -14.5 -75t-38.5 -53t-55.5 -31t-66.5 -10q-44 0 -80.5 18t-56.5 45l54 53q14 -18 35.5 -33t55.5 -15q36 0 61.5 23t25.5 65q0 35 -22 57t-52 37q-35 18 -59 48
t-24 78q0 37 13.5 66.5t36.5 50t54 31.5t66 11q42 0 70.5 -12.5t45.5 -31.5z" />
    <glyph glyph-name="t" unicode="t" horiz-adv-x="258" 
d="M273 435h-84l-50 -294q-2 -10 -3 -20t-1 -18q0 -25 10 -34t30 -9q9 0 19.5 2.5t18.5 5.5l-8 -65q-13 -5 -28 -8t-29 -3q-49 0 -72 25t-23 67q0 18 4 41l54 310h-69l11 66h67l23 134h79l-22 -134h85z" />
    <glyph glyph-name="u" unicode="u" 
d="M367 501h81l-65 -374q-1 -8 -4 -26t-6 -38t-5.5 -38t-3.5 -25h-80q2 14 5.5 39.5t7.5 49.5h-2q-20 -45 -56 -75.5t-83 -30.5q-29 0 -49 10.5t-32.5 27.5t-18 39t-5.5 45q0 14 2 35t6 41l55 320h82l-55 -320l-4 -28t-2 -28q0 -29 11.5 -49t44.5 -20q22 0 42.5 12t37 33
t28.5 49.5t18 62.5z" />
    <glyph glyph-name="v" unicode="v" horiz-adv-x="390" 
d="M200 0h-96l-43 501h83l21 -415h2l169 415h87z" />
    <glyph glyph-name="w" unicode="w" horiz-adv-x="594" 
d="M428 0h-94l-12 385l-147 -385h-91l-16 501h82v-407h2l154 407h76l13 -407h1l143 407h82z" />
    <glyph glyph-name="x" unicode="x" horiz-adv-x="381" 
d="M240 264l88 -264h-88l-56 198l-125 -198h-89l178 263l-81 238h88l49 -177l109 177h89z" />
    <glyph glyph-name="y" unicode="y" horiz-adv-x="390" 
d="M165 -94q-15 -34 -30 -61t-34 -46t-42 -29t-53 -10q-26 0 -47 8l16 73q12 -6 31 -6q29 0 46.5 18t31.5 51l34 81l-58 516h85l30 -406h2l162 406h84z" />
    <glyph glyph-name="z" unicode="z" horiz-adv-x="341" 
d="M345 433l-265 -363h204l-13 -70h-291l13 70l263 361h-184l12 70h273z" />
    <glyph glyph-name="braceleft" unicode="{" horiz-adv-x="248" 
d="M278 669h-34q-30 0 -45 -24t-22 -62l-31 -177q-5 -30 -14.5 -51.5t-21.5 -35t-24.5 -21t-23.5 -9.5v-2q17 -4 32 -21.5t15 -56.5q0 -19 -4 -39l-31 -177q-2 -10 -3 -19.5t-1 -17.5q0 -23 9 -36t32 -13h34l-11 -63h-54q-44 0 -63.5 24.5t-19.5 70.5q0 11 1.5 23.5
t3.5 26.5l29 169q2 13 3 24t1 20q0 31 -11 41.5t-29 10.5l10 68q12 0 23 4t20 14.5t16 29.5t12 48l29 169q12 69 44 107t86 38h54z" />
    <glyph glyph-name="bar" unicode="|" horiz-adv-x="222" 
d="M152 750v-1000h-82v1000h82z" />
    <glyph glyph-name="braceright" unicode="}" horiz-adv-x="248" 
d="M-15 -93h34q30 0 45 24t22 62l31 177q5 30 14.5 51.5t21.5 35t24.5 21t23.5 9.5v2q-17 4 -32 21.5t-15 56.5q0 19 4 39l31 177q2 10 3 19.5t1 17.5q0 23 -9 36t-32 13h-34l11 63h54q44 0 63.5 -24.5t19.5 -70.5q0 -11 -1.5 -23.5t-3.5 -26.5l-29 -169q-2 -13 -3 -24
t-1 -20q0 -31 11 -41.5t29 -10.5l-10 -68q-12 0 -23 -4t-20 -14.5t-16 -29.5t-12 -48l-29 -169q-12 -69 -44 -107t-86 -38h-54z" />
    <glyph glyph-name="asciitilde" unicode="~" horiz-adv-x="666" 
d="M340 346q19 -12 33 -20t25 -12t20.5 -5.5t20.5 -1.5q50 0 87 68l59 -55q-18 -29 -36 -48t-36.5 -30t-36.5 -15t-35 -4q-29 0 -55 8t-61 30q-19 12 -32.5 19.5t-24.5 11.5t-20.5 5.5t-20.5 1.5q-50 0 -87 -68l-59 55q35 58 72.5 78t71.5 20q30 0 55.5 -8t59.5 -30z" />
    <glyph glyph-name="uni00A0" unicode="&#xa0;" horiz-adv-x="187" 
 />
    <glyph glyph-name="exclamdown" unicode="&#xa1;" horiz-adv-x="296" 
d="M115 298h82l-85 -491h-82zM127 456q0 28 17.5 47t43.5 19q23 0 35.5 -15t12.5 -35q0 -25 -17 -45.5t-43 -20.5q-23 0 -36 14t-13 36z" />
    <glyph glyph-name="cent" unicode="&#xa2;" horiz-adv-x="476" 
d="M387 405q-9 13 -26.5 23t-43.5 12l-67 -384q27 1 48.5 13.5t38.5 32.5l24 -54q-23 -26 -54.5 -41.5t-67.5 -17.5l-11 -61h-43l11 61q-67 5 -98.5 53.5t-31.5 126.5q0 57 15 117t43.5 109.5t69.5 81.5t92 33l12 66h43l-12 -66q38 -2 63 -15t39 -32zM275 440
q-35 -2 -61 -28.5t-43 -66t-26 -84.5t-9 -82q0 -49 17 -82t56 -37z" />
    <glyph glyph-name="sterling" unicode="&#xa3;" horiz-adv-x="476" 
d="M444 623q-10 12 -27 20t-43 8q-28 0 -48 -13.5t-33.5 -35.5t-22 -50t-13.5 -57l-17 -95h132l-11 -66h-131l-44 -257h198l-14 -77h-373l14 77h92l44 257h-86l12 66h84l18 104q7 42 21.5 82t38.5 71.5t59.5 50.5t85.5 19q38 0 66.5 -11t43.5 -28z" />
    <glyph glyph-name="currency" unicode="&#xa4;" horiz-adv-x="476" 
d="M394 420q17 -29 25.5 -64t8.5 -77t-9.5 -79t-26.5 -66l67 -85l-41 -52l-69 85q-22 -20 -50.5 -31t-60.5 -11q-30 0 -58.5 12t-51.5 32l-71 -87l-41 52l69 88q-15 28 -25 64.5t-10 77.5q0 42 8.5 76t23.5 63l-66 84l41 51l67 -82q23 20 52.5 32.5t61.5 12.5q33 0 62 -12.5
t51 -32.5l67 82l41 -51zM238 437q-28 0 -48.5 -12.5t-34.5 -34t-21 -50t-7 -61.5t7 -61.5t21 -50.5t34.5 -34.5t48.5 -12.5t49 12.5t35 34.5t21 50.5t7 61.5t-7 61.5t-21 50t-35 34t-49 12.5z" />
    <glyph glyph-name="yen" unicode="&#xa5;" horiz-adv-x="476" 
d="M444 393l-10 -60h-142l-18 -103h142l-11 -60h-141l-30 -170h-85l30 170h-142l11 60h141l18 103h-141l10 61h111l-87 314h88l73 -311l183 311h90l-198 -315h108z" />
    <glyph glyph-name="brokenbar" unicode="&#xa6;" horiz-adv-x="222" 
d="M152 675v-350h-82v350h82zM152 175v-350h-82v350h82z" />
    <glyph glyph-name="section" unicode="&#xa7;" horiz-adv-x="482" 
d="M431 618q-15 19 -40.5 31t-59.5 12q-19 0 -39 -6t-36.5 -19t-27.5 -32t-11 -44q0 -21 6 -36t19.5 -28t35 -25.5t51.5 -28.5q50 -26 77.5 -61t27.5 -82q0 -32 -10 -57t-27.5 -44t-39.5 -31t-46 -16q26 -16 42 -45t16 -63q0 -49 -18 -83.5t-47 -57t-64.5 -33t-71.5 -10.5
q-52 0 -98 19.5t-69 56.5l54 55q19 -30 50 -46.5t69 -16.5q23 0 44 6t37 19t25.5 33t9.5 47q0 19 -6.5 34.5t-21 28.5t-37 25.5t-53.5 27.5q-49 23 -74.5 53t-25.5 80q0 31 10.5 57.5t28 47t40 34t46.5 19.5q-27 17 -42.5 45t-15.5 57q0 42 15 76.5t41.5 59t63 38t78.5 13.5
q54 0 88.5 -14.5t57.5 -42.5zM361 292q0 32 -23 54.5t-54 38.5l-39 20q-19 -2 -37 -10t-32 -22.5t-22.5 -34t-8.5 -43.5q0 -20 6 -34.5t15.5 -24.5t22.5 -17.5t28 -14.5l44 -20q18 1 36 9t32 21.5t23 33t9 44.5z" />
    <glyph glyph-name="dieresis" unicode="&#xa8;" horiz-adv-x="229" 
d="M161 657q0 -24 -15 -41t-38 -17q-20 0 -31.5 14t-11.5 31q0 22 15 39.5t38 17.5q20 0 31.5 -12t11.5 -32zM315 657q0 -24 -15 -41t-38 -17q-20 0 -31.5 14t-11.5 31q0 22 15 39.5t38 17.5q20 0 31.5 -12t11.5 -32z" />
    <glyph glyph-name="copyright" unicode="&#xa9;" horiz-adv-x="640" 
d="M320 -20q-63 0 -115.5 26t-90 75t-58 118.5t-20.5 155.5t20.5 155.5t58 118t90 75t115.5 26.5t115 -26.5t89.5 -75t58.5 -118t21 -155.5t-21 -155.5t-58.5 -118.5t-89.5 -75t-115 -26zM320 686q-54 0 -97 -25t-73 -69t-46 -104.5t-16 -132.5t16 -132.5t46 -104.5t73 -69
t97 -25t97 25t73 69t46 104.5t16 132.5t-16 132.5t-46 104.5t-73 69t-97 25zM437 190q-17 -27 -43 -44t-62 -17t-64.5 16.5t-49 46.5t-31 72t-10.5 93t10.5 93t30.5 72t48 46.5t64 16.5q35 0 62.5 -15t43.5 -41l-43 -52q-19 38 -63 38q-20 0 -34.5 -12t-24 -33t-14.5 -50
t-5 -63q0 -33 5 -61.5t14.5 -49.5t24 -33t34.5 -12q41 0 63 40z" />
    <glyph glyph-name="ordfeminine" unicode="&#xaa;" horiz-adv-x="298" 
d="M227 408q1 7 2.5 22.5t3.5 23.5h-1q-10 -22 -28.5 -38.5t-48.5 -16.5q-23 0 -44 18t-21 54t13 60.5t33 38.5t45.5 20t51.5 6h20q7 42 -3.5 57.5t-32.5 15.5q-16 0 -31.5 -8t-28.5 -21l-28 38q20 20 46.5 31.5t50.5 11.5q43 0 64 -23.5t21 -58.5q0 -11 -1.5 -22.5
t-3.5 -25.5l-21 -121q-1 -5 -2 -14t-2.5 -18.5t-2.5 -18t-1 -11.5h-50zM246 552h-21q-14 0 -28 -3.5t-25 -11.5t-18 -21.5t-7 -33.5q0 -18 8.5 -27t20.5 -9q14 0 25.5 8.5t19.5 21.5t13.5 29t8.5 30z" />
    <glyph glyph-name="guillemotleft" unicode="&#xab;" horiz-adv-x="356" 
d="M310 465l47 -31l-121 -189l54 -185l-55 -23l-64 216zM171 465l47 -31l-121 -189l54 -185l-55 -23l-63 216z" />
    <glyph glyph-name="logicalnot" unicode="&#xac;" horiz-adv-x="666" 
d="M596 139h-81v206h-445v81h526v-287z" />
    <glyph glyph-name="uni00AD" unicode="&#xad;" horiz-adv-x="224" 
d="M34 231l12 69h158l-12 -69h-158z" />
    <glyph glyph-name="registered" unicode="&#xae;" horiz-adv-x="480" 
d="M320 372l-38 102h-25v-102h-48v258h80q31 0 54 -18t23 -60q0 -28 -11 -45t-29 -23l46 -112h-52zM318 551q0 20 -10 28.5t-24 8.5h-27v-76h26q16 0 25.5 9.5t9.5 29.5zM280 274q-38 0 -69 15.5t-53.5 45t-35 71t-12.5 93.5t12.5 93.5t35 70.5t53.5 45t69 16t69 -16
t53.5 -45t35 -70.5t12.5 -93.5t-12.5 -93.5t-35 -71t-53.5 -45t-69 -15.5zM280 698q-32 0 -58 -15t-44 -41.5t-27.5 -63t-9.5 -79.5t9.5 -79.5t27.5 -63t44 -41.5t58 -15t58 15t44 41.5t27.5 63t9.5 79.5t-9.5 79.5t-27.5 63t-44 41.5t-58 15z" />
    <glyph glyph-name="macron" unicode="&#xaf;" horiz-adv-x="229" 
d="M53 614l10 57h258l-10 -57h-258z" />
    <glyph glyph-name="degree" unicode="&#xb0;" horiz-adv-x="314" 
d="M192 403q-24 0 -43 10t-31.5 27t-19.5 39.5t-7 47.5q0 35 10.5 70t29.5 63.5t46.5 46t61.5 17.5q24 0 42.5 -10t31.5 -27t19.5 -39.5t6.5 -47.5q0 -35 -10.5 -70t-30 -63t-46.5 -46t-60 -18zM198 452q19 0 35 13t28 34t19 46.5t7 51.5q0 35 -14.5 56.5t-39.5 21.5
q-20 0 -36 -13.5t-27.5 -34.5t-18 -47t-6.5 -51q0 -35 14 -56t39 -21z" />
    <glyph glyph-name="plusminus" unicode="&#xb1;" horiz-adv-x="666" 
d="M70 419h223v150h81v-150h222v-81h-222v-147h-81v147h-223v81zM70 121h526v-81h-526v81z" />
    <glyph glyph-name="twosuperior" unicode="&#xb2;" horiz-adv-x="314" 
d="M349 613q0 -20 -4.5 -37t-15.5 -35.5t-28.5 -39.5t-42.5 -48l-110 -116h154l-11 -65h-240l11 68l154 160q36 39 47.5 61.5t11.5 44.5q0 18 -10 33t-33 15t-38 -16.5t-22 -41.5l-69 11q15 54 50.5 83t87.5 29t80 -30.5t28 -75.5z" />
    <glyph glyph-name="threesuperior" unicode="&#xb3;" horiz-adv-x="314" 
d="M345 621q0 -18 -5 -36.5t-15.5 -34t-26 -27.5t-35.5 -17l-1 -2q28 -8 42.5 -32t14.5 -56q0 -31 -10.5 -58.5t-29 -47.5t-45 -32t-59.5 -12q-52 0 -82 26t-40 67l66 20q5 -20 19 -35t38 -15q30 0 50.5 22t20.5 63q0 27 -16.5 43t-43.5 16h-18l10 59h20q31 0 52.5 21
t21.5 59q0 17 -11 32.5t-34 15.5q-20 0 -34 -11.5t-23 -28.5l-59 19q20 44 52.5 64t73.5 20q48 0 77.5 -27.5t29.5 -74.5z" />
    <glyph glyph-name="acute" unicode="&#xb4;" horiz-adv-x="229" 
d="M186 571h-67l115 144h84z" />
    <glyph glyph-name="mu" unicode="&#xb5;" horiz-adv-x="578" 
d="M363 0q2 18 5.5 40.5t6.5 37.5h-2q-13 -19 -32 -35.5t-42 -29t-48.5 -19.5t-51.5 -7q-25 0 -46 8t-31 22l-55 -257h-94l152 714h94l-55 -262q-4 -16 -5.5 -31t-1.5 -29q0 -38 18 -62t66 -24q57 0 101 42.5t59 113.5l53 252h94l-79 -372q-2 -9 -4.5 -22t-5 -27t-4.5 -27.5
t-3 -25.5h-89z" />
    <glyph glyph-name="paragraph" unicode="&#xb6;" horiz-adv-x="600" 
d="M523 -126h-78v771h-115v-771h-79v453q-47 0 -86 14t-67 39t-43.5 58.5t-15.5 72.5q0 99 63 148t168 49h253v-834z" />
    <glyph glyph-name="periodcentered" unicode="&#xb7;" horiz-adv-x="222" 
d="M173 269q0 -28 -17.5 -47t-43.5 -19q-23 0 -35.5 15t-12.5 35q0 25 17 45.5t43 20.5q23 0 36 -14t13 -36z" />
    <glyph glyph-name="cedilla" unicode="&#xb8;" horiz-adv-x="229" 
d="M55 -72q7 2 14 2.5t17 0.5q13 0 26.5 -4t23 -12.5t14 -22.5t1.5 -33q-5 -26 -18.5 -43t-32 -27.5t-39.5 -14.5t-40 -4q-20 0 -44 4.5t-43 14.5l24 41q14 -8 31.5 -11t34.5 -3q7 0 17 2t19.5 7t17 12.5t9.5 19.5q3 19 -9 28t-32 9q-21 0 -42 -8l-16 17l75 97h48z" />
    <glyph glyph-name="onesuperior" unicode="&#xb9;" horiz-adv-x="314" 
d="M229 270h-73l63 355l-83 -54l-24 56l129 81h65z" />
    <glyph glyph-name="ordmasculine" unicode="&#xba;" horiz-adv-x="298" 
d="M185 398q-47 0 -70.5 32.5t-23.5 84.5q0 39 10 76.5t28.5 66.5t44.5 46.5t58 17.5q47 0 71 -32.5t24 -84.5q0 -37 -8.5 -74t-26.5 -66.5t-44.5 -48t-62.5 -18.5zM190 451q18 0 32 15t24 38t15 49.5t5 49.5q0 29 -9.5 47t-29.5 18q-18 0 -32 -16t-23.5 -39t-14.5 -50.5
t-5 -49.5q0 -28 9 -45t29 -17z" />
    <glyph glyph-name="guillemotright" unicode="&#xbb;" horiz-adv-x="356" 
d="M49 37l-47 31l121 189l-54 185l55 23l64 -216zM188 37l-47 31l121 189l-54 185l55 23l63 -216z" />
    <glyph glyph-name="onequarter" unicode="&#xbc;" horiz-adv-x="734" 
d="M600 0h-67l17 96h-159l11 65l180 277h95l-50 -281h50l-11 -61h-50zM597 366l-129 -209h95l35 209h-1zM210 -23l-48 19l409 745l47 -19zM229 270h-73l63 355l-83 -54l-24 56l129 81h65z" />
    <glyph glyph-name="onehalf" unicode="&#xbd;" horiz-adv-x="734" 
d="M708 341q0 -20 -4.5 -37t-15.5 -35.5t-28.5 -39.5t-42.5 -48l-110 -116h154l-11 -65h-240l11 68l154 160q36 39 47.5 61.5t11.5 44.5q0 18 -10 33t-33 15t-38 -16.5t-22 -41.5l-69 11q15 54 50.5 83t87.5 29t80 -30.5t28 -75.5zM210 -23l-48 19l409 745l47 -19zM229 270
h-73l63 355l-83 -54l-24 56l129 81h65z" />
    <glyph glyph-name="threequarters" unicode="&#xbe;" horiz-adv-x="734" 
d="M600 0h-67l17 96h-159l11 65l180 277h95l-50 -281h50l-11 -61h-50zM597 366l-129 -209h95l35 209h-1zM345 621q0 -18 -5 -36.5t-15.5 -34t-26 -27.5t-35.5 -17l-1 -2q28 -8 42.5 -32t14.5 -56q0 -31 -10.5 -58.5t-29 -47.5t-45 -32t-59.5 -12q-52 0 -82 26t-40 67l66 20
q5 -20 19 -35t38 -15q30 0 50.5 22t20.5 63q0 27 -16.5 43t-43.5 16h-18l10 59h20q31 0 52.5 21t21.5 59q0 17 -11 32.5t-34 15.5q-20 0 -34 -11.5t-23 -28.5l-59 19q20 44 52.5 64t73.5 20q48 0 77.5 -27.5t29.5 -74.5zM210 -23l-48 19l409 745l47 -19z" />
    <glyph glyph-name="questiondown" unicode="&#xbf;" horiz-adv-x="375" 
d="M-33 -63q0 34 10 62t26 52t37 45t44 41q19 17 32.5 31.5t22 28.5t13.5 29.5t8 34.5l6 37h71l-8 -48q-7 -42 -26.5 -80.5t-58.5 -73.5l-27 -24q-30 -26 -49.5 -54t-19.5 -73q0 -36 19.5 -59t53.5 -23q22 0 40 9t31.5 23.5t22.5 32.5t15 36l70 -19q-10 -32 -27 -60t-41 -49
t-55.5 -33.5t-71.5 -12.5q-39 0 -65.5 14t-42.5 36t-23 47.5t-7 49.5zM163 456q0 28 17.5 47t43.5 19q23 0 35.5 -15t12.5 -35q0 -25 -17 -45.5t-43 -20.5q-23 0 -36 14t-13 36z" />
    <glyph glyph-name="Agrave" unicode="&#xc0;" horiz-adv-x="481" 
d="M344 0l-7 168h-210l-74 -168h-88l318 708h113l35 -708h-87zM326 628h-4l-169 -392h185zM293 908l103 -144h-67l-120 144h84z" />
    <glyph glyph-name="Aacute" unicode="&#xc1;" horiz-adv-x="481" 
d="M344 0l-7 168h-210l-74 -168h-88l318 708h113l35 -708h-87zM326 628h-4l-169 -392h185zM359 764h-67l115 144h84z" />
    <glyph glyph-name="Acircumflex" unicode="&#xc2;" horiz-adv-x="481" 
d="M344 0l-7 168h-210l-74 -168h-88l318 708h113l35 -708h-87zM326 628h-4l-169 -392h185zM420 764l-54 101l-88 -101h-77l130 144h80l79 -144h-70z" />
    <glyph glyph-name="Atilde" unicode="&#xc3;" horiz-adv-x="481" 
d="M344 0l-7 168h-210l-74 -168h-88l318 708h113l35 -708h-87zM326 628h-4l-169 -392h185zM495 882q-11 -51 -36.5 -78.5t-58.5 -27.5q-17 0 -30 5t-31 19q-20 15 -29.5 18.5t-21.5 3.5q-28 0 -42 -46h-45q11 49 36.5 77.5t58.5 28.5q18 0 31.5 -5.5t30.5 -18.5
q20 -14 30 -18.5t22 -4.5q16 0 25 11t16 36h44z" />
    <glyph glyph-name="Adieresis" unicode="&#xc4;" horiz-adv-x="481" 
d="M344 0l-7 168h-210l-74 -168h-88l318 708h113l35 -708h-87zM326 628h-4l-169 -392h185zM326 850q0 -24 -15 -41t-38 -17q-20 0 -31.5 14t-11.5 31q0 22 15 39.5t38 17.5q20 0 31.5 -12t11.5 -32zM480 850q0 -24 -15 -41t-38 -17q-20 0 -31.5 14t-11.5 31q0 22 15 39.5
t38 17.5q20 0 31.5 -12t11.5 -32z" />
    <glyph glyph-name="Aring" unicode="&#xc5;" horiz-adv-x="481" 
d="M344 0l-7 168h-210l-74 -168h-88l318 708h113l35 -708h-87zM326 628h-4l-169 -392h185zM452 867q0 -24 -8 -45t-22.5 -37.5t-34 -26t-41.5 -9.5q-41 0 -61.5 23.5t-20.5 60.5q0 25 7.5 47t21 38.5t32.5 26t41 9.5q43 0 64.5 -25.5t21.5 -61.5zM413 864q0 21 -11.5 37.5
t-36.5 16.5q-30 0 -46.5 -25.5t-16.5 -56.5q0 -21 11.5 -36t35.5 -15q14 0 26 7t20.5 18t13 25t4.5 29z" />
    <glyph glyph-name="AE" unicode="&#xc6;" horiz-adv-x="638" 
d="M658 632h-196l-40 -229h184l-12 -71h-184l-44 -255h211l-14 -77h-291l29 166h-169l-88 -166h-90l379 708h338zM374 633l-208 -397h147l69 397h-8z" />
    <glyph glyph-name="Ccedilla" unicode="&#xc7;" horiz-adv-x="479" 
d="M475 583q-35 62 -104 62q-53 0 -94 -38t-69.5 -96t-43.5 -127t-15 -132q0 -41 7.5 -76t22.5 -60.5t38 -39.5t55 -14q22 0 41 6t34.5 16t28 22t21.5 23l46 -56q-33 -38 -72.5 -61t-92.5 -28l-43 -56q7 2 14 2.5t17 0.5q13 0 26.5 -4t23 -12.5t14 -22.5t1.5 -33
q-5 -26 -18.5 -43t-32 -27.5t-39.5 -14.5t-40 -4q-20 0 -44 4.5t-43 14.5l24 41q14 -8 31.5 -11t34.5 -3q7 0 17 2t19.5 7t17 12.5t9.5 19.5q3 19 -9 28t-32 9q-21 0 -42 -8l-16 17l63 82q-42 5 -74.5 26.5t-54 56t-33 80.5t-11.5 100q0 88 23.5 173t66.5 152.5t102 109
t131 41.5q54 0 94.5 -20.5t63.5 -62.5z" />
    <glyph glyph-name="Egrave" unicode="&#xc8;" horiz-adv-x="416" 
d="M436 632h-206l-40 -229h196l-13 -71h-195l-44 -255h222l-13 -77h-305l123 708h288zM260 908l103 -144h-67l-120 144h84z" />
    <glyph glyph-name="Eacute" unicode="&#xc9;" horiz-adv-x="416" 
d="M436 632h-206l-40 -229h196l-13 -71h-195l-44 -255h222l-13 -77h-305l123 708h288zM327 764h-67l115 144h84z" />
    <glyph glyph-name="Ecircumflex" unicode="&#xca;" horiz-adv-x="416" 
d="M436 632h-206l-40 -229h196l-13 -71h-195l-44 -255h222l-13 -77h-305l123 708h288zM386 764l-54 101l-88 -101h-77l130 144h80l79 -144h-70z" />
    <glyph glyph-name="Edieresis" unicode="&#xcb;" horiz-adv-x="416" 
d="M436 632h-206l-40 -229h196l-13 -71h-195l-44 -255h222l-13 -77h-305l123 708h288zM292 850q0 -24 -15 -41t-38 -17q-20 0 -31.5 14t-11.5 31q0 22 15 39.5t38 17.5q20 0 31.5 -12t11.5 -32zM446 850q0 -24 -15 -41t-38 -17q-20 0 -31.5 14t-11.5 31q0 22 15 39.5
t38 17.5q20 0 31.5 -12t11.5 -32z" />
    <glyph glyph-name="Igrave" unicode="&#xcc;" horiz-adv-x="240" 
d="M124 0h-86l123 708h86zM148 908l103 -144h-67l-120 144h84z" />
    <glyph glyph-name="Iacute" unicode="&#xcd;" horiz-adv-x="240" 
d="M124 0h-86l123 708h86zM233 764h-67l115 144h84z" />
    <glyph glyph-name="Icircumflex" unicode="&#xce;" horiz-adv-x="240" 
d="M124 0h-86l123 708h86zM283 764l-54 101l-88 -101h-77l130 144h80l79 -144h-70z" />
    <glyph glyph-name="Idieresis" unicode="&#xcf;" horiz-adv-x="240" 
d="M124 0h-86l123 708h86zM190 850q0 -24 -15 -41t-38 -17q-20 0 -31.5 14t-11.5 31q0 22 15 39.5t38 17.5q20 0 31.5 -12t11.5 -32zM344 850q0 -24 -15 -41t-38 -17q-20 0 -31.5 14t-11.5 31q0 22 15 39.5t38 17.5q20 0 31.5 -12t11.5 -32z" />
    <glyph glyph-name="Eth" unicode="&#xd0;" horiz-adv-x="545" 
d="M37 334l11 61h59l54 313h160q55 0 95 -20t66 -56t38.5 -85.5t12.5 -108.5q0 -90 -22 -170t-65 -139.5t-105 -94t-143 -34.5h-160l58 334h-59zM136 75h75q52 0 95.5 28.5t74.5 77.5t48 114t17 138q0 94 -35 147t-104 53h-75l-41 -238h132l-11 -61h-131z" />
    <glyph glyph-name="Ntilde" unicode="&#xd1;" horiz-adv-x="567" 
d="M451 0h-101l-134 557h-3l-96 -557h-79l123 708h103l130 -558h3l98 558h79zM534 882q-11 -51 -36.5 -78.5t-58.5 -27.5q-17 0 -30 5t-31 19q-20 15 -29.5 18.5t-21.5 3.5q-28 0 -42 -46h-45q11 49 36.5 77.5t58.5 28.5q18 0 31.5 -5.5t30.5 -18.5q20 -14 30 -18.5t22 -4.5
q16 0 25 11t16 36h44z" />
    <glyph glyph-name="Ograve" unicode="&#xd2;" horiz-adv-x="573" 
d="M561 461q0 -86 -21.5 -171t-61.5 -153.5t-96.5 -111t-125.5 -42.5q-48 0 -84.5 19t-62 53t-38.5 81.5t-13 105.5q0 85 21 171t60 155t95.5 112.5t128.5 43.5q49 0 86 -19.5t62 -54t37.5 -83t12.5 -106.5zM468 448q0 36 -4 72t-16 64t-33.5 45.5t-56.5 17.5q-33 0 -62 -19
t-52 -50.5t-41 -73.5t-30 -87.5t-18 -92t-6 -87.5q0 -36 6 -68t19.5 -55.5t35 -37.5t52.5 -14q48 0 86 36.5t64.5 93t41 125t14.5 131.5zM333 908l103 -144h-67l-120 144h84z" />
    <glyph glyph-name="Oacute" unicode="&#xd3;" horiz-adv-x="573" 
d="M561 461q0 -86 -21.5 -171t-61.5 -153.5t-96.5 -111t-125.5 -42.5q-48 0 -84.5 19t-62 53t-38.5 81.5t-13 105.5q0 85 21 171t60 155t95.5 112.5t128.5 43.5q49 0 86 -19.5t62 -54t37.5 -83t12.5 -106.5zM468 448q0 36 -4 72t-16 64t-33.5 45.5t-56.5 17.5q-33 0 -62 -19
t-52 -50.5t-41 -73.5t-30 -87.5t-18 -92t-6 -87.5q0 -36 6 -68t19.5 -55.5t35 -37.5t52.5 -14q48 0 86 36.5t64.5 93t41 125t14.5 131.5zM394 764h-67l115 144h84z" />
    <glyph glyph-name="Ocircumflex" unicode="&#xd4;" horiz-adv-x="573" 
d="M561 461q0 -86 -21.5 -171t-61.5 -153.5t-96.5 -111t-125.5 -42.5q-48 0 -84.5 19t-62 53t-38.5 81.5t-13 105.5q0 85 21 171t60 155t95.5 112.5t128.5 43.5q49 0 86 -19.5t62 -54t37.5 -83t12.5 -106.5zM468 448q0 36 -4 72t-16 64t-33.5 45.5t-56.5 17.5q-33 0 -62 -19
t-52 -50.5t-41 -73.5t-30 -87.5t-18 -92t-6 -87.5q0 -36 6 -68t19.5 -55.5t35 -37.5t52.5 -14q48 0 86 36.5t64.5 93t41 125t14.5 131.5zM456 764l-54 101l-88 -101h-77l130 144h80l79 -144h-70z" />
    <glyph glyph-name="Otilde" unicode="&#xd5;" horiz-adv-x="573" 
d="M561 461q0 -86 -21.5 -171t-61.5 -153.5t-96.5 -111t-125.5 -42.5q-48 0 -84.5 19t-62 53t-38.5 81.5t-13 105.5q0 85 21 171t60 155t95.5 112.5t128.5 43.5q49 0 86 -19.5t62 -54t37.5 -83t12.5 -106.5zM468 448q0 36 -4 72t-16 64t-33.5 45.5t-56.5 17.5q-33 0 -62 -19
t-52 -50.5t-41 -73.5t-30 -87.5t-18 -92t-6 -87.5q0 -36 6 -68t19.5 -55.5t35 -37.5t52.5 -14q48 0 86 36.5t64.5 93t41 125t14.5 131.5zM538 882q-11 -51 -36.5 -78.5t-58.5 -27.5q-17 0 -30 5t-31 19q-20 15 -29.5 18.5t-21.5 3.5q-28 0 -42 -46h-45q11 49 36.5 77.5
t58.5 28.5q18 0 31.5 -5.5t30.5 -18.5q20 -14 30 -18.5t22 -4.5q16 0 25 11t16 36h44z" />
    <glyph glyph-name="Odieresis" unicode="&#xd6;" horiz-adv-x="573" 
d="M561 461q0 -86 -21.5 -171t-61.5 -153.5t-96.5 -111t-125.5 -42.5q-48 0 -84.5 19t-62 53t-38.5 81.5t-13 105.5q0 85 21 171t60 155t95.5 112.5t128.5 43.5q49 0 86 -19.5t62 -54t37.5 -83t12.5 -106.5zM468 448q0 36 -4 72t-16 64t-33.5 45.5t-56.5 17.5q-33 0 -62 -19
t-52 -50.5t-41 -73.5t-30 -87.5t-18 -92t-6 -87.5q0 -36 6 -68t19.5 -55.5t35 -37.5t52.5 -14q48 0 86 36.5t64.5 93t41 125t14.5 131.5zM365 850q0 -24 -15 -41t-38 -17q-20 0 -31.5 14t-11.5 31q0 22 15 39.5t38 17.5q20 0 31.5 -12t11.5 -32zM519 850q0 -24 -15 -41
t-38 -17q-20 0 -31.5 14t-11.5 31q0 22 15 39.5t38 17.5q20 0 31.5 -12t11.5 -32z" />
    <glyph glyph-name="multiply" unicode="&#xd7;" horiz-adv-x="666" 
d="M333 360l170 171l57 -56l-170 -171l172 -173l-59 -58l-171 170l-170 -170l-58 58l172 170l-171 174l57 56z" />
    <glyph glyph-name="Oslash" unicode="&#xd8;" horiz-adv-x="573" 
d="M561 461q0 -86 -21.5 -171t-61.5 -153.5t-96.5 -111t-125.5 -42.5q-44 0 -78.5 15.5t-59.5 44.5l-55 -82l-47 25l73 102q-31 62 -31 154q0 85 21 171t60 155t95.5 112.5t128.5 43.5q41 0 73 -13.5t56 -37.5l50 73l45 -25l-64 -90q38 -68 38 -170zM468 448q0 25 -1.5 49.5
t-6.5 47.5l-288 -427q13 -26 35 -41t55 -15q48 0 86 36.5t64.5 93t41 125t14.5 131.5zM149 237q0 -17 1 -32.5t4 -29.5l285 427q-12 20 -32 32.5t-49 12.5q-33 0 -62 -19t-52 -50.5t-41 -73.5t-30 -87.5t-18 -92t-6 -87.5z" />
    <glyph glyph-name="Ugrave" unicode="&#xd9;" horiz-adv-x="551" 
d="M488 244q-9 -54 -26.5 -101.5t-46.5 -83t-71 -56t-100 -20.5q-47 0 -81.5 14.5t-56.5 39t-32.5 58.5t-10.5 73q0 35 7 76l81 464h86l-80 -455q-3 -18 -5 -36.5t-2 -35.5q0 -24 4.5 -45.5t16 -38t30.5 -26t48 -9.5q38 0 64.5 16t44.5 43t28.5 61.5t16.5 70.5l80 455h86z
M305 908l103 -144h-67l-120 144h84z" />
    <glyph glyph-name="Uacute" unicode="&#xda;" horiz-adv-x="551" 
d="M488 244q-9 -54 -26.5 -101.5t-46.5 -83t-71 -56t-100 -20.5q-47 0 -81.5 14.5t-56.5 39t-32.5 58.5t-10.5 73q0 35 7 76l81 464h86l-80 -455q-3 -18 -5 -36.5t-2 -35.5q0 -24 4.5 -45.5t16 -38t30.5 -26t48 -9.5q38 0 64.5 16t44.5 43t28.5 61.5t16.5 70.5l80 455h86z
M386 764h-67l115 144h84z" />
    <glyph glyph-name="Ucircumflex" unicode="&#xdb;" horiz-adv-x="551" 
d="M488 244q-9 -54 -26.5 -101.5t-46.5 -83t-71 -56t-100 -20.5q-47 0 -81.5 14.5t-56.5 39t-32.5 58.5t-10.5 73q0 35 7 76l81 464h86l-80 -455q-3 -18 -5 -36.5t-2 -35.5q0 -24 4.5 -45.5t16 -38t30.5 -26t48 -9.5q38 0 64.5 16t44.5 43t28.5 61.5t16.5 70.5l80 455h86z
M444 764l-54 101l-88 -101h-77l130 144h80l79 -144h-70z" />
    <glyph glyph-name="Udieresis" unicode="&#xdc;" horiz-adv-x="551" 
d="M488 244q-9 -54 -26.5 -101.5t-46.5 -83t-71 -56t-100 -20.5q-47 0 -81.5 14.5t-56.5 39t-32.5 58.5t-10.5 73q0 35 7 76l81 464h86l-80 -455q-3 -18 -5 -36.5t-2 -35.5q0 -24 4.5 -45.5t16 -38t30.5 -26t48 -9.5q38 0 64.5 16t44.5 43t28.5 61.5t16.5 70.5l80 455h86z
M350 850q0 -24 -15 -41t-38 -17q-20 0 -31.5 14t-11.5 31q0 22 15 39.5t38 17.5q20 0 31.5 -12t11.5 -32zM504 850q0 -24 -15 -41t-38 -17q-20 0 -31.5 14t-11.5 31q0 22 15 39.5t38 17.5q20 0 31.5 -12t11.5 -32z" />
    <glyph glyph-name="Yacute" unicode="&#xdd;" horiz-adv-x="425" 
d="M257 285l-49 -285h-85l49 285l-102 423h91l66 -335h2l185 335h95zM318 764h-67l115 144h84z" />
    <glyph glyph-name="Thorn" unicode="&#xde;" horiz-adv-x="470" 
d="M466 422q0 -57 -15.5 -101t-43.5 -74.5t-67 -46.5t-87 -16h-98l-32 -184h-85l123 708h85l-22 -122h79q35 0 65 -10t51.5 -30t34 -51t12.5 -73zM381 411q0 46 -22 73.5t-70 27.5h-77l-44 -257h83q61 0 95.5 41.5t34.5 114.5z" />
    <glyph glyph-name="germandbls" unicode="&#xdf;" horiz-adv-x="461" 
d="M463 615q0 -36 -9 -68.5t-26.5 -58t-43.5 -43t-60 -24.5q43 -11 73 -53.5t30 -108.5q0 -52 -14 -100t-42 -85t-69.5 -59.5t-96.5 -22.5q-13 0 -26 2t-23 4l12 69q10 -2 18.5 -3t15.5 -1q37 0 64.5 16.5t45.5 44t27 62t9 70.5q0 27 -6.5 50t-19 40t-31.5 27t-44 10h-15
l12 69h15q26 0 49.5 12t41 33t27.5 49t10 60q0 16 -3.5 32.5t-11.5 29.5t-21.5 21t-34.5 8q-27 0 -47 -14.5t-34 -39t-22.5 -55.5t-14.5 -64l-90 -524h-79l90 523q9 52 24 97t39.5 78t59 51.5t82.5 18.5q38 0 64.5 -13t43 -34.5t24 -49t7.5 -56.5z" />
    <glyph glyph-name="agrave" unicode="&#xe0;" horiz-adv-x="409" 
d="M370 385q0 -18 -2 -36t-6 -40l-35 -204q-2 -9 -4 -24t-4 -30.5t-4 -29.5t-2 -21h-69q0 7 1.5 18t3.5 23t3.5 24t3.5 20h-2q-19 -47 -51 -72.5t-80 -25.5q-43 0 -72.5 29t-29.5 89t22 99.5t56 63t75 33t80 9.5h34q5 28 6.5 40t1.5 20q0 41 -18 59.5t-50 18.5
q-28 0 -54.5 -14t-47.5 -37l-36 50q29 32 71 51.5t81 19.5q66 0 97 -35t31 -98zM242 248q-26 0 -52 -6.5t-46.5 -21.5t-33.5 -40.5t-13 -62.5q0 -33 15.5 -48.5t38.5 -15.5q27 0 47.5 16t36 40t25 53t14.5 56l6 30h-38zM219 715l103 -144h-67l-120 144h84z" />
    <glyph glyph-name="aacute" unicode="&#xe1;" horiz-adv-x="409" 
d="M370 385q0 -18 -2 -36t-6 -40l-35 -204q-2 -9 -4 -24t-4 -30.5t-4 -29.5t-2 -21h-69q0 7 1.5 18t3.5 23t3.5 24t3.5 20h-2q-19 -47 -51 -72.5t-80 -25.5q-43 0 -72.5 29t-29.5 89t22 99.5t56 63t75 33t80 9.5h34q5 28 6.5 40t1.5 20q0 41 -18 59.5t-50 18.5
q-28 0 -54.5 -14t-47.5 -37l-36 50q29 32 71 51.5t81 19.5q66 0 97 -35t31 -98zM242 248q-26 0 -52 -6.5t-46.5 -21.5t-33.5 -40.5t-13 -62.5q0 -33 15.5 -48.5t38.5 -15.5q27 0 47.5 16t36 40t25 53t14.5 56l6 30h-38zM280 571h-67l115 144h84z" />
    <glyph glyph-name="acircumflex" unicode="&#xe2;" horiz-adv-x="409" 
d="M370 385q0 -18 -2 -36t-6 -40l-35 -204q-2 -9 -4 -24t-4 -30.5t-4 -29.5t-2 -21h-69q0 7 1.5 18t3.5 23t3.5 24t3.5 20h-2q-19 -47 -51 -72.5t-80 -25.5q-43 0 -72.5 29t-29.5 89t22 99.5t56 63t75 33t80 9.5h34q5 28 6.5 40t1.5 20q0 41 -18 59.5t-50 18.5
q-28 0 -54.5 -14t-47.5 -37l-36 50q29 32 71 51.5t81 19.5q66 0 97 -35t31 -98zM242 248q-26 0 -52 -6.5t-46.5 -21.5t-33.5 -40.5t-13 -62.5q0 -33 15.5 -48.5t38.5 -15.5q27 0 47.5 16t36 40t25 53t14.5 56l6 30h-38zM335 571l-54 101l-88 -101h-77l130 144h80l79 -144
h-70z" />
    <glyph glyph-name="atilde" unicode="&#xe3;" horiz-adv-x="409" 
d="M370 385q0 -18 -2 -36t-6 -40l-35 -204q-2 -9 -4 -24t-4 -30.5t-4 -29.5t-2 -21h-69q0 7 1.5 18t3.5 23t3.5 24t3.5 20h-2q-19 -47 -51 -72.5t-80 -25.5q-43 0 -72.5 29t-29.5 89t22 99.5t56 63t75 33t80 9.5h34q5 28 6.5 40t1.5 20q0 41 -18 59.5t-50 18.5
q-28 0 -54.5 -14t-47.5 -37l-36 50q29 32 71 51.5t81 19.5q66 0 97 -35t31 -98zM242 248q-26 0 -52 -6.5t-46.5 -21.5t-33.5 -40.5t-13 -62.5q0 -33 15.5 -48.5t38.5 -15.5q27 0 47.5 16t36 40t25 53t14.5 56l6 30h-38zM411 689q-11 -51 -36.5 -78.5t-58.5 -27.5
q-17 0 -30 5t-31 19q-20 15 -29.5 18.5t-21.5 3.5q-28 0 -42 -46h-45q11 49 36.5 77.5t58.5 28.5q18 0 31.5 -5.5t30.5 -18.5q20 -14 30 -18.5t22 -4.5q16 0 25 11t16 36h44z" />
    <glyph glyph-name="adieresis" unicode="&#xe4;" horiz-adv-x="409" 
d="M370 385q0 -18 -2 -36t-6 -40l-35 -204q-2 -9 -4 -24t-4 -30.5t-4 -29.5t-2 -21h-69q0 7 1.5 18t3.5 23t3.5 24t3.5 20h-2q-19 -47 -51 -72.5t-80 -25.5q-43 0 -72.5 29t-29.5 89t22 99.5t56 63t75 33t80 9.5h34q5 28 6.5 40t1.5 20q0 41 -18 59.5t-50 18.5
q-28 0 -54.5 -14t-47.5 -37l-36 50q29 32 71 51.5t81 19.5q66 0 97 -35t31 -98zM242 248q-26 0 -52 -6.5t-46.5 -21.5t-33.5 -40.5t-13 -62.5q0 -33 15.5 -48.5t38.5 -15.5q27 0 47.5 16t36 40t25 53t14.5 56l6 30h-38zM237 657q0 -24 -15 -41t-38 -17q-20 0 -31.5 14
t-11.5 31q0 22 15 39.5t38 17.5q20 0 31.5 -12t11.5 -32zM391 657q0 -24 -15 -41t-38 -17q-20 0 -31.5 14t-11.5 31q0 22 15 39.5t38 17.5q20 0 31.5 -12t11.5 -32z" />
    <glyph glyph-name="aring" unicode="&#xe5;" horiz-adv-x="409" 
d="M370 385q0 -18 -2 -36t-6 -40l-35 -204q-2 -9 -4 -24t-4 -30.5t-4 -29.5t-2 -21h-69q0 7 1.5 18t3.5 23t3.5 24t3.5 20h-2q-19 -47 -51 -72.5t-80 -25.5q-43 0 -72.5 29t-29.5 89t22 99.5t56 63t75 33t80 9.5h34q5 28 6.5 40t1.5 20q0 41 -18 59.5t-50 18.5
q-28 0 -54.5 -14t-47.5 -37l-36 50q29 32 71 51.5t81 19.5q66 0 97 -35t31 -98zM242 248q-26 0 -52 -6.5t-46.5 -21.5t-33.5 -40.5t-13 -62.5q0 -33 15.5 -48.5t38.5 -15.5q27 0 47.5 16t36 40t25 53t14.5 56l6 30h-38zM363 674q0 -24 -8 -45t-22.5 -37.5t-34 -26
t-41.5 -9.5q-41 0 -61.5 23.5t-20.5 60.5q0 25 7.5 47t21 38.5t32.5 26t41 9.5q43 0 64.5 -25.5t21.5 -61.5zM324 671q0 21 -11.5 37.5t-36.5 16.5q-30 0 -46.5 -25.5t-16.5 -56.5q0 -21 11.5 -36t35.5 -15q14 0 26 7t20.5 18t13 25t4.5 29z" />
    <glyph glyph-name="ae" unicode="&#xe6;" horiz-adv-x="662" 
d="M132 -15q-46 0 -79 30t-33 90q0 58 21.5 95.5t55.5 58.5t74.5 29t79.5 8h34q6 38 8 52t2 22q0 41 -18 59.5t-50 18.5q-28 0 -54.5 -14t-47.5 -37l-36 50q29 32 71 51.5t81 19.5q58 0 84.5 -26.5t28.5 -73.5q23 46 60 73t83 27q36 0 62 -12t42 -33.5t23.5 -51.5t7.5 -66
q0 -20 -2 -45.5t-11 -75.5h-263q-2 -19 -3.5 -34t-1.5 -29q0 -50 18 -81t58 -31q34 0 57.5 21t40.5 50l58 -37q-28 -48 -67.5 -79t-97.5 -31q-57 0 -89.5 32.5t-39.5 85.5q-21 -57 -60 -86.5t-97 -29.5zM239 234q-26 0 -51.5 -5.5t-46 -19t-33 -36t-12.5 -56.5
q0 -33 15.5 -48.5t38.5 -15.5q27 0 47.5 15.5t35.5 38.5t24.5 49t13.5 47l6 31h-38zM553 353q0 42 -15.5 67t-49.5 25q-26 0 -46 -15.5t-35 -38t-24.5 -48.5t-13.5 -47h178q6 33 6 57z" />
    <glyph glyph-name="ccedilla" unicode="&#xe7;" horiz-adv-x="338" 
d="M326 418q-10 11 -24.5 19t-39.5 8q-33 0 -58.5 -27t-43.5 -68t-27.5 -89t-9.5 -90q0 -52 17 -82t65 -30q20 0 36.5 7t33.5 21l29 -65q-19 -15 -40 -24t-44 -13l-44 -57q7 2 14 2.5t17 0.5q13 0 26.5 -4t23 -12.5t14 -22.5t1.5 -33q-5 -26 -18.5 -43t-32 -27.5
t-39.5 -14.5t-40 -4q-20 0 -44 4.5t-43 14.5l24 41q14 -8 31.5 -11t34.5 -3q7 0 17 2t19.5 7t17 12.5t9.5 19.5q3 19 -9 28t-32 9q-21 0 -42 -8l-16 17l63 82q-69 8 -101 58t-32 123q0 62 15 125t44 113.5t71 82t97 31.5q45 0 68.5 -12.5t37.5 -26.5z" />
    <glyph glyph-name="egrave" unicode="&#xe8;" horiz-adv-x="431" 
d="M401 355q0 -10 -0.5 -21t-1.5 -25.5t-4 -33.5t-7 -46h-261q-2 -15 -3.5 -29.5t-1.5 -28.5q0 -50 18 -81t58 -31q34 0 57.5 21t40.5 50l58 -37q-28 -48 -67.5 -79t-97.5 -31q-70 0 -110 47.5t-40 135.5q0 64 16 127.5t45.5 113t71.5 80.5t93 31q36 0 62 -12t42.5 -33.5
t24 -51.5t7.5 -66zM324 353q0 42 -15.5 67t-49.5 25q-26 0 -46 -15.5t-35 -38t-24.5 -48.5t-13.5 -47h178q6 33 6 57zM220 715l103 -144h-67l-120 144h84z" />
    <glyph glyph-name="eacute" unicode="&#xe9;" horiz-adv-x="431" 
d="M401 355q0 -10 -0.5 -21t-1.5 -25.5t-4 -33.5t-7 -46h-261q-2 -15 -3.5 -29.5t-1.5 -28.5q0 -50 18 -81t58 -31q34 0 57.5 21t40.5 50l58 -37q-28 -48 -67.5 -79t-97.5 -31q-70 0 -110 47.5t-40 135.5q0 64 16 127.5t45.5 113t71.5 80.5t93 31q36 0 62 -12t42.5 -33.5
t24 -51.5t7.5 -66zM324 353q0 42 -15.5 67t-49.5 25q-26 0 -46 -15.5t-35 -38t-24.5 -48.5t-13.5 -47h178q6 33 6 57zM305 571h-67l115 144h84z" />
    <glyph glyph-name="ecircumflex" unicode="&#xea;" horiz-adv-x="431" 
d="M401 355q0 -10 -0.5 -21t-1.5 -25.5t-4 -33.5t-7 -46h-261q-2 -15 -3.5 -29.5t-1.5 -28.5q0 -50 18 -81t58 -31q34 0 57.5 21t40.5 50l58 -37q-28 -48 -67.5 -79t-97.5 -31q-70 0 -110 47.5t-40 135.5q0 64 16 127.5t45.5 113t71.5 80.5t93 31q36 0 62 -12t42.5 -33.5
t24 -51.5t7.5 -66zM324 353q0 42 -15.5 67t-49.5 25q-26 0 -46 -15.5t-35 -38t-24.5 -48.5t-13.5 -47h178q6 33 6 57zM360 571l-54 101l-88 -101h-77l130 144h80l79 -144h-70z" />
    <glyph glyph-name="edieresis" unicode="&#xeb;" horiz-adv-x="431" 
d="M401 355q0 -10 -0.5 -21t-1.5 -25.5t-4 -33.5t-7 -46h-261q-2 -15 -3.5 -29.5t-1.5 -28.5q0 -50 18 -81t58 -31q34 0 57.5 21t40.5 50l58 -37q-28 -48 -67.5 -79t-97.5 -31q-70 0 -110 47.5t-40 135.5q0 64 16 127.5t45.5 113t71.5 80.5t93 31q36 0 62 -12t42.5 -33.5
t24 -51.5t7.5 -66zM324 353q0 42 -15.5 67t-49.5 25q-26 0 -46 -15.5t-35 -38t-24.5 -48.5t-13.5 -47h178q6 33 6 57zM261 657q0 -24 -15 -41t-38 -17q-20 0 -31.5 14t-11.5 31q0 22 15 39.5t38 17.5q20 0 31.5 -12t11.5 -32zM415 657q0 -24 -15 -41t-38 -17q-20 0 -31.5 14
t-11.5 31q0 22 15 39.5t38 17.5q20 0 31.5 -12t11.5 -32z" />
    <glyph glyph-name="igrave" unicode="&#xec;" horiz-adv-x="226" 
d="M114 0h-81l87 501h81zM104 715l103 -144h-67l-120 144h84z" />
    <glyph glyph-name="iacute" unicode="&#xed;" horiz-adv-x="226" 
d="M114 0h-81l87 501h81zM194 571h-67l115 144h84z" />
    <glyph glyph-name="icircumflex" unicode="&#xee;" horiz-adv-x="226" 
d="M114 0h-81l87 501h81zM240 571l-54 101l-88 -101h-77l130 144h80l79 -144h-70z" />
    <glyph glyph-name="idieresis" unicode="&#xef;" horiz-adv-x="226" 
d="M114 0h-81l87 501h81zM147 657q0 -24 -15 -41t-38 -17q-20 0 -31.5 14t-11.5 31q0 22 15 39.5t38 17.5q20 0 31.5 -12t11.5 -32zM301 657q0 -24 -15 -41t-38 -17q-20 0 -31.5 14t-11.5 31q0 22 15 39.5t38 17.5q20 0 31.5 -12t11.5 -32z" />
    <glyph glyph-name="eth" unicode="&#xf0;" horiz-adv-x="444" 
d="M416 333q0 -64 -16 -127t-46 -112.5t-72.5 -80t-94.5 -30.5q-69 0 -108.5 50.5t-39.5 135.5q0 65 15.5 126.5t45 109t71 76.5t93.5 29q20 0 34.5 -7t24.5 -18l2 2q-8 37 -25.5 77.5t-37.5 69.5l-106 -55l-28 38l107 55q-14 20 -31.5 38.5t-34.5 32.5l77 35q18 -18 35 -37
t30 -39l98 50l31 -37l-105 -53q15 -24 29.5 -60t26 -79t18.5 -92t7 -98zM332 330q0 53 -17 85t-54 32q-33 0 -58.5 -28t-43 -70t-27 -90.5t-9.5 -89.5q0 -51 16.5 -82.5t53.5 -31.5q33 0 59 27.5t44 68.5t27 89t9 90z" />
    <glyph glyph-name="ntilde" unicode="&#xf1;" 
d="M112 0h-81l65 374q1 8 3.5 26t5.5 38t6 38t4 25h80q-2 -14 -5.5 -39.5t-7.5 -49.5h2q20 45 56 75.5t83 30.5q29 0 49 -10.5t32.5 -27.5t18 -39t5.5 -45q0 -14 -2 -35t-6 -41l-55 -320h-82l55 320l4 28t2 28q0 29 -11.5 49t-44.5 20q-22 0 -42.5 -12t-37 -33t-28.5 -49.5
t-18 -62.5zM452 689q-11 -51 -36.5 -78.5t-58.5 -27.5q-17 0 -30 5t-31 19q-20 15 -29.5 18.5t-21.5 3.5q-28 0 -42 -46h-45q11 49 36.5 77.5t58.5 28.5q18 0 31.5 -5.5t30.5 -18.5q20 -14 30 -18.5t22 -4.5q16 0 25 11t16 36h44z" />
    <glyph glyph-name="ograve" unicode="&#xf2;" horiz-adv-x="449" 
d="M416 333q0 -64 -16 -127t-46 -112.5t-72.5 -80t-94.5 -30.5q-69 0 -108.5 50.5t-39.5 135.5q0 65 16 127.5t46 112t72.5 79.5t94.5 30q69 0 108.5 -50t39.5 -135zM332 330q0 53 -17 85t-54 32q-33 0 -58.5 -28t-43 -70t-27 -90.5t-9.5 -89.5q0 -51 16.5 -82.5t53.5 -31.5
q33 0 59 27.5t44 68.5t27 89t9 90zM217 715l103 -144h-67l-120 144h84z" />
    <glyph glyph-name="oacute" unicode="&#xf3;" horiz-adv-x="449" 
d="M416 333q0 -64 -16 -127t-46 -112.5t-72.5 -80t-94.5 -30.5q-69 0 -108.5 50.5t-39.5 135.5q0 65 16 127.5t46 112t72.5 79.5t94.5 30q69 0 108.5 -50t39.5 -135zM332 330q0 53 -17 85t-54 32q-33 0 -58.5 -28t-43 -70t-27 -90.5t-9.5 -89.5q0 -51 16.5 -82.5t53.5 -31.5
q33 0 59 27.5t44 68.5t27 89t9 90zM311 571h-67l115 144h84z" />
    <glyph glyph-name="ocircumflex" unicode="&#xf4;" horiz-adv-x="449" 
d="M416 333q0 -64 -16 -127t-46 -112.5t-72.5 -80t-94.5 -30.5q-69 0 -108.5 50.5t-39.5 135.5q0 65 16 127.5t46 112t72.5 79.5t94.5 30q69 0 108.5 -50t39.5 -135zM332 330q0 53 -17 85t-54 32q-33 0 -58.5 -28t-43 -70t-27 -90.5t-9.5 -89.5q0 -51 16.5 -82.5t53.5 -31.5
q33 0 59 27.5t44 68.5t27 89t9 90zM358 571l-54 101l-88 -101h-77l130 144h80l79 -144h-70z" />
    <glyph glyph-name="otilde" unicode="&#xf5;" horiz-adv-x="449" 
d="M416 333q0 -64 -16 -127t-46 -112.5t-72.5 -80t-94.5 -30.5q-69 0 -108.5 50.5t-39.5 135.5q0 65 16 127.5t46 112t72.5 79.5t94.5 30q69 0 108.5 -50t39.5 -135zM332 330q0 53 -17 85t-54 32q-33 0 -58.5 -28t-43 -70t-27 -90.5t-9.5 -89.5q0 -51 16.5 -82.5t53.5 -31.5
q33 0 59 27.5t44 68.5t27 89t9 90zM439 689q-11 -51 -36.5 -78.5t-58.5 -27.5q-17 0 -30 5t-31 19q-20 15 -29.5 18.5t-21.5 3.5q-28 0 -42 -46h-45q11 49 36.5 77.5t58.5 28.5q18 0 31.5 -5.5t30.5 -18.5q20 -14 30 -18.5t22 -4.5q16 0 25 11t16 36h44z" />
    <glyph glyph-name="odieresis" unicode="&#xf6;" horiz-adv-x="449" 
d="M416 333q0 -64 -16 -127t-46 -112.5t-72.5 -80t-94.5 -30.5q-69 0 -108.5 50.5t-39.5 135.5q0 65 16 127.5t46 112t72.5 79.5t94.5 30q69 0 108.5 -50t39.5 -135zM332 330q0 53 -17 85t-54 32q-33 0 -58.5 -28t-43 -70t-27 -90.5t-9.5 -89.5q0 -51 16.5 -82.5t53.5 -31.5
q33 0 59 27.5t44 68.5t27 89t9 90zM268 657q0 -24 -15 -41t-38 -17q-20 0 -31.5 14t-11.5 31q0 22 15 39.5t38 17.5q20 0 31.5 -12t11.5 -32zM422 657q0 -24 -15 -41t-38 -17q-20 0 -31.5 14t-11.5 31q0 22 15 39.5t38 17.5q20 0 31.5 -12t11.5 -32z" />
    <glyph glyph-name="divide" unicode="&#xf7;" horiz-adv-x="666" 
d="M596 262h-526v82h526v-82zM398 132q0 -26 -18.5 -45.5t-46.5 -19.5t-46.5 19.5t-18.5 45.5t18.5 45.5t46.5 19.5t46.5 -19.5t18.5 -45.5zM398 469q0 -26 -18.5 -45.5t-46.5 -19.5t-46.5 19.5t-18.5 45.5t18.5 45.5t46.5 19.5t46.5 -19.5t18.5 -45.5z" />
    <glyph glyph-name="oslash" unicode="&#xf8;" horiz-adv-x="449" 
d="M416 333q0 -64 -16 -127t-46 -112.5t-72.5 -80t-94.5 -30.5q-30 0 -54.5 10t-43.5 28l-40 -63l-39 19l54 79q-25 47 -25 113q0 65 16 127.5t46 112t72.5 79.5t94.5 30q57 0 96 -36l38 57l38 -19l-50 -72q26 -46 26 -115zM332 330q0 20 -3 38l-191 -279q17 -34 55 -34
q33 0 59 27.5t44 68.5t27 89t9 90zM123 169q0 -9 0.5 -16.5t1.5 -15.5l189 278q-18 32 -53 32q-33 0 -58.5 -28t-43 -70t-27 -90.5t-9.5 -89.5z" />
    <glyph glyph-name="ugrave" unicode="&#xf9;" 
d="M367 501h81l-65 -374q-1 -8 -4 -26t-6 -38t-5.5 -38t-3.5 -25h-80q2 14 5.5 39.5t7.5 49.5h-2q-20 -45 -56 -75.5t-83 -30.5q-29 0 -49 10.5t-32.5 27.5t-18 39t-5.5 45q0 14 2 35t6 41l55 320h82l-55 -320l-4 -28t-2 -28q0 -29 11.5 -49t44.5 -20q22 0 42.5 12t37 33
t28.5 49.5t18 62.5zM228 715l103 -144h-67l-120 144h84z" />
    <glyph glyph-name="uacute" unicode="&#xfa;" 
d="M367 501h81l-65 -374q-1 -8 -4 -26t-6 -38t-5.5 -38t-3.5 -25h-80q2 14 5.5 39.5t7.5 49.5h-2q-20 -45 -56 -75.5t-83 -30.5q-29 0 -49 10.5t-32.5 27.5t-18 39t-5.5 45q0 14 2 35t6 41l55 320h82l-55 -320l-4 -28t-2 -28q0 -29 11.5 -49t44.5 -20q22 0 42.5 12t37 33
t28.5 49.5t18 62.5zM310 571h-67l115 144h84z" />
    <glyph glyph-name="ucircumflex" unicode="&#xfb;" 
d="M367 501h81l-65 -374q-1 -8 -4 -26t-6 -38t-5.5 -38t-3.5 -25h-80q2 14 5.5 39.5t7.5 49.5h-2q-20 -45 -56 -75.5t-83 -30.5q-29 0 -49 10.5t-32.5 27.5t-18 39t-5.5 45q0 14 2 35t6 41l55 320h82l-55 -320l-4 -28t-2 -28q0 -29 11.5 -49t44.5 -20q22 0 42.5 12t37 33
t28.5 49.5t18 62.5zM370 571l-54 101l-88 -101h-77l130 144h80l79 -144h-70z" />
    <glyph glyph-name="udieresis" unicode="&#xfc;" 
d="M367 501h81l-65 -374q-1 -8 -4 -26t-6 -38t-5.5 -38t-3.5 -25h-80q2 14 5.5 39.5t7.5 49.5h-2q-20 -45 -56 -75.5t-83 -30.5q-29 0 -49 10.5t-32.5 27.5t-18 39t-5.5 45q0 14 2 35t6 41l55 320h82l-55 -320l-4 -28t-2 -28q0 -29 11.5 -49t44.5 -20q22 0 42.5 12t37 33
t28.5 49.5t18 62.5zM276 657q0 -24 -15 -41t-38 -17q-20 0 -31.5 14t-11.5 31q0 22 15 39.5t38 17.5q20 0 31.5 -12t11.5 -32zM430 657q0 -24 -15 -41t-38 -17q-20 0 -31.5 14t-11.5 31q0 22 15 39.5t38 17.5q20 0 31.5 -12t11.5 -32z" />
    <glyph glyph-name="yacute" unicode="&#xfd;" horiz-adv-x="390" 
d="M165 -94q-15 -34 -30 -61t-34 -46t-42 -29t-53 -10q-26 0 -47 8l16 73q12 -6 31 -6q29 0 46.5 18t31.5 51l34 81l-58 516h85l30 -406h2l162 406h84zM275 571h-67l115 144h84z" />
    <glyph glyph-name="thorn" unicode="&#xfe;" horiz-adv-x="478" 
d="M445 344q0 -61 -15 -125t-42.5 -116.5t-66.5 -86t-87 -33.5q-51 0 -75 28t-27 66h-2l-56 -317h-79l171 996h81l-58 -330h2q19 41 51 66.5t76 25.5q63 0 95 -47.5t32 -126.5zM360 334q0 51 -16.5 82t-53.5 31q-33 0 -59 -27.5t-44 -68.5t-27.5 -89t-9.5 -89
q0 -53 16.5 -85.5t54.5 -32.5q34 0 60 28.5t43.5 70.5t26.5 90.5t9 89.5z" />
    <glyph glyph-name="ydieresis" unicode="&#xff;" horiz-adv-x="390" 
d="M165 -94q-15 -34 -30 -61t-34 -46t-42 -29t-53 -10q-26 0 -47 8l16 73q12 -6 31 -6q29 0 46.5 18t31.5 51l34 81l-58 516h85l30 -406h2l162 406h84zM241 657q0 -24 -15 -41t-38 -17q-20 0 -31.5 14t-11.5 31q0 22 15 39.5t38 17.5q20 0 31.5 -12t11.5 -32zM395 657
q0 -24 -15 -41t-38 -17q-20 0 -31.5 14t-11.5 31q0 22 15 39.5t38 17.5q20 0 31.5 -12t11.5 -32z" />
    <glyph glyph-name="Amacron" unicode="&#x100;" horiz-adv-x="481" 
d="M344 0l-7 168h-210l-74 -168h-88l318 708h113l35 -708h-87zM326 628h-4l-169 -392h185zM222 807l10 57h258l-10 -57h-258z" />
    <glyph glyph-name="amacron" unicode="&#x101;" horiz-adv-x="409" 
d="M370 385q0 -18 -2 -36t-6 -40l-35 -204q-2 -9 -4 -24t-4 -30.5t-4 -29.5t-2 -21h-69q0 7 1.5 18t3.5 23t3.5 24t3.5 20h-2q-19 -47 -51 -72.5t-80 -25.5q-43 0 -72.5 29t-29.5 89t22 99.5t56 63t75 33t80 9.5h34q5 28 6.5 40t1.5 20q0 41 -18 59.5t-50 18.5
q-28 0 -54.5 -14t-47.5 -37l-36 50q29 32 71 51.5t81 19.5q66 0 97 -35t31 -98zM242 248q-26 0 -52 -6.5t-46.5 -21.5t-33.5 -40.5t-13 -62.5q0 -33 15.5 -48.5t38.5 -15.5q27 0 47.5 16t36 40t25 53t14.5 56l6 30h-38zM129 614l10 57h258l-10 -57h-258z" />
    <glyph glyph-name="Abreve" unicode="&#x102;" horiz-adv-x="481" 
d="M344 0l-7 168h-210l-74 -168h-88l318 708h113l35 -708h-87zM326 628h-4l-169 -392h185zM495 901q-21 -72 -61 -102.5t-92 -30.5q-50 0 -83 31t-33 102h56q0 -39 18.5 -56.5t45.5 -17.5q33 0 56 16.5t37 57.5h56z" />
    <glyph glyph-name="abreve" unicode="&#x103;" horiz-adv-x="409" 
d="M370 385q0 -18 -2 -36t-6 -40l-35 -204q-2 -9 -4 -24t-4 -30.5t-4 -29.5t-2 -21h-69q0 7 1.5 18t3.5 23t3.5 24t3.5 20h-2q-19 -47 -51 -72.5t-80 -25.5q-43 0 -72.5 29t-29.5 89t22 99.5t56 63t75 33t80 9.5h34q5 28 6.5 40t1.5 20q0 41 -18 59.5t-50 18.5
q-28 0 -54.5 -14t-47.5 -37l-36 50q29 32 71 51.5t81 19.5q66 0 97 -35t31 -98zM242 248q-26 0 -52 -6.5t-46.5 -21.5t-33.5 -40.5t-13 -62.5q0 -33 15.5 -48.5t38.5 -15.5q27 0 47.5 16t36 40t25 53t14.5 56l6 30h-38zM405 708q-21 -72 -61 -102.5t-92 -30.5q-50 0 -83 31
t-33 102h56q0 -39 18.5 -56.5t45.5 -17.5q33 0 56 16.5t37 57.5h56z" />
    <glyph glyph-name="Aogonek" unicode="&#x104;" horiz-adv-x="481" 
d="M432 -186q-20 -17 -43.5 -26.5t-47.5 -9.5q-37 0 -60 20.5t-16 62.5q4 21 15.5 41t27 37.5t33.5 32.5t35 28h-32l-7 168h-210l-74 -168h-88l318 708h113l35 -708h-1q-45 -38 -68.5 -65.5t-28.5 -55.5q-4 -20 6.5 -32t28.5 -12q28 0 52 21zM326 628h-4l-169 -392h185z" />
    <glyph glyph-name="aogonek" unicode="&#x105;" horiz-adv-x="409" 
d="M313 -186q-20 -17 -43.5 -26.5t-47.5 -9.5q-37 0 -60 20.5t-16 62.5q4 21 15.5 41t27 37.5t33.5 32.5t35 28h-14q0 7 1.5 18t3.5 23t3.5 24t3.5 20h-2q-19 -47 -51 -73.5t-80 -26.5q-43 0 -72.5 30t-29.5 90t22 99.5t56 63t75 33t80 9.5h34q5 28 6.5 40t1.5 20
q0 41 -18 59.5t-50 18.5q-28 0 -54.5 -14t-47.5 -37l-36 50q29 32 71 51.5t81 19.5q66 0 97 -35t31 -98q0 -18 -2 -36t-6 -40l-35 -204q-2 -9 -4 -24t-4 -30.5t-4 -29.5t-2 -21h-1q-45 -38 -68.5 -65.5t-28.5 -55.5q-4 -20 6.5 -32t28.5 -12q28 0 52 21zM241 248
q-26 0 -52 -6.5t-46.5 -21.5t-33.5 -40.5t-13 -62.5q0 -33 15.5 -48.5t38.5 -15.5q27 0 47.5 16t36 40t25 53t14.5 56l6 30h-38z" />
    <glyph glyph-name="Cacute" unicode="&#x106;" horiz-adv-x="479" 
d="M475 583q-35 62 -104 62q-53 0 -94 -38t-69.5 -96t-43.5 -127t-15 -132q0 -41 7.5 -76t22.5 -60.5t38 -39.5t55 -14q22 0 41 6t34.5 16t28 22t21.5 23l46 -56q-36 -42 -81 -66t-106 -24q-48 0 -85 19.5t-62 55t-38 84t-13 106.5q0 88 23.5 173t66.5 152.5t102 109
t131 41.5q54 0 94.5 -20.5t63.5 -62.5zM382 764h-67l115 144h84z" />
    <glyph glyph-name="cacute" unicode="&#x107;" horiz-adv-x="338" 
d="M326 418q-10 11 -24.5 19t-39.5 8q-33 0 -58.5 -27t-43.5 -68t-27.5 -89t-9.5 -90q0 -52 17 -82t65 -30q20 0 36.5 7t33.5 21l29 -65q-23 -19 -51.5 -29t-57.5 -10q-41 0 -70 14t-48.5 38.5t-28.5 58t-9 72.5q0 62 15 125t44 113.5t71 82t97 31.5q45 0 68.5 -12.5
t37.5 -26.5zM281 571h-67l115 144h84z" />
    <glyph glyph-name="Ccircumflex" unicode="&#x108;" horiz-adv-x="479" 
d="M475 583q-35 62 -104 62q-53 0 -94 -38t-69.5 -96t-43.5 -127t-15 -132q0 -41 7.5 -76t22.5 -60.5t38 -39.5t55 -14q22 0 41 6t34.5 16t28 22t21.5 23l46 -56q-36 -42 -81 -66t-106 -24q-48 0 -85 19.5t-62 55t-38 84t-13 106.5q0 88 23.5 173t66.5 152.5t102 109
t131 41.5q54 0 94.5 -20.5t63.5 -62.5zM469 764l-54 101l-88 -101h-77l130 144h80l79 -144h-70z" />
    <glyph glyph-name="ccircumflex" unicode="&#x109;" horiz-adv-x="338" 
d="M326 418q-10 11 -24.5 19t-39.5 8q-33 0 -58.5 -27t-43.5 -68t-27.5 -89t-9.5 -90q0 -52 17 -82t65 -30q20 0 36.5 7t33.5 21l29 -65q-23 -19 -51.5 -29t-57.5 -10q-41 0 -70 14t-48.5 38.5t-28.5 58t-9 72.5q0 62 15 125t44 113.5t71 82t97 31.5q45 0 68.5 -12.5
t37.5 -26.5zM355 571l-54 101l-88 -101h-77l130 144h80l79 -144h-70z" />
    <glyph glyph-name="Cdotaccent" unicode="&#x10a;" horiz-adv-x="479" 
d="M475 583q-35 62 -104 62q-53 0 -94 -38t-69.5 -96t-43.5 -127t-15 -132q0 -41 7.5 -76t22.5 -60.5t38 -39.5t55 -14q22 0 41 6t34.5 16t28 22t21.5 23l46 -56q-36 -42 -81 -66t-106 -24q-48 0 -85 19.5t-62 55t-38 84t-13 106.5q0 88 23.5 173t66.5 152.5t102 109
t131 41.5q54 0 94.5 -20.5t63.5 -62.5zM455 851q0 -26 -16.5 -44.5t-41.5 -18.5q-22 0 -34 14.5t-12 33.5q0 24 16 43.5t41 19.5q22 0 34.5 -13.5t12.5 -34.5z" />
    <glyph glyph-name="cdotaccent" unicode="&#x10b;" horiz-adv-x="338" 
d="M326 418q-10 11 -24.5 19t-39.5 8q-33 0 -58.5 -27t-43.5 -68t-27.5 -89t-9.5 -90q0 -52 17 -82t65 -30q20 0 36.5 7t33.5 21l29 -65q-23 -19 -51.5 -29t-57.5 -10q-41 0 -70 14t-48.5 38.5t-28.5 58t-9 72.5q0 62 15 125t44 113.5t71 82t97 31.5q45 0 68.5 -12.5
t37.5 -26.5zM344 658q0 -26 -16.5 -44.5t-41.5 -18.5q-22 0 -34 14.5t-12 33.5q0 24 16 43.5t41 19.5q22 0 34.5 -13.5t12.5 -34.5z" />
    <glyph glyph-name="Ccaron" unicode="&#x10c;" horiz-adv-x="479" 
d="M475 583q-35 62 -104 62q-53 0 -94 -38t-69.5 -96t-43.5 -127t-15 -132q0 -41 7.5 -76t22.5 -60.5t38 -39.5t55 -14q22 0 41 6t34.5 16t28 22t21.5 23l46 -56q-36 -42 -81 -66t-106 -24q-48 0 -85 19.5t-62 55t-38 84t-13 106.5q0 88 23.5 173t66.5 152.5t102 109
t131 41.5q54 0 94.5 -20.5t63.5 -62.5zM429 763h-80l-80 144h69l53 -101l89 101h78z" />
    <glyph glyph-name="ccaron" unicode="&#x10d;" horiz-adv-x="338" 
d="M326 418q-10 11 -24.5 19t-39.5 8q-33 0 -58.5 -27t-43.5 -68t-27.5 -89t-9.5 -90q0 -52 17 -82t65 -30q20 0 36.5 7t33.5 21l29 -65q-23 -19 -51.5 -29t-57.5 -10q-41 0 -70 14t-48.5 38.5t-28.5 58t-9 72.5q0 62 15 125t44 113.5t71 82t97 31.5q45 0 68.5 -12.5
t37.5 -26.5zM318 570h-80l-80 144h69l53 -101l89 101h78z" />
    <glyph glyph-name="Dcaron" unicode="&#x10e;" horiz-adv-x="545" 
d="M533 438q0 -90 -22 -170t-65 -139.5t-105 -94t-143 -34.5h-160l123 708h160q55 0 95 -20t66 -56t38.5 -85.5t12.5 -108.5zM446 433q0 94 -35 147t-104 53h-75l-96 -558h75q52 0 95.5 28.5t74.5 77.5t48 114t17 138zM369 763h-80l-80 144h69l53 -101l89 101h78z" />
    <glyph glyph-name="dcaron" unicode="&#x10f;" horiz-adv-x="472" 
d="M361 0h-79l14 81h-1q-20 -42 -51.5 -70t-83.5 -28q-61 0 -91 49t-30 129q0 61 15 124.5t42.5 115t67 84.5t89.5 33q45 0 70 -25.5t30 -66.5h2l57 330h81zM333 327q0 54 -17 87t-54 33q-34 0 -60 -28t-43.5 -70t-26.5 -91t-9 -90q0 -51 16.5 -82t53.5 -31q33 0 59 27
t44 68t27.5 88.5t9.5 88.5zM556 523h-65l86 185h74z" />
    <glyph glyph-name="Dcroat" unicode="&#x110;" horiz-adv-x="545" 
d="M37 334l11 61h59l54 313h160q55 0 95 -20t66 -56t38.5 -85.5t12.5 -108.5q0 -90 -22 -170t-65 -139.5t-105 -94t-143 -34.5h-160l58 334h-59zM136 75h75q52 0 95.5 28.5t74.5 77.5t48 114t17 138q0 94 -35 147t-104 53h-75l-41 -238h132l-11 -61h-131z" />
    <glyph glyph-name="dcroat" unicode="&#x111;" horiz-adv-x="472" 
d="M462 582l-101 -582h-79l14 81h-1q-20 -42 -51.5 -70t-83.5 -28q-61 0 -91 49t-30 129q0 61 15 124.5t42.5 115t67 84.5t89.5 33q45 0 70 -25.5t30 -66.5h2l27 156h-125l10 52h124l21 122h81l-22 -122h44l-10 -52h-43zM333 327q0 54 -17 87t-54 33q-34 0 -60 -28
t-43.5 -70t-26.5 -91t-9 -90q0 -51 16.5 -82t53.5 -31q33 0 59 27t44 68t27.5 88.5t9.5 88.5z" />
    <glyph glyph-name="Emacron" unicode="&#x112;" horiz-adv-x="416" 
d="M436 632h-206l-40 -229h196l-13 -71h-195l-44 -255h222l-13 -77h-305l123 708h288zM183 807l10 57h258l-10 -57h-258z" />
    <glyph glyph-name="emacron" unicode="&#x113;" horiz-adv-x="431" 
d="M401 355q0 -10 -0.5 -21t-1.5 -25.5t-4 -33.5t-7 -46h-261q-2 -15 -3.5 -29.5t-1.5 -28.5q0 -50 18 -81t58 -31q34 0 57.5 21t40.5 50l58 -37q-28 -48 -67.5 -79t-97.5 -31q-70 0 -110 47.5t-40 135.5q0 64 16 127.5t45.5 113t71.5 80.5t93 31q36 0 62 -12t42.5 -33.5
t24 -51.5t7.5 -66zM324 353q0 42 -15.5 67t-49.5 25q-26 0 -46 -15.5t-35 -38t-24.5 -48.5t-13.5 -47h178q6 33 6 57zM158 614l10 57h258l-10 -57h-258z" />
    <glyph glyph-name="Ebreve" unicode="&#x114;" horiz-adv-x="416" 
d="M436 632h-206l-40 -229h196l-13 -71h-195l-44 -255h222l-13 -77h-305l123 708h288zM466 901q-21 -72 -61 -102.5t-92 -30.5q-50 0 -83 31t-33 102h56q0 -39 18.5 -56.5t45.5 -17.5q33 0 56 16.5t37 57.5h56z" />
    <glyph glyph-name="ebreve" unicode="&#x115;" horiz-adv-x="431" 
d="M401 355q0 -10 -0.5 -21t-1.5 -25.5t-4 -33.5t-7 -46h-261q-2 -15 -3.5 -29.5t-1.5 -28.5q0 -50 18 -81t58 -31q34 0 57.5 21t40.5 50l58 -37q-28 -48 -67.5 -79t-97.5 -31q-70 0 -110 47.5t-40 135.5q0 64 16 127.5t45.5 113t71.5 80.5t93 31q36 0 62 -12t42.5 -33.5
t24 -51.5t7.5 -66zM324 353q0 42 -15.5 67t-49.5 25q-26 0 -46 -15.5t-35 -38t-24.5 -48.5t-13.5 -47h178q6 33 6 57zM436 708q-21 -72 -61 -102.5t-92 -30.5q-50 0 -83 31t-33 102h56q0 -39 18.5 -56.5t45.5 -17.5q33 0 56 16.5t37 57.5h56z" />
    <glyph glyph-name="Edotaccent" unicode="&#x116;" horiz-adv-x="416" 
d="M436 632h-206l-40 -229h196l-13 -71h-195l-44 -255h222l-13 -77h-305l123 708h288zM377 851q0 -26 -16.5 -44.5t-41.5 -18.5q-22 0 -34 14.5t-12 33.5q0 24 16 43.5t41 19.5q22 0 34.5 -13.5t12.5 -34.5z" />
    <glyph glyph-name="edotaccent" unicode="&#x117;" horiz-adv-x="431" 
d="M401 355q0 -10 -0.5 -21t-1.5 -25.5t-4 -33.5t-7 -46h-261q-2 -15 -3.5 -29.5t-1.5 -28.5q0 -50 18 -81t58 -31q34 0 57.5 21t40.5 50l58 -37q-28 -48 -67.5 -79t-97.5 -31q-70 0 -110 47.5t-40 135.5q0 64 16 127.5t45.5 113t71.5 80.5t93 31q36 0 62 -12t42.5 -33.5
t24 -51.5t7.5 -66zM324 353q0 42 -15.5 67t-49.5 25q-26 0 -46 -15.5t-35 -38t-24.5 -48.5t-13.5 -47h178q6 33 6 57zM347 658q0 -26 -16.5 -44.5t-41.5 -18.5q-22 0 -34 14.5t-12 33.5q0 24 16 43.5t41 19.5q22 0 34.5 -13.5t12.5 -34.5z" />
    <glyph glyph-name="Eogonek" unicode="&#x118;" horiz-adv-x="416" 
d="M236 -186q-20 -17 -43.5 -26.5t-47.5 -9.5q-37 0 -60 20.5t-16 62.5q4 21 15.5 41t27 37.5t33.5 32.5t35 28h-142l123 708h288l-13 -76h-206l-40 -229h196l-13 -71h-195l-44 -255h222l-13 -77h-109q-45 -38 -68.5 -65.5t-28.5 -55.5q-4 -20 6.5 -32t28.5 -12q28 0 52 21z
" />
    <glyph glyph-name="eogonek" unicode="&#x119;" horiz-adv-x="431" 
d="M231 -186q-20 -17 -43.5 -26.5t-47.5 -9.5q-37 0 -60 20.5t-16 62.5q7 38 34 69.5t58 55.5q-55 11 -86 57t-31 123q0 64 16 127.5t45.5 113t71.5 80.5t93 31q36 0 62 -12t42.5 -33.5t24 -51.5t7.5 -66q0 -10 -0.5 -21t-1.5 -25.5t-4 -33.5t-7 -46h-261q-2 -15 -3.5 -29.5
t-1.5 -28.5q0 -50 18 -81t58 -31q34 0 57.5 21t40.5 50l58 -37q-26 -44 -60 -73t-83 -35q-36 -32 -55.5 -56.5t-23.5 -49.5q-4 -20 6.5 -32t28.5 -12q28 0 52 21zM324 353q0 42 -15.5 67t-49.5 25q-26 0 -46 -15.5t-35 -38t-24.5 -48.5t-13.5 -47h178q6 33 6 57z" />
    <glyph glyph-name="Ecaron" unicode="&#x11a;" horiz-adv-x="416" 
d="M436 632h-206l-40 -229h196l-13 -71h-195l-44 -255h222l-13 -77h-305l123 708h288zM357 763h-80l-80 144h69l53 -101l89 101h78z" />
    <glyph glyph-name="ecaron" unicode="&#x11b;" horiz-adv-x="431" 
d="M401 355q0 -10 -0.5 -21t-1.5 -25.5t-4 -33.5t-7 -46h-261q-2 -15 -3.5 -29.5t-1.5 -28.5q0 -50 18 -81t58 -31q34 0 57.5 21t40.5 50l58 -37q-28 -48 -67.5 -79t-97.5 -31q-70 0 -110 47.5t-40 135.5q0 64 16 127.5t45.5 113t71.5 80.5t93 31q36 0 62 -12t42.5 -33.5
t24 -51.5t7.5 -66zM324 353q0 42 -15.5 67t-49.5 25q-26 0 -46 -15.5t-35 -38t-24.5 -48.5t-13.5 -47h178q6 33 6 57zM324 570h-80l-80 144h69l53 -101l89 101h78z" />
    <glyph glyph-name="Gcircumflex" unicode="&#x11c;" horiz-adv-x="534" 
d="M474 581q-32 65 -103 65q-35 0 -65.5 -18t-55 -48.5t-43.5 -70.5t-32 -84t-19.5 -89.5t-6.5 -86.5q0 -83 30.5 -134.5t94.5 -51.5q29 0 54 8t41 20l39 222h-95l14 75h177l-59 -344q-35 -26 -80.5 -42.5t-104.5 -16.5q-50 0 -87.5 19t-63 53.5t-38.5 82.5t-13 107
q0 84 23.5 169.5t66 153.5t102 111t131.5 43q56 0 96 -21t62 -64zM466 764l-54 101l-88 -101h-77l130 144h80l79 -144h-70z" />
    <glyph glyph-name="gcircumflex" unicode="&#x11d;" horiz-adv-x="472" 
d="M356 1q-9 -51 -25 -95t-42 -76.5t-64 -51t-91 -18.5q-50 0 -92.5 21t-66.5 54l55 57q19 -24 47 -41t65 -17q31 0 54 13t38.5 35.5t25.5 53t16 65.5l15 80h-2q-10 -21 -21.5 -38.5t-26.5 -31t-34.5 -21t-45.5 -7.5q-61 0 -94.5 49t-33.5 130q0 61 14.5 124.5t41.5 115
t66 84t89 32.5q44 0 71.5 -25.5t32.5 -66.5h3l13 75h79zM327 327q0 54 -17 87t-54 33q-34 0 -60 -28t-43.5 -70t-26.5 -91t-9 -90q0 -51 16.5 -82t53.5 -31q33 0 59 27t44 67.5t27.5 88.5t9.5 89zM366 571l-54 101l-88 -101h-77l130 144h80l79 -144h-70z" />
    <glyph glyph-name="Gbreve" unicode="&#x11e;" horiz-adv-x="534" 
d="M474 581q-32 65 -103 65q-35 0 -65.5 -18t-55 -48.5t-43.5 -70.5t-32 -84t-19.5 -89.5t-6.5 -86.5q0 -83 30.5 -134.5t94.5 -51.5q29 0 54 8t41 20l39 222h-95l14 75h177l-59 -344q-35 -26 -80.5 -42.5t-104.5 -16.5q-50 0 -87.5 19t-63 53.5t-38.5 82.5t-13 107
q0 84 23.5 169.5t66 153.5t102 111t131.5 43q56 0 96 -21t62 -64zM540 901q-21 -72 -61 -102.5t-92 -30.5q-50 0 -83 31t-33 102h56q0 -39 18.5 -56.5t45.5 -17.5q33 0 56 16.5t37 57.5h56z" />
    <glyph glyph-name="gbreve" unicode="&#x11f;" horiz-adv-x="472" 
d="M356 1q-9 -51 -25 -95t-42 -76.5t-64 -51t-91 -18.5q-50 0 -92.5 21t-66.5 54l55 57q19 -24 47 -41t65 -17q31 0 54 13t38.5 35.5t25.5 53t16 65.5l15 80h-2q-10 -21 -21.5 -38.5t-26.5 -31t-34.5 -21t-45.5 -7.5q-61 0 -94.5 49t-33.5 130q0 61 14.5 124.5t41.5 115
t66 84t89 32.5q44 0 71.5 -25.5t32.5 -66.5h3l13 75h79zM327 327q0 54 -17 87t-54 33q-34 0 -60 -28t-43.5 -70t-26.5 -91t-9 -90q0 -51 16.5 -82t53.5 -31q33 0 59 27t44 67.5t27.5 88.5t9.5 89zM448 708q-21 -72 -61 -102.5t-92 -30.5q-50 0 -83 31t-33 102h56
q0 -39 18.5 -56.5t45.5 -17.5q33 0 56 16.5t37 57.5h56z" />
    <glyph glyph-name="Gdotaccent" unicode="&#x120;" horiz-adv-x="534" 
d="M474 581q-32 65 -103 65q-35 0 -65.5 -18t-55 -48.5t-43.5 -70.5t-32 -84t-19.5 -89.5t-6.5 -86.5q0 -83 30.5 -134.5t94.5 -51.5q29 0 54 8t41 20l39 222h-95l14 75h177l-59 -344q-35 -26 -80.5 -42.5t-104.5 -16.5q-50 0 -87.5 19t-63 53.5t-38.5 82.5t-13 107
q0 84 23.5 169.5t66 153.5t102 111t131.5 43q56 0 96 -21t62 -64zM454 851q0 -26 -16.5 -44.5t-41.5 -18.5q-22 0 -34 14.5t-12 33.5q0 24 16 43.5t41 19.5q22 0 34.5 -13.5t12.5 -34.5z" />
    <glyph glyph-name="gdotaccent" unicode="&#x121;" horiz-adv-x="472" 
d="M356 1q-9 -51 -25 -95t-42 -76.5t-64 -51t-91 -18.5q-50 0 -92.5 21t-66.5 54l55 57q19 -24 47 -41t65 -17q31 0 54 13t38.5 35.5t25.5 53t16 65.5l15 80h-2q-10 -21 -21.5 -38.5t-26.5 -31t-34.5 -21t-45.5 -7.5q-61 0 -94.5 49t-33.5 130q0 61 14.5 124.5t41.5 115
t66 84t89 32.5q44 0 71.5 -25.5t32.5 -66.5h3l13 75h79zM327 327q0 54 -17 87t-54 33q-34 0 -60 -28t-43.5 -70t-26.5 -91t-9 -90q0 -51 16.5 -82t53.5 -31q33 0 59 27t44 67.5t27.5 88.5t9.5 89zM358 658q0 -26 -16.5 -44.5t-41.5 -18.5q-22 0 -34 14.5t-12 33.5
q0 24 16 43.5t41 19.5q22 0 34.5 -13.5t12.5 -34.5z" />
    <glyph glyph-name="Gcommaaccent" unicode="&#x122;" horiz-adv-x="534" 
d="M474 581q-32 65 -103 65q-35 0 -65.5 -18t-55 -48.5t-43.5 -70.5t-32 -84t-19.5 -89.5t-6.5 -86.5q0 -83 30.5 -134.5t94.5 -51.5q29 0 54 8t41 20l39 222h-95l14 75h177l-59 -344q-35 -26 -80.5 -42.5t-104.5 -16.5q-50 0 -87.5 19t-63 53.5t-38.5 82.5t-13 107
q0 84 23.5 169.5t66 153.5t102 111t131.5 43q56 0 96 -21t62 -64zM185 -230h-65l86 185h74z" />
    <glyph glyph-name="gcommaaccent" unicode="&#x123;" horiz-adv-x="472" 
d="M356 1q-9 -51 -25 -95t-42 -76.5t-64 -51t-91 -18.5q-50 0 -92.5 21t-66.5 54l55 57q19 -24 47 -41t65 -17q31 0 54 13t38.5 35.5t25.5 53t16 65.5l15 80h-2q-10 -21 -21.5 -38.5t-26.5 -31t-34.5 -21t-45.5 -7.5q-61 0 -94.5 49t-33.5 130q0 61 14.5 124.5t41.5 115
t66 84t89 32.5q44 0 71.5 -25.5t32.5 -66.5h3l13 75h79zM327 327q0 54 -17 87t-54 33q-34 0 -60 -28t-43.5 -70t-26.5 -91t-9 -90q0 -51 16.5 -82t53.5 -31q33 0 59 27t44 67.5t27.5 88.5t9.5 89zM346 756h65l-86 -185h-74z" />
    <glyph glyph-name="Hcircumflex" unicode="&#x124;" horiz-adv-x="577" 
d="M461 0h-85l58 329h-253l-57 -329h-86l123 708h86l-53 -303h252l52 303h86zM464 764l-54 101l-88 -101h-77l130 144h80l79 -144h-70z" />
    <glyph glyph-name="hcircumflex" unicode="&#x125;" horiz-adv-x="481" 
d="M432 396q0 -14 -2 -35t-6 -41l-55 -320h-82l55 320l4 28t2 28q0 29 -11.5 49t-44.5 20q-22 0 -42.5 -12t-37 -33t-28.5 -49.5t-18 -62.5l-50 -288h-82l131 756h82l-60 -342h2q19 43 55 73.5t83 30.5q29 0 49 -10.5t32.5 -27.5t18 -39t5.5 -45zM405 803l-54 101l-88 -101
h-77l130 144h80l79 -144h-70z" />
    <glyph glyph-name="Hbar" unicode="&#x126;" horiz-adv-x="577" 
d="M461 0h-85l58 329h-253l-57 -329h-86l123 708h86l-26 -147h251l26 147h86zM446 405l17 103h-251l-18 -103h252z" />
    <glyph glyph-name="hbar" unicode="&#x127;" horiz-adv-x="481" 
d="M216 582l-29 -168h2q19 43 55 73.5t83 30.5q29 0 49 -10.5t32.5 -27.5t18 -39t5.5 -45q0 -14 -2 -35t-6 -41l-55 -320h-82l55 320l4 28t2 28q0 29 -11.5 49t-44.5 20q-22 0 -42.5 -12t-37 -33t-28.5 -49.5t-18 -62.5l-50 -288h-82l101 582h-57l9 52h57l21 122h82
l-22 -122h120l-9 -52h-120z" />
    <glyph glyph-name="Itilde" unicode="&#x128;" horiz-adv-x="240" 
d="M124 0h-86l123 708h86zM368 882q-11 -51 -36.5 -78.5t-58.5 -27.5q-17 0 -30 5t-31 19q-20 15 -29.5 18.5t-21.5 3.5q-28 0 -42 -46h-45q11 49 36.5 77.5t58.5 28.5q18 0 31.5 -5.5t30.5 -18.5q20 -14 30 -18.5t22 -4.5q16 0 25 11t16 36h44z" />
    <glyph glyph-name="itilde" unicode="&#x129;" horiz-adv-x="226" 
d="M114 0h-81l87 501h81zM320 689q-11 -51 -36.5 -78.5t-58.5 -27.5q-17 0 -30 5t-31 19q-20 15 -29.5 18.5t-21.5 3.5q-28 0 -42 -46h-45q11 49 36.5 77.5t58.5 28.5q18 0 31.5 -5.5t30.5 -18.5q20 -14 30 -18.5t22 -4.5q16 0 25 11t16 36h44z" />
    <glyph glyph-name="Imacron" unicode="&#x12a;" horiz-adv-x="240" 
d="M124 0h-86l123 708h86zM87 807l10 57h258l-10 -57h-258z" />
    <glyph glyph-name="imacron" unicode="&#x12b;" horiz-adv-x="226" 
d="M114 0h-81l87 501h81zM42 614l10 57h258l-10 -57h-258z" />
    <glyph glyph-name="Iogonek" unicode="&#x12e;" horiz-adv-x="240" 
d="M126 -186q-20 -17 -43.5 -26.5t-47.5 -9.5q-37 0 -60 20.5t-16 62.5q4 21 15.5 41t27 37.5t33.5 32.5t35 28h-32l123 708h86l-123 -708q-45 -38 -68.5 -65.5t-28.5 -55.5q-4 -20 6.5 -32t28.5 -12q28 0 52 21z" />
    <glyph glyph-name="iogonek" unicode="&#x12f;" horiz-adv-x="226" 
d="M117 -186q-20 -17 -43.5 -26.5t-47.5 -9.5q-37 0 -60 20.5t-16 62.5q4 21 15.5 41t27 37.5t33.5 32.5t35 28h-28l87 501h81l-87 -501h1q-45 -38 -68.5 -65.5t-28.5 -55.5q-4 -20 6.5 -32t28.5 -12q28 0 52 21zM236 658q0 -26 -16.5 -44.5t-41.5 -18.5q-22 0 -34 14.5
t-12 33.5q0 24 16 43.5t41 19.5q22 0 34.5 -13.5t12.5 -34.5z" />
    <glyph glyph-name="Idotaccent" unicode="&#x130;" horiz-adv-x="240" 
d="M124 0h-86l123 708h86zM277 851q0 -26 -16.5 -44.5t-41.5 -18.5q-22 0 -34 14.5t-12 33.5q0 24 16 43.5t41 19.5q22 0 34.5 -13.5t12.5 -34.5z" />
    <glyph glyph-name="dotlessi" unicode="&#x131;" horiz-adv-x="226" 
d="M114 0h-81l87 501h81z" />
    <glyph glyph-name="IJ" unicode="&#x132;" horiz-adv-x="626" 
d="M124 0h-86l123 708h86zM550 195q-9 -51 -23 -90.5t-35.5 -66.5t-52.5 -41t-73 -14q-32 0 -57 9t-43.5 24.5t-30.5 36t-18 43.5l73 31q7 -23 24.5 -44t52.5 -21q25 0 41.5 10t27.5 28.5t17.5 44.5t12.5 59l88 504h86z" />
    <glyph glyph-name="ij" unicode="&#x133;" horiz-adv-x="445" 
d="M114 0h-81l87 501h81zM236 658q0 -26 -16.5 -44.5t-41.5 -18.5q-22 0 -34 14.5t-12 33.5q0 24 16 43.5t41 19.5q22 0 34.5 -13.5t12.5 -34.5zM324 -62q-7 -39 -19 -72t-31 -56.5t-46.5 -36.5t-66.5 -13q-17 0 -39 5l12 78q7 -2 15 -3t14 -1q20 0 33.5 8.5t22.5 23
t14 33.5t9 40l98 557h83zM455 658q0 -26 -16.5 -44.5t-41.5 -18.5q-22 0 -34 14.5t-12 33.5q0 24 16 43.5t41 19.5q22 0 34.5 -13.5t12.5 -34.5z" />
    <glyph glyph-name="Jcircumflex" unicode="&#x134;" horiz-adv-x="389" 
d="M313 195q-9 -51 -23 -90.5t-35.5 -66.5t-52.5 -41t-73 -14q-32 0 -57 9t-43.5 24.5t-30.5 36t-18 43.5l73 31q7 -23 24.5 -44t52.5 -21q25 0 41.5 10t27.5 28.5t17.5 44.5t12.5 59l88 504h86zM443 764l-54 101l-88 -101h-77l130 144h80l79 -144h-70z" />
    <glyph glyph-name="jcircumflex" unicode="&#x135;" horiz-adv-x="227" 
d="M106 -62q-7 -39 -19 -72t-31 -56.5t-46.5 -36.5t-66.5 -13q-17 0 -39 5l12 78q7 -2 15 -3t14 -1q20 0 33.5 8.5t22.5 23t14 33.5t9 40l98 557h83zM247 571l-54 101l-88 -101h-77l130 144h80l79 -144h-70z" />
    <glyph glyph-name="Kcommaaccent" unicode="&#x136;" horiz-adv-x="492" 
d="M266 373l180 -373h-96l-164 357h-2l-62 -357h-84l123 708h84l-55 -316h2l262 316h100zM158 -230h-65l86 185h74z" />
    <glyph glyph-name="kcommaaccent" unicode="&#x137;" horiz-adv-x="419" 
d="M234 264l138 -264h-91l-123 248h-2l-41 -248h-81l131 756h81l-84 -473h2l186 218h99zM132 -230h-65l86 185h74z" />
    <glyph glyph-name="Lacute" unicode="&#x139;" horiz-adv-x="370" 
d="M324 0h-286l123 708h86l-109 -628h200zM242 764h-67l115 144h84z" />
    <glyph glyph-name="lacute" unicode="&#x13a;" horiz-adv-x="226" 
d="M116 0h-82l131 756h82zM236 799h-67l115 144h84z" />
    <glyph glyph-name="Lcommaaccent" unicode="&#x13b;" horiz-adv-x="370" 
d="M324 0h-286l123 708h86l-109 -628h200zM121 -230h-65l86 185h74z" />
    <glyph glyph-name="lcommaaccent" unicode="&#x13c;" horiz-adv-x="226" 
d="M116 0h-82l131 756h82zM16 -230h-65l86 185h74z" />
    <glyph glyph-name="Lcaron" unicode="&#x13d;" horiz-adv-x="370" 
d="M324 0h-286l123 708h86l-109 -628h200zM330 523h-65l86 185h74z" />
    <glyph glyph-name="lcaron" unicode="&#x13e;" horiz-adv-x="226" 
d="M116 0h-82l131 756h82zM303 523h-65l86 185h74z" />
    <glyph glyph-name="Ldot" unicode="&#x13f;" horiz-adv-x="370" 
d="M324 0h-286l123 708h86l-109 -628h200zM373 348q0 -26 -16.5 -44.5t-41.5 -18.5q-22 0 -34 14.5t-12 33.5q0 24 16 43.5t41 19.5q22 0 34.5 -13.5t12.5 -34.5z" />
    <glyph glyph-name="ldot" unicode="&#x140;" horiz-adv-x="320" 
d="M116 0h-82l131 756h82zM341 348q0 -26 -16.5 -44.5t-41.5 -18.5q-22 0 -34 14.5t-12 33.5q0 24 16 43.5t41 19.5q22 0 34.5 -13.5t12.5 -34.5z" />
    <glyph glyph-name="Lslash" unicode="&#x141;" horiz-adv-x="363" 
d="M339 503l-15 -81l-149 -127l-37 -215h200l-14 -80h-286l40 228l-49 -43l14 81l48 42l70 400h86l-58 -332z" />
    <glyph glyph-name="lslash" unicode="&#x142;" horiz-adv-x="230" 
d="M252 510l-13 -76l-56 -49l-67 -385h-82l55 319l-47 -41l14 77l46 39l63 362h82l-51 -296z" />
    <glyph glyph-name="Nacute" unicode="&#x143;" horiz-adv-x="567" 
d="M451 0h-101l-134 557h-3l-96 -557h-79l123 708h103l130 -558h3l98 558h79zM377 764h-67l115 144h84z" />
    <glyph glyph-name="nacute" unicode="&#x144;" 
d="M112 0h-81l65 374q1 8 3.5 26t5.5 38t6 38t4 25h80q-2 -14 -5.5 -39.5t-7.5 -49.5h2q20 45 56 75.5t83 30.5q29 0 49 -10.5t32.5 -27.5t18 -39t5.5 -45q0 -14 -2 -35t-6 -41l-55 -320h-82l55 320l4 28t2 28q0 29 -11.5 49t-44.5 20q-22 0 -42.5 -12t-37 -33t-28.5 -49.5
t-18 -62.5zM295 571h-67l115 144h84z" />
    <glyph glyph-name="Ncommaaccent" unicode="&#x145;" horiz-adv-x="567" 
d="M451 0h-101l-134 557h-3l-96 -557h-79l123 708h103l130 -558h3l98 558h79zM176 -230h-65l86 185h74z" />
    <glyph glyph-name="ncommaaccent" unicode="&#x146;" 
d="M112 0h-81l65 374q1 8 3.5 26t5.5 38t6 38t4 25h80q-2 -14 -5.5 -39.5t-7.5 -49.5h2q20 45 56 75.5t83 30.5q29 0 49 -10.5t32.5 -27.5t18 -39t5.5 -45q0 -14 -2 -35t-6 -41l-55 -320h-82l55 320l4 28t2 28q0 29 -11.5 49t-44.5 20q-22 0 -42.5 -12t-37 -33t-28.5 -49.5
t-18 -62.5zM130 -230h-65l86 185h74z" />
    <glyph glyph-name="Ncaron" unicode="&#x147;" horiz-adv-x="567" 
d="M451 0h-101l-134 557h-3l-96 -557h-79l123 708h103l130 -558h3l98 558h79zM408 763h-80l-80 144h69l53 -101l89 101h78z" />
    <glyph glyph-name="ncaron" unicode="&#x148;" 
d="M112 0h-81l65 374q1 8 3.5 26t5.5 38t6 38t4 25h80q-2 -14 -5.5 -39.5t-7.5 -49.5h2q20 45 56 75.5t83 30.5q29 0 49 -10.5t32.5 -27.5t18 -39t5.5 -45q0 -14 -2 -35t-6 -41l-55 -320h-82l55 320l4 28t2 28q0 29 -11.5 49t-44.5 20q-22 0 -42.5 -12t-37 -33t-28.5 -49.5
t-18 -62.5zM329 570h-80l-80 144h69l53 -101l89 101h78z" />
    <glyph glyph-name="napostrophe" unicode="&#x149;" horiz-adv-x="502" 
d="M137 0h-81l65 374q1 8 3.5 26t5.5 38t6 38t4 25h80q-2 -14 -5.5 -39.5t-7.5 -49.5h2q20 45 56 75.5t83 30.5q29 0 49 -10.5t32.5 -27.5t18 -39t5.5 -45q0 -14 -2 -35t-6 -41l-55 -320h-82l55 320l4 28t2 28q0 29 -11.5 49t-44.5 20q-22 0 -42.5 -12t-37 -33t-28.5 -49.5
t-18 -62.5zM103 523h-65l86 185h74z" />
    <glyph glyph-name="Omacron" unicode="&#x14c;" horiz-adv-x="573" 
d="M561 461q0 -86 -21.5 -171t-61.5 -153.5t-96.5 -111t-125.5 -42.5q-48 0 -84.5 19t-62 53t-38.5 81.5t-13 105.5q0 85 21 171t60 155t95.5 112.5t128.5 43.5q49 0 86 -19.5t62 -54t37.5 -83t12.5 -106.5zM468 448q0 36 -4 72t-16 64t-33.5 45.5t-56.5 17.5q-33 0 -62 -19
t-52 -50.5t-41 -73.5t-30 -87.5t-18 -92t-6 -87.5q0 -36 6 -68t19.5 -55.5t35 -37.5t52.5 -14q48 0 86 36.5t64.5 93t41 125t14.5 131.5zM261 807l10 57h258l-10 -57h-258z" />
    <glyph glyph-name="omacron" unicode="&#x14d;" horiz-adv-x="449" 
d="M416 333q0 -64 -16 -127t-46 -112.5t-72.5 -80t-94.5 -30.5q-69 0 -108.5 50.5t-39.5 135.5q0 65 16 127.5t46 112t72.5 79.5t94.5 30q69 0 108.5 -50t39.5 -135zM332 330q0 53 -17 85t-54 32q-33 0 -58.5 -28t-43 -70t-27 -90.5t-9.5 -89.5q0 -51 16.5 -82.5t53.5 -31.5
q33 0 59 27.5t44 68.5t27 89t9 90zM162 614l10 57h258l-10 -57h-258z" />
    <glyph glyph-name="Obreve" unicode="&#x14e;" horiz-adv-x="573" 
d="M561 461q0 -86 -21.5 -171t-61.5 -153.5t-96.5 -111t-125.5 -42.5q-48 0 -84.5 19t-62 53t-38.5 81.5t-13 105.5q0 85 21 171t60 155t95.5 112.5t128.5 43.5q49 0 86 -19.5t62 -54t37.5 -83t12.5 -106.5zM468 448q0 36 -4 72t-16 64t-33.5 45.5t-56.5 17.5q-33 0 -62 -19
t-52 -50.5t-41 -73.5t-30 -87.5t-18 -92t-6 -87.5q0 -36 6 -68t19.5 -55.5t35 -37.5t52.5 -14q48 0 86 36.5t64.5 93t41 125t14.5 131.5zM533 901q-21 -72 -61 -102.5t-92 -30.5q-50 0 -83 31t-33 102h56q0 -39 18.5 -56.5t45.5 -17.5q33 0 56 16.5t37 57.5h56z" />
    <glyph glyph-name="obreve" unicode="&#x14f;" horiz-adv-x="449" 
d="M416 333q0 -64 -16 -127t-46 -112.5t-72.5 -80t-94.5 -30.5q-69 0 -108.5 50.5t-39.5 135.5q0 65 16 127.5t46 112t72.5 79.5t94.5 30q69 0 108.5 -50t39.5 -135zM332 330q0 53 -17 85t-54 32q-33 0 -58.5 -28t-43 -70t-27 -90.5t-9.5 -89.5q0 -51 16.5 -82.5t53.5 -31.5
q33 0 59 27.5t44 68.5t27 89t9 90zM427 708q-21 -72 -61 -102.5t-92 -30.5q-50 0 -83 31t-33 102h56q0 -39 18.5 -56.5t45.5 -17.5q33 0 56 16.5t37 57.5h56z" />
    <glyph glyph-name="Ohungarumlaut" unicode="&#x150;" horiz-adv-x="573" 
d="M561 461q0 -86 -21.5 -171t-61.5 -153.5t-96.5 -111t-125.5 -42.5q-48 0 -84.5 19t-62 53t-38.5 81.5t-13 105.5q0 85 21 171t60 155t95.5 112.5t128.5 43.5q49 0 86 -19.5t62 -54t37.5 -83t12.5 -106.5zM468 448q0 36 -4 72t-16 64t-33.5 45.5t-56.5 17.5q-33 0 -62 -19
t-52 -50.5t-41 -73.5t-30 -87.5t-18 -92t-6 -87.5q0 -36 6 -68t19.5 -55.5t35 -37.5t52.5 -14q48 0 86 36.5t64.5 93t41 125t14.5 131.5zM337 764h-65l115 144h83zM475 764h-65l115 144h82z" />
    <glyph glyph-name="ohungarumlaut" unicode="&#x151;" horiz-adv-x="449" 
d="M416 333q0 -64 -16 -127t-46 -112.5t-72.5 -80t-94.5 -30.5q-69 0 -108.5 50.5t-39.5 135.5q0 65 16 127.5t46 112t72.5 79.5t94.5 30q69 0 108.5 -50t39.5 -135zM332 330q0 53 -17 85t-54 32q-33 0 -58.5 -28t-43 -70t-27 -90.5t-9.5 -89.5q0 -51 16.5 -82.5t53.5 -31.5
q33 0 59 27.5t44 68.5t27 89t9 90zM234 571h-65l115 144h83zM372 571h-65l115 144h82z" />
    <glyph glyph-name="OE" unicode="&#x152;" horiz-adv-x="673" 
d="M693 632h-195l-40 -229h185l-13 -71h-185l-43 -255h210l-13 -77h-329q-103 0 -157.5 66.5t-54.5 186.5q0 85 23 166.5t66 145.5t105 103.5t141 39.5h313zM381 633q-49 0 -92 -31.5t-75 -84.5t-50.5 -121.5t-18.5 -142.5q0 -94 38.5 -136t101.5 -42h35l96 558h-35z" />
    <glyph glyph-name="oe" unicode="&#x153;" horiz-adv-x="709" 
d="M395 425q26 44 65 69t84 25q36 0 62 -12t42 -34t23.5 -52t7.5 -66q0 -10 -0.5 -21t-1.5 -25.5t-4 -33.5t-7 -46h-263q-2 -15 -3.5 -29.5t-1.5 -28.5q0 -50 18 -81t58 -31q34 0 57.5 21t40.5 50l58 -37q-28 -48 -67.5 -79t-97.5 -31q-52 0 -84 24t-46 68
q-24 -42 -61.5 -67t-86.5 -25q-69 0 -108.5 50.5t-39.5 135.5q0 65 16 127.5t46 112t72.5 79.5t94.5 30q51 0 83.5 -23t43.5 -70zM332 330q0 53 -17 85t-54 32q-33 0 -58.5 -28t-43 -70t-27 -90.5t-9.5 -89.5q0 -51 16.5 -82.5t53.5 -31.5q33 0 59 27.5t44 68.5t27 89t9 90z
M600 353q0 42 -15.5 67t-49.5 25q-26 0 -46 -15.5t-35 -38t-24.5 -48.5t-13.5 -47h178q6 33 6 57z" />
    <glyph glyph-name="Racute" unicode="&#x154;" horiz-adv-x="487" 
d="M497 547q0 -43 -11.5 -79.5t-32.5 -64.5t-49.5 -47t-62.5 -27l94 -329h-90l-84 318h-84l-55 -318h-84l123 708h163q83 0 128 -40t45 -121zM414 536q0 53 -28.5 76t-72.5 23h-81l-43 -250h85q30 0 55.5 10.5t44.5 30.5t29.5 47.5t10.5 62.5zM334 764h-67l115 144h84z" />
    <glyph glyph-name="racute" unicode="&#x155;" horiz-adv-x="276" 
d="M304 429q-4 1 -8 1.5t-9 0.5q-24 0 -45 -15.5t-38 -40t-29 -56.5t-18 -65l-44 -254h-82l65 374q1 8 4 26t6 38t5.5 38t3.5 25h79q-1 -7 -3 -21.5t-4.5 -30.5t-5.5 -31t-4 -23h3q23 61 58 90t73 29q8 0 11 -1zM212 571h-67l115 144h84z" />
    <glyph glyph-name="Rcommaaccent" unicode="&#x156;" horiz-adv-x="487" 
d="M497 547q0 -43 -11.5 -79.5t-32.5 -64.5t-49.5 -47t-62.5 -27l94 -329h-90l-84 318h-84l-55 -318h-84l123 708h163q83 0 128 -40t45 -121zM414 536q0 53 -28.5 76t-72.5 23h-81l-43 -250h85q30 0 55.5 10.5t44.5 30.5t29.5 47.5t10.5 62.5zM159 -230h-65l86 185h74z" />
    <glyph glyph-name="rcommaaccent" unicode="&#x157;" horiz-adv-x="276" 
d="M304 429q-4 1 -8 1.5t-9 0.5q-24 0 -45 -15.5t-38 -40t-29 -56.5t-18 -65l-44 -254h-82l65 374q1 8 4 26t6 38t5.5 38t3.5 25h79q-1 -7 -3 -21.5t-4.5 -30.5t-5.5 -31t-4 -23h3q23 61 58 90t73 29q8 0 11 -1zM13 -230h-65l86 185h74z" />
    <glyph glyph-name="Rcaron" unicode="&#x158;" horiz-adv-x="487" 
d="M497 547q0 -43 -11.5 -79.5t-32.5 -64.5t-49.5 -47t-62.5 -27l94 -329h-90l-84 318h-84l-55 -318h-84l123 708h163q83 0 128 -40t45 -121zM414 536q0 53 -28.5 76t-72.5 23h-81l-43 -250h85q30 0 55.5 10.5t44.5 30.5t29.5 47.5t10.5 62.5zM369 763h-80l-80 144h69
l53 -101l89 101h78z" />
    <glyph glyph-name="rcaron" unicode="&#x159;" horiz-adv-x="276" 
d="M304 429q-4 1 -8 1.5t-9 0.5q-24 0 -45 -15.5t-38 -40t-29 -56.5t-18 -65l-44 -254h-82l65 374q1 8 4 26t6 38t5.5 38t3.5 25h79q-1 -7 -3 -21.5t-4.5 -30.5t-5.5 -31t-4 -23h3q23 61 58 90t73 29q8 0 11 -1zM266 570h-80l-80 144h69l53 -101l89 101h78z" />
    <glyph glyph-name="Sacute" unicode="&#x15a;" horiz-adv-x="434" 
d="M405 600q-37 47 -99 47q-21 0 -43 -8.5t-39.5 -25t-29 -42.5t-11.5 -60q0 -43 22 -69.5t59 -49.5q24 -15 46 -32t39.5 -39t28 -50t10.5 -63q0 -54 -16.5 -95.5t-45.5 -70.5t-68.5 -44t-84.5 -15q-54 0 -100.5 22t-72.5 57l58 62q20 -29 50 -45.5t65 -16.5q25 0 48 8.5
t41 24.5t28.5 40t10.5 56q0 44 -22 74.5t-68 58.5q-22 13 -42.5 29.5t-36.5 38t-25.5 49t-9.5 63.5q0 51 17 92t46 69.5t67.5 44t82.5 15.5q50 0 89.5 -16.5t63.5 -47.5zM317 764h-67l115 144h84z" />
    <glyph glyph-name="sacute" unicode="&#x15b;" horiz-adv-x="347" 
d="M303 418q-26 35 -80 35q-32 0 -57 -22.5t-25 -61.5q0 -33 16 -49t48 -33q41 -23 68 -53.5t27 -81.5q0 -43 -14.5 -75t-38.5 -53t-55.5 -31t-66.5 -10q-44 0 -80.5 18t-56.5 45l54 53q14 -18 35.5 -33t55.5 -15q36 0 61.5 23t25.5 65q0 35 -22 57t-52 37q-35 18 -59 48
t-24 78q0 37 13.5 66.5t36.5 50t54 31.5t66 11q42 0 70.5 -12.5t45.5 -31.5zM242 571h-67l115 144h84z" />
    <glyph glyph-name="Scircumflex" unicode="&#x15c;" horiz-adv-x="434" 
d="M405 600q-37 47 -99 47q-21 0 -43 -8.5t-39.5 -25t-29 -42.5t-11.5 -60q0 -43 22 -69.5t59 -49.5q24 -15 46 -32t39.5 -39t28 -50t10.5 -63q0 -54 -16.5 -95.5t-45.5 -70.5t-68.5 -44t-84.5 -15q-54 0 -100.5 22t-72.5 57l58 62q20 -29 50 -45.5t65 -16.5q25 0 48 8.5
t41 24.5t28.5 40t10.5 56q0 44 -22 74.5t-68 58.5q-22 13 -42.5 29.5t-36.5 38t-25.5 49t-9.5 63.5q0 51 17 92t46 69.5t67.5 44t82.5 15.5q50 0 89.5 -16.5t63.5 -47.5zM402 764l-54 101l-88 -101h-77l130 144h80l79 -144h-70z" />
    <glyph glyph-name="scircumflex" unicode="&#x15d;" horiz-adv-x="347" 
d="M303 418q-26 35 -80 35q-32 0 -57 -22.5t-25 -61.5q0 -33 16 -49t48 -33q41 -23 68 -53.5t27 -81.5q0 -43 -14.5 -75t-38.5 -53t-55.5 -31t-66.5 -10q-44 0 -80.5 18t-56.5 45l54 53q14 -18 35.5 -33t55.5 -15q36 0 61.5 23t25.5 65q0 35 -22 57t-52 37q-35 18 -59 48
t-24 78q0 37 13.5 66.5t36.5 50t54 31.5t66 11q42 0 70.5 -12.5t45.5 -31.5zM323 571l-54 101l-88 -101h-77l130 144h80l79 -144h-70z" />
    <glyph glyph-name="Scedilla" unicode="&#x15e;" horiz-adv-x="434" 
d="M405 600q-37 47 -99 47q-21 0 -43 -8.5t-39.5 -25t-29 -42.5t-11.5 -60q0 -43 22 -69.5t59 -49.5q24 -15 46 -32t39.5 -39t28 -50t10.5 -63q0 -51 -14.5 -91t-40.5 -68.5t-61.5 -45t-77.5 -19.5l-43 -56q7 2 14 2.5t17 0.5q13 0 26.5 -4t23 -12.5t14 -22.5t1.5 -33
q-5 -26 -18.5 -43t-32 -27.5t-39.5 -14.5t-40 -4q-20 0 -44 4.5t-43 14.5l24 41q14 -8 31.5 -11t34.5 -3q7 0 17 2t19.5 7t17 12.5t9.5 19.5q3 19 -9 28t-32 9q-21 0 -42 -8l-16 17l63 82q-47 5 -85.5 25.5t-61.5 51.5l58 62q20 -29 50 -45.5t65 -16.5q25 0 48 8.5t41 24.5
t28.5 40t10.5 56q0 44 -22 74.5t-68 58.5q-22 13 -42.5 29.5t-36.5 38t-25.5 49t-9.5 63.5q0 51 17 92t46 69.5t67.5 44t82.5 15.5q50 0 89.5 -16.5t63.5 -47.5z" />
    <glyph glyph-name="scedilla" unicode="&#x15f;" horiz-adv-x="347" 
d="M303 418q-26 35 -80 35q-32 0 -57 -22.5t-25 -61.5q0 -33 16 -49t48 -33q41 -23 68 -53.5t27 -81.5q0 -39 -12 -69t-32.5 -50.5t-47.5 -32.5t-58 -15l-44 -57q7 2 14 2.5t17 0.5q13 0 26.5 -4t23 -12.5t14 -22.5t1.5 -33q-5 -26 -18.5 -43t-32 -27.5t-39.5 -14.5t-40 -4
q-20 0 -44 4.5t-43 14.5l24 41q14 -8 31.5 -11t34.5 -3q7 0 17 2t19.5 7t17 12.5t9.5 19.5q3 19 -9 28t-32 9q-21 0 -42 -8l-16 17l63 82q-37 5 -67 21.5t-47 39.5l54 53q14 -18 35.5 -33t55.5 -15q36 0 61.5 23t25.5 65q0 35 -22 57t-52 37q-35 18 -59 48t-24 78
q0 37 13.5 66.5t36.5 50t54 31.5t66 11q42 0 70.5 -12.5t45.5 -31.5z" />
    <glyph glyph-name="Scaron" unicode="&#x160;" horiz-adv-x="434" 
d="M405 600q-37 47 -99 47q-21 0 -43 -8.5t-39.5 -25t-29 -42.5t-11.5 -60q0 -43 22 -69.5t59 -49.5q24 -15 46 -32t39.5 -39t28 -50t10.5 -63q0 -54 -16.5 -95.5t-45.5 -70.5t-68.5 -44t-84.5 -15q-54 0 -100.5 22t-72.5 57l58 62q20 -29 50 -45.5t65 -16.5q25 0 48 8.5
t41 24.5t28.5 40t10.5 56q0 44 -22 74.5t-68 58.5q-22 13 -42.5 29.5t-36.5 38t-25.5 49t-9.5 63.5q0 51 17 92t46 69.5t67.5 44t82.5 15.5q50 0 89.5 -16.5t63.5 -47.5zM358 763h-80l-80 144h69l53 -101l89 101h78z" />
    <glyph glyph-name="scaron" unicode="&#x161;" horiz-adv-x="347" 
d="M303 418q-26 35 -80 35q-32 0 -57 -22.5t-25 -61.5q0 -33 16 -49t48 -33q41 -23 68 -53.5t27 -81.5q0 -43 -14.5 -75t-38.5 -53t-55.5 -31t-66.5 -10q-44 0 -80.5 18t-56.5 45l54 53q14 -18 35.5 -33t55.5 -15q36 0 61.5 23t25.5 65q0 35 -22 57t-52 37q-35 18 -59 48
t-24 78q0 37 13.5 66.5t36.5 50t54 31.5t66 11q42 0 70.5 -12.5t45.5 -31.5zM280 570h-80l-80 144h69l53 -101l89 101h78z" />
    <glyph glyph-name="Tcommaaccent" unicode="&#x162;" horiz-adv-x="349" 
d="M421 634h-135l-111 -634h-85l111 634h-136l13 74h356zM72 -230h-65l86 185h74z" />
    <glyph glyph-name="tcommaaccent" unicode="&#x163;" horiz-adv-x="258" 
d="M273 435h-84l-50 -294q-2 -10 -3 -20t-1 -18q0 -25 10 -34t30 -9q9 0 19.5 2.5t18.5 5.5l-8 -65q-13 -5 -28 -8t-29 -3q-49 0 -72 25t-23 67q0 18 4 41l54 310h-69l11 66h67l23 134h79l-22 -134h85zM53 -230h-65l86 185h74z" />
    <glyph glyph-name="Tcaron" unicode="&#x164;" horiz-adv-x="349" 
d="M421 634h-135l-111 -634h-85l111 634h-136l13 74h356zM304 763h-80l-80 144h69l53 -101l89 101h78z" />
    <glyph glyph-name="tcaron" unicode="&#x165;" horiz-adv-x="258" 
d="M273 435h-84l-50 -294q-2 -10 -3 -20t-1 -18q0 -25 10 -34t30 -9q9 0 19.5 2.5t18.5 5.5l-8 -65q-13 -5 -28 -8t-29 -3q-49 0 -72 25t-23 67q0 18 4 41l54 310h-69l11 66h67l23 134h79l-22 -134h85zM320 546h-65l86 185h74z" />
    <glyph glyph-name="Tbar" unicode="&#x166;" horiz-adv-x="349" 
d="M257 468l-82 -468h-85l82 468h-73l10 57h73l19 109h-136l13 74h356l-13 -74h-135l-19 -109h65l-10 -57h-65z" />
    <glyph glyph-name="tbar" unicode="&#x167;" horiz-adv-x="258" 
d="M161 273l-22 -132q-2 -10 -3 -20t-1 -18q0 -25 10 -34t30 -9q9 0 19.5 2.5t18.5 5.5l-8 -65q-13 -5 -28 -8t-29 -3q-49 0 -72 25t-23 67q0 18 4 41l26 148h-44l10 54h43l19 108h-69l11 66h67l23 134h79l-22 -134h85l-12 -66h-84l-19 -108h64l-10 -54h-63z" />
    <glyph glyph-name="Utilde" unicode="&#x168;" horiz-adv-x="551" 
d="M488 244q-9 -54 -26.5 -101.5t-46.5 -83t-71 -56t-100 -20.5q-47 0 -81.5 14.5t-56.5 39t-32.5 58.5t-10.5 73q0 35 7 76l81 464h86l-80 -455q-3 -18 -5 -36.5t-2 -35.5q0 -24 4.5 -45.5t16 -38t30.5 -26t48 -9.5q38 0 64.5 16t44.5 43t28.5 61.5t16.5 70.5l80 455h86z
M524 882q-11 -51 -36.5 -78.5t-58.5 -27.5q-17 0 -30 5t-31 19q-20 15 -29.5 18.5t-21.5 3.5q-28 0 -42 -46h-45q11 49 36.5 77.5t58.5 28.5q18 0 31.5 -5.5t30.5 -18.5q20 -14 30 -18.5t22 -4.5q16 0 25 11t16 36h44z" />
    <glyph glyph-name="utilde" unicode="&#x169;" 
d="M367 501h81l-65 -374q-1 -8 -4 -26t-6 -38t-5.5 -38t-3.5 -25h-80q2 14 5.5 39.5t7.5 49.5h-2q-20 -45 -56 -75.5t-83 -30.5q-29 0 -49 10.5t-32.5 27.5t-18 39t-5.5 45q0 14 2 35t6 41l55 320h82l-55 -320l-4 -28t-2 -28q0 -29 11.5 -49t44.5 -20q22 0 42.5 12t37 33
t28.5 49.5t18 62.5zM451 689q-11 -51 -36.5 -78.5t-58.5 -27.5q-17 0 -30 5t-31 19q-20 15 -29.5 18.5t-21.5 3.5q-28 0 -42 -46h-45q11 49 36.5 77.5t58.5 28.5q18 0 31.5 -5.5t30.5 -18.5q20 -14 30 -18.5t22 -4.5q16 0 25 11t16 36h44z" />
    <glyph glyph-name="Umacron" unicode="&#x16a;" horiz-adv-x="551" 
d="M488 244q-9 -54 -26.5 -101.5t-46.5 -83t-71 -56t-100 -20.5q-47 0 -81.5 14.5t-56.5 39t-32.5 58.5t-10.5 73q0 35 7 76l81 464h86l-80 -455q-3 -18 -5 -36.5t-2 -35.5q0 -24 4.5 -45.5t16 -38t30.5 -26t48 -9.5q38 0 64.5 16t44.5 43t28.5 61.5t16.5 70.5l80 455h86z
M247 807l10 57h258l-10 -57h-258z" />
    <glyph glyph-name="umacron" unicode="&#x16b;" 
d="M367 501h81l-65 -374q-1 -8 -4 -26t-6 -38t-5.5 -38t-3.5 -25h-80q2 14 5.5 39.5t7.5 49.5h-2q-20 -45 -56 -75.5t-83 -30.5q-29 0 -49 10.5t-32.5 27.5t-18 39t-5.5 45q0 14 2 35t6 41l55 320h82l-55 -320l-4 -28t-2 -28q0 -29 11.5 -49t44.5 -20q22 0 42.5 12t37 33
t28.5 49.5t18 62.5zM170 614l10 57h258l-10 -57h-258z" />
    <glyph glyph-name="Ubreve" unicode="&#x16c;" horiz-adv-x="551" 
d="M488 244q-9 -54 -26.5 -101.5t-46.5 -83t-71 -56t-100 -20.5q-47 0 -81.5 14.5t-56.5 39t-32.5 58.5t-10.5 73q0 35 7 76l81 464h86l-80 -455q-3 -18 -5 -36.5t-2 -35.5q0 -24 4.5 -45.5t16 -38t30.5 -26t48 -9.5q38 0 64.5 16t44.5 43t28.5 61.5t16.5 70.5l80 455h86z
M519 901q-21 -72 -61 -102.5t-92 -30.5q-50 0 -83 31t-33 102h56q0 -39 18.5 -56.5t45.5 -17.5q33 0 56 16.5t37 57.5h56z" />
    <glyph glyph-name="ubreve" unicode="&#x16d;" 
d="M367 501h81l-65 -374q-1 -8 -4 -26t-6 -38t-5.5 -38t-3.5 -25h-80q2 14 5.5 39.5t7.5 49.5h-2q-20 -45 -56 -75.5t-83 -30.5q-29 0 -49 10.5t-32.5 27.5t-18 39t-5.5 45q0 14 2 35t6 41l55 320h82l-55 -320l-4 -28t-2 -28q0 -29 11.5 -49t44.5 -20q22 0 42.5 12t37 33
t28.5 49.5t18 62.5zM442 708q-21 -72 -61 -102.5t-92 -30.5q-50 0 -83 31t-33 102h56q0 -39 18.5 -56.5t45.5 -17.5q33 0 56 16.5t37 57.5h56z" />
    <glyph glyph-name="Uring" unicode="&#x16e;" horiz-adv-x="551" 
d="M488 244q-9 -54 -26.5 -101.5t-46.5 -83t-71 -56t-100 -20.5q-47 0 -81.5 14.5t-56.5 39t-32.5 58.5t-10.5 73q0 35 7 76l81 464h86l-80 -455q-3 -18 -5 -36.5t-2 -35.5q0 -24 4.5 -45.5t16 -38t30.5 -26t48 -9.5q38 0 64.5 16t44.5 43t28.5 61.5t16.5 70.5l80 455h86z
M475 867q0 -24 -8 -45t-22.5 -37.5t-34 -26t-41.5 -9.5q-41 0 -61.5 23.5t-20.5 60.5q0 25 7.5 47t21 38.5t32.5 26t41 9.5q43 0 64.5 -25.5t21.5 -61.5zM436 864q0 21 -11.5 37.5t-36.5 16.5q-30 0 -46.5 -25.5t-16.5 -56.5q0 -21 11.5 -36t35.5 -15q14 0 26 7t20.5 18
t13 25t4.5 29z" />
    <glyph glyph-name="uring" unicode="&#x16f;" 
d="M367 501h81l-65 -374q-1 -8 -4 -26t-6 -38t-5.5 -38t-3.5 -25h-80q2 14 5.5 39.5t7.5 49.5h-2q-20 -45 -56 -75.5t-83 -30.5q-29 0 -49 10.5t-32.5 27.5t-18 39t-5.5 45q0 14 2 35t6 41l55 320h82l-55 -320l-4 -28t-2 -28q0 -29 11.5 -49t44.5 -20q22 0 42.5 12t37 33
t28.5 49.5t18 62.5zM401 674q0 -24 -8 -45t-22.5 -37.5t-34 -26t-41.5 -9.5q-41 0 -61.5 23.5t-20.5 60.5q0 25 7.5 47t21 38.5t32.5 26t41 9.5q43 0 64.5 -25.5t21.5 -61.5zM362 671q0 21 -11.5 37.5t-36.5 16.5q-30 0 -46.5 -25.5t-16.5 -56.5q0 -21 11.5 -36t35.5 -15
q14 0 26 7t20.5 18t13 25t4.5 29z" />
    <glyph glyph-name="Uhungarumlaut" unicode="&#x170;" horiz-adv-x="551" 
d="M488 244q-9 -54 -26.5 -101.5t-46.5 -83t-71 -56t-100 -20.5q-47 0 -81.5 14.5t-56.5 39t-32.5 58.5t-10.5 73q0 35 7 76l81 464h86l-80 -455q-3 -18 -5 -36.5t-2 -35.5q0 -24 4.5 -45.5t16 -38t30.5 -26t48 -9.5q38 0 64.5 16t44.5 43t28.5 61.5t16.5 70.5l80 455h86z
M323 764h-65l115 144h83zM461 764h-65l115 144h82z" />
    <glyph glyph-name="uhungarumlaut" unicode="&#x171;" 
d="M367 501h81l-65 -374q-1 -8 -4 -26t-6 -38t-5.5 -38t-3.5 -25h-80q2 14 5.5 39.5t7.5 49.5h-2q-20 -45 -56 -75.5t-83 -30.5q-29 0 -49 10.5t-32.5 27.5t-18 39t-5.5 45q0 14 2 35t6 41l55 320h82l-55 -320l-4 -28t-2 -28q0 -29 11.5 -49t44.5 -20q22 0 42.5 12t37 33
t28.5 49.5t18 62.5zM254 571h-65l115 144h83zM392 571h-65l115 144h82z" />
    <glyph glyph-name="Uogonek" unicode="&#x172;" horiz-adv-x="551" 
d="M291 -186q-20 -17 -43.5 -26.5t-47.5 -9.5q-37 0 -60 20.5t-16 62.5q7 37 33.5 68t57.5 56q-40 4 -68.5 19.5t-47 40t-27.5 56t-9 67.5q0 35 7 76l81 464h86l-80 -455q-3 -18 -5 -36.5t-2 -35.5q0 -24 4.5 -45.5t16 -38t30.5 -26t48 -9.5q38 0 64.5 16t44.5 43t28.5 61.5
t16.5 70.5l80 455h86l-81 -464q-9 -51 -25 -96t-41.5 -79.5t-62.5 -56.5t-88 -27q-36 -32 -55.5 -56.5t-23.5 -49.5q-4 -20 6.5 -32t28.5 -12q28 0 52 21z" />
    <glyph glyph-name="uogonek" unicode="&#x173;" 
d="M367 -186q-20 -17 -43.5 -26.5t-47.5 -9.5q-37 0 -60 20.5t-16 62.5q4 21 15.5 41t27 37.5t33.5 32.5t35 28h-27q2 14 5.5 39.5t7.5 49.5h-2q-20 -45 -56 -75.5t-83 -30.5q-29 0 -49 10.5t-32.5 27.5t-18 39t-5.5 45q0 14 2 35t6 41l55 320h82l-55 -320l-4 -28t-2 -28
q0 -29 11.5 -49t44.5 -20q22 0 42.5 12t37 33t28.5 49.5t18 62.5l50 288h81l-65 -374q-1 -8 -4 -26t-6 -38t-5.5 -38t-3.5 -25h1q-45 -38 -68.5 -65.5t-28.5 -55.5q-4 -20 6.5 -32t28.5 -12q28 0 52 21z" />
    <glyph glyph-name="Wcircumflex" unicode="&#x174;" horiz-adv-x="738" 
d="M550 0h-111l-7 580h-2l-209 -580h-110l-14 708h88l3 -596h3l214 596h101l10 -596h2l208 596h84zM546 764l-54 101l-88 -101h-77l130 144h80l79 -144h-70z" />
    <glyph glyph-name="wcircumflex" unicode="&#x175;" horiz-adv-x="594" 
d="M428 0h-94l-12 385l-147 -385h-91l-16 501h82v-407h2l154 407h76l13 -407h1l143 407h82zM434 571l-54 101l-88 -101h-77l130 144h80l79 -144h-70z" />
    <glyph glyph-name="Ycircumflex" unicode="&#x176;" horiz-adv-x="425" 
d="M257 285l-49 -285h-85l49 285l-102 423h91l66 -335h2l185 335h95zM381 764l-54 101l-88 -101h-77l130 144h80l79 -144h-70z" />
    <glyph glyph-name="ycircumflex" unicode="&#x177;" horiz-adv-x="390" 
d="M165 -94q-15 -34 -30 -61t-34 -46t-42 -29t-53 -10q-26 0 -47 8l16 73q12 -6 31 -6q29 0 46.5 18t31.5 51l34 81l-58 516h85l30 -406h2l162 406h84zM331 571l-54 101l-88 -101h-77l130 144h80l79 -144h-70z" />
    <glyph glyph-name="Ydieresis" unicode="&#x178;" horiz-adv-x="425" 
d="M257 285l-49 -285h-85l49 285l-102 423h91l66 -335h2l185 335h95zM278 850q0 -24 -15 -41t-38 -17q-20 0 -31.5 14t-11.5 31q0 22 15 39.5t38 17.5q20 0 31.5 -12t11.5 -32zM432 850q0 -24 -15 -41t-38 -17q-20 0 -31.5 14t-11.5 31q0 22 15 39.5t38 17.5q20 0 31.5 -12
t11.5 -32z" />
    <glyph glyph-name="Zacute" unicode="&#x179;" horiz-adv-x="405" 
d="M442 635l-346 -557h252l-13 -78h-349l12 73l348 559h-236l13 76h331zM293 764h-67l115 144h84z" />
    <glyph glyph-name="zacute" unicode="&#x17a;" horiz-adv-x="341" 
d="M345 433l-265 -363h204l-13 -70h-291l13 70l263 361h-184l12 70h273zM238 571h-67l115 144h84z" />
    <glyph glyph-name="Zdotaccent" unicode="&#x17b;" horiz-adv-x="405" 
d="M442 635l-346 -557h252l-13 -78h-349l12 73l348 559h-236l13 76h331zM357 851q0 -26 -16.5 -44.5t-41.5 -18.5q-22 0 -34 14.5t-12 33.5q0 24 16 43.5t41 19.5q22 0 34.5 -13.5t12.5 -34.5z" />
    <glyph glyph-name="zdotaccent" unicode="&#x17c;" horiz-adv-x="341" 
d="M345 433l-265 -363h204l-13 -70h-291l13 70l263 361h-184l12 70h273zM289 658q0 -26 -16.5 -44.5t-41.5 -18.5q-22 0 -34 14.5t-12 33.5q0 24 16 43.5t41 19.5q22 0 34.5 -13.5t12.5 -34.5z" />
    <glyph glyph-name="Zcaron" unicode="&#x17d;" horiz-adv-x="405" 
d="M442 635l-346 -557h252l-13 -78h-349l12 73l348 559h-236l13 76h331zM336 763h-80l-80 144h69l53 -101l89 101h78z" />
    <glyph glyph-name="zcaron" unicode="&#x17e;" horiz-adv-x="341" 
d="M345 433l-265 -363h204l-13 -70h-291l13 70l263 361h-184l12 70h273zM269 570h-80l-80 144h69l53 -101l89 101h78z" />
    <glyph glyph-name="florin" unicode="&#x192;" horiz-adv-x="476" 
d="M493 631q-19 16 -46 16q-38 0 -58.5 -27t-34.5 -67l-45 -130h105l-12 -64h-115l-121 -355q-22 -65 -58 -105.5t-97 -40.5q-17 0 -33.5 2.5t-27.5 8.5l24 72q13 -8 29 -8q38 0 56 29.5t34 77.5l108 319h-95l12 64h103l41 122q12 36 26.5 68.5t35.5 56.5t50 38.5t69 14.5
q27 0 48.5 -6.5t33.5 -16.5z" />
    <glyph glyph-name="Scommaaccent" unicode="&#x218;" horiz-adv-x="434" 
d="M405 600q-37 47 -99 47q-21 0 -43 -8.5t-39.5 -25t-29 -42.5t-11.5 -60q0 -43 22 -69.5t59 -49.5q24 -15 46 -32t39.5 -39t28 -50t10.5 -63q0 -54 -16.5 -95.5t-45.5 -70.5t-68.5 -44t-84.5 -15q-54 0 -100.5 22t-72.5 57l58 62q20 -29 50 -45.5t65 -16.5q25 0 48 8.5
t41 24.5t28.5 40t10.5 56q0 44 -22 74.5t-68 58.5q-22 13 -42.5 29.5t-36.5 38t-25.5 49t-9.5 63.5q0 51 17 92t46 69.5t67.5 44t82.5 15.5q50 0 89.5 -16.5t63.5 -47.5zM98 -230h-65l86 185h74z" />
    <glyph glyph-name="scommaaccent" unicode="&#x219;" horiz-adv-x="347" 
d="M303 418q-26 35 -80 35q-32 0 -57 -22.5t-25 -61.5q0 -33 16 -49t48 -33q41 -23 68 -53.5t27 -81.5q0 -43 -14.5 -75t-38.5 -53t-55.5 -31t-66.5 -10q-44 0 -80.5 18t-56.5 45l54 53q14 -18 35.5 -33t55.5 -15q36 0 61.5 23t25.5 65q0 35 -22 57t-52 37q-35 18 -59 48
t-24 78q0 37 13.5 66.5t36.5 50t54 31.5t66 11q42 0 70.5 -12.5t45.5 -31.5zM52 -230h-65l86 185h74z" />
    <glyph glyph-name="uni021A" unicode="&#x21a;" horiz-adv-x="349" 
d="M421 634h-135l-111 -634h-85l111 634h-136l13 74h356zM72 -230h-65l86 185h74z" />
    <glyph glyph-name="uni021B" unicode="&#x21b;" horiz-adv-x="258" 
d="M273 435h-84l-50 -294q-2 -10 -3 -20t-1 -18q0 -25 10 -34t30 -9q9 0 19.5 2.5t18.5 5.5l-8 -65q-13 -5 -28 -8t-29 -3q-49 0 -72 25t-23 67q0 18 4 41l54 310h-69l11 66h67l23 134h79l-22 -134h85zM53 -230h-65l86 185h74z" />
    <glyph glyph-name="circumflex" unicode="&#x2c6;" horiz-adv-x="229" 
d="M250 571l-54 101l-88 -101h-77l130 144h80l79 -144h-70z" />
    <glyph glyph-name="caron" unicode="&#x2c7;" horiz-adv-x="229" 
d="M216 570h-80l-80 144h69l53 -101l89 101h78z" />
    <glyph glyph-name="uni02C9" unicode="&#x2c9;" horiz-adv-x="229" 
d="M53 807l10 57h258l-10 -57h-258z" />
    <glyph glyph-name="breve" unicode="&#x2d8;" horiz-adv-x="229" 
d="M334 708q-21 -72 -61 -102.5t-92 -30.5q-50 0 -83 31t-33 102h56q0 -39 18.5 -56.5t45.5 -17.5q33 0 56 16.5t37 57.5h56v0z" />
    <glyph glyph-name="dotaccent" unicode="&#x2d9;" horiz-adv-x="229" 
d="M237 658q0 -26 -16.5 -44.5t-41.5 -18.5q-22 0 -34 14.5t-12 33.5q0 24 16 43.5t41 19.5q22 0 34.5 -13.5t12.5 -34.5z" />
    <glyph glyph-name="ring" unicode="&#x2da;" horiz-adv-x="229" 
d="M286 674q0 -24 -8 -45t-22.5 -37.5t-34 -26t-41.5 -9.5q-41 0 -61.5 23.5t-20.5 60.5q0 25 7.5 47t21 38.5t32.5 26t41 9.5q43 0 64.5 -25.5t21.5 -61.5zM247 671q0 21 -11.5 37.5t-36.5 16.5q-30 0 -46.5 -25.5t-16.5 -56.5q0 -21 11.5 -36t35.5 -15q14 0 26 7t20.5 18
t13 25t4.5 29z" />
    <glyph glyph-name="ogonek" unicode="&#x2db;" horiz-adv-x="229" 
d="M131 -186q-20 -17 -43.5 -26.5t-47.5 -9.5q-37 0 -60 20.5t-16 62.5q4 21 15.5 41t27 37.5t33.5 32.5t35 28h54q-45 -38 -68.5 -65.5t-28.5 -55.5q-4 -20 6.5 -32t28.5 -12q28 0 52 21z" />
    <glyph glyph-name="tilde" unicode="&#x2dc;" horiz-adv-x="229" 
d="M331 689q-11 -51 -36.5 -78.5t-58.5 -27.5q-17 0 -30 5t-31 19q-20 15 -29.5 18.5t-21.5 3.5q-28 0 -42 -46h-45q11 49 36.5 77.5t58.5 28.5q18 0 31.5 -5.5t30.5 -18.5q20 -14 30 -18.5t22 -4.5q16 0 25 11t16 36h44v0z" />
    <glyph glyph-name="hungarumlaut" unicode="&#x2dd;" horiz-adv-x="229" 
d="M108 571h-65l115 144h83zM246 571h-65l115 144h82z" />
    <glyph glyph-name="uni0394" unicode="&#x394;" horiz-adv-x="678" 
d="M-39 0l427 712h95l134 -712h-656zM413 613l-312 -530h406z" />
    <glyph glyph-name="uni03A9" unicode="&#x3a9;" horiz-adv-x="752" 
d="M379 0l39 185q43 8 79.5 28t64.5 49.5t46.5 66t27.5 77.5q6 27 6 53q0 39 -13 72t-37 56.5t-58.5 37t-77.5 13.5q-50 0 -96 -18t-83.5 -49t-64 -74t-36.5 -92q-3 -16 -5 -30.5t-2 -28.5q0 -62 32 -104.5t97 -56.5l-39 -185h-263l16 77h190l13 62q-70 22 -105 76t-35 126
q0 31 8 69q14 68 52 125t91 98.5t117 64.5t130 23q58 0 106.5 -17.5t83.5 -49t54.5 -76t19.5 -98.5q0 -34 -7 -68q-10 -48 -31 -91.5t-52.5 -79.5t-73 -62.5t-91.5 -39.5l-13 -62h190l-16 -77h-264z" />
    <glyph glyph-name="uni03BC" unicode="&#x3bc;" horiz-adv-x="578" 
d="M363 0q2 18 5.5 40.5t6.5 37.5h-2q-13 -19 -32 -35.5t-42 -29t-48.5 -19.5t-51.5 -7q-25 0 -46 8t-31 22l-55 -257h-94l152 714h94l-55 -262q-4 -16 -5.5 -31t-1.5 -29q0 -38 18 -62t66 -24q57 0 101 42.5t59 113.5l53 252h94l-79 -372q-2 -9 -4.5 -22t-5 -27t-4.5 -27.5
t-3 -25.5h-89z" />
    <glyph glyph-name="pi" unicode="&#x3c0;" horiz-adv-x="578" 
d="M497 12q-20 -9 -39 -14t-39 -5q-44 0 -59 18t-15 47q0 25 8 60l58 275h-191l-83 -393h-86l83 393h-70l17 81h511l-17 -81h-78l-57 -270q-2 -7 -3 -14t-1 -14q0 -12 6.5 -20t23.5 -8q22 0 45 10l-14 -65v0z" />
    <glyph glyph-name="endash" unicode="&#x2013;" horiz-adv-x="354" 
d="M21 229l13 71h312l-13 -71h-312z" />
    <glyph glyph-name="emdash" unicode="&#x2014;" horiz-adv-x="454" 
d="M21 229l13 71h412l-13 -71h-412z" />
    <glyph glyph-name="quoteleft" unicode="&#x2018;" horiz-adv-x="192" 
d="M153 466h-74l97 242h64z" />
    <glyph glyph-name="quoteright" unicode="&#x2019;" horiz-adv-x="192" 
d="M166 708h74l-97 -242h-64z" />
    <glyph glyph-name="quotesinglbase" unicode="&#x201a;" horiz-adv-x="192" 
d="M45 -127h-65l86 242h74z" />
    <glyph glyph-name="quotedblleft" unicode="&#x201c;" horiz-adv-x="329" 
d="M290 466h-74l96 242h65zM153 466h-74l97 242h64z" />
    <glyph glyph-name="quotedblright" unicode="&#x201d;" horiz-adv-x="327" 
d="M279 466h-65l87 242h74zM144 466h-65l87 242h74z" />
    <glyph glyph-name="quotedblbase" unicode="&#x201e;" horiz-adv-x="327" 
d="M175 -127h-65l86 242h74zM40 -127h-65l86 242h74z" />
    <glyph glyph-name="dagger" unicode="&#x2020;" horiz-adv-x="373" 
d="M261 432l-99 -560h-75l99 560h-142l13 72h142l36 204h75l-36 -204h142l-13 -72h-142z" />
    <glyph glyph-name="daggerdbl" unicode="&#x2021;" horiz-adv-x="373" 
d="M196 65l-34 -193h-75l34 193h-142l13 71h142l54 308h-142l13 70h142l34 194h75l-34 -194h142l-13 -70h-142l-54 -308h142l-13 -71h-142z" />
    <glyph glyph-name="bullet" unicode="&#x2022;" horiz-adv-x="500" 
d="M73 354q0 37 14 69t38 56t56 38t69 14t69 -14t56 -38t38 -56t14 -69t-14 -69t-38 -56t-56 -38t-69 -14t-69 14t-56 38t-38 56t-14 69z" />
    <glyph glyph-name="ellipsis" unicode="&#x2026;" horiz-adv-x="900" 
d="M174 59q0 -28 -17.5 -47t-43.5 -19q-23 0 -35.5 15t-12.5 35q0 25 17 45.5t43 20.5q23 0 36 -14t13 -36zM774 59q0 -28 -17.5 -47t-43.5 -19q-23 0 -35.5 15t-12.5 35q0 25 17 45.5t43 20.5q23 0 36 -14t13 -36zM474 59q0 -28 -17.5 -47t-43.5 -19q-23 0 -35.5 15
t-12.5 35q0 25 17 45.5t43 20.5q23 0 36 -14t13 -36z" />
    <glyph glyph-name="perthousand" unicode="&#x2030;" horiz-adv-x="891" 
d="M345 595q0 -42 -12 -82.5t-33 -72.5t-50.5 -52t-65.5 -20q-48 0 -74 34.5t-26 91.5q0 42 12 83t33.5 73t51 52t65.5 20q49 0 74 -35t25 -92zM279 591q0 32 -10.5 52t-33.5 20q-20 0 -35.5 -16t-26 -40.5t-16.5 -53t-6 -53.5q0 -32 10.5 -52t32.5 -20q20 0 35.5 16
t26.5 40.5t17 53t6 53.5zM577 215q0 -42 -12 -82.5t-33 -72.5t-50.5 -52t-65.5 -20q-48 0 -74 34.5t-26 91.5q0 42 12 83t33.5 73t51 52t65.5 20q49 0 74 -35t25 -92zM511 211q0 32 -10.5 52t-33.5 20q-20 0 -35.5 -16t-26 -40.5t-16.5 -53t-6 -53.5q0 -32 10.5 -52
t32.5 -20q20 0 35.5 16t26.5 40.5t17 53t6 53.5zM868 215q0 -42 -12 -82.5t-33 -72.5t-50.5 -52t-65.5 -20q-48 0 -74 34.5t-26 91.5q0 42 12 83t33.5 73t51 52t65.5 20q49 0 74 -35t25 -92zM802 211q0 32 -10.5 52t-33.5 20q-20 0 -35.5 -16t-26 -40.5t-16.5 -53t-6 -53.5
q0 -32 10.5 -52t32.5 -20q20 0 35.5 16t26.5 40.5t17 53t6 53.5zM148 -23l-48 17l411 743l47 -17z" />
    <glyph glyph-name="guilsinglleft" unicode="&#x2039;" horiz-adv-x="217" 
d="M171 465l47 -31l-121 -189l54 -185l-55 -23l-63 216z" />
    <glyph glyph-name="guilsinglright" unicode="&#x203a;" horiz-adv-x="217" 
d="M49 37l-47 31l121 189l-54 185l55 23l63 -216z" />
    <glyph glyph-name="fraction" unicode="&#x2044;" horiz-adv-x="100" 
d="M-110 -23l-52 15l409 745l51 -15z" />
    <glyph glyph-name="Euro" unicode="&#x20ac;" 
d="M497 635q-11 7 -32 12t-50 5q-64 0 -114 -48t-81 -136h219l-26 -60h-212q-7 -19 -13 -48.5t-8 -57.5h196l-24 -60h-174q0 -86 34 -134.5t97 -48.5q31 0 56.5 7t45.5 18v-73q-18 -10 -47.5 -19t-64.5 -9q-51 0 -89.5 19t-64.5 53.5t-39 82t-13 104.5h-68l24 60h47
q1 11 3 26t5 30t6 28t6 22h-60l24 60h52q48 129 122 193t171 64q32 0 60 -6t44 -14l-32 -70v0z" />
    <glyph glyph-name="afii61289" unicode="&#x2113;" horiz-adv-x="500" 
d="M469 615q0 -44 -19 -89t-52.5 -88.5t-78.5 -85t-96 -80.5q-12 -51 -18.5 -81.5t-10 -48.5t-4 -26t-0.5 -13q0 -31 16 -42.5t35 -11.5q21 0 43.5 9t55.5 32h2l22 -49q-38 -28 -73 -41.5t-73 -13.5q-52 0 -82.5 26.5t-30.5 75.5q0 6 0.5 13t3 21t7 36t12.5 58l-67 -57h-2
l-25 49l110 83l54 256q19 88 64 131t105 43q45 0 73.5 -30t28.5 -76zM398 610q0 23 -11.5 38t-28.5 15q-23 0 -42 -21t-31 -76l-46 -216q26 23 54 54t51.5 65.5t38.5 70.5t15 70z" />
    <glyph glyph-name="trademark" unicode="&#x2122;" horiz-adv-x="760" 
d="M674 296v321h-1l-94 -321h-49l-91 321h-2v-321h-58v412h91l86 -308l88 308h90v-412h-60zM241 648v-352h-67v352h-84v60h235v-60h-84z" />
    <glyph glyph-name="Omega" unicode="&#x2126;" horiz-adv-x="752" 
d="M379 0l39 185q43 8 79.5 28t64.5 49.5t46.5 66t27.5 77.5q6 27 6 53q0 39 -13 72t-37 56.5t-58.5 37t-77.5 13.5q-50 0 -96 -18t-83.5 -49t-64 -74t-36.5 -92q-3 -16 -5 -30.5t-2 -28.5q0 -62 32 -104.5t97 -56.5l-39 -185h-263l16 77h190l13 62q-70 22 -105 76t-35 126
q0 31 8 69q14 68 52 125t91 98.5t117 64.5t130 23q58 0 106.5 -17.5t83.5 -49t54.5 -76t19.5 -98.5q0 -34 -7 -68q-10 -48 -31 -91.5t-52.5 -79.5t-73 -62.5t-91.5 -39.5l-13 -62h190l-16 -77h-264z" />
    <glyph glyph-name="estimated" unicode="&#x212e;" horiz-adv-x="800" 
d="M595 402v193q-82 79 -194 79t-191 -79v-193h385zM210 355v-240q76 -78 192 -78q83 0 144 37.5t112 121.5l46 -28q-30 -48 -61.5 -82t-67.5 -55.5t-78.5 -32t-94.5 -10.5q-78 0 -141 28.5t-108 78.5t-69 116.5t-24 143.5t24 143.5t69 116t108 77.5t141 28q76 0 139.5 -27
t108.5 -75.5t70 -115.5t25 -147h-535z" />
    <glyph glyph-name="partialdiff" unicode="&#x2202;" horiz-adv-x="523" 
d="M481 360q0 -59 -9 -124.5t-35 -120.5t-72.5 -91t-121.5 -36q-48 0 -86.5 18t-65.5 48.5t-41.5 71.5t-14.5 87q0 45 14 84.5t40.5 69t64 46t84.5 16.5q46 0 85.5 -19t70.5 -51q0 10 0.5 20t0.5 21q0 39 -8 83t-27 81.5t-51 62t-81 24.5q-35 0 -62.5 -13t-53.5 -34
q-12 14 -23.5 27.5t-23.5 27.5q37 29 74 45.5t85 16.5q75 0 124.5 -33t79 -85.5t41.5 -116.5t12 -126zM391 271q-23 42 -60 66t-82 24q-33 0 -57.5 -12.5t-41 -33.5t-24.5 -48.5t-8 -57.5q0 -29 7.5 -56.5t23.5 -49.5t40 -35.5t56 -13.5q40 0 67.5 22t44.5 54.5t25 70.5
t9 70z" />
    <glyph glyph-name="Delta" unicode="&#x2206;" horiz-adv-x="678" 
d="M-39 0l427 712h95l134 -712h-656zM413 613l-312 -530h406z" />
    <glyph glyph-name="product" unicode="&#x220f;" horiz-adv-x="726" 
d="M570 -214v917h-413v-917h-91v1000h594v-1000h-90z" />
    <glyph glyph-name="summation" unicode="&#x2211;" horiz-adv-x="626" 
d="M25 -214v72l316 433l-303 422v73h551v-83h-432l292 -412l-311 -423h463v-82h-576z" />
    <glyph glyph-name="minus" unicode="&#x2212;" horiz-adv-x="666" 
d="M596 262h-526v82h526v-82z" />
    <glyph glyph-name="uni2215" unicode="&#x2215;" horiz-adv-x="100" 
d="M-110 -23l-52 15l409 745l51 -15z" />
    <glyph glyph-name="uni2219" unicode="&#x2219;" horiz-adv-x="222" 
d="M173 269q0 -28 -17.5 -47t-43.5 -19q-23 0 -35.5 15t-12.5 35q0 25 17 45.5t43 20.5q23 0 36 -14t13 -36z" />
    <glyph glyph-name="radical" unicode="&#x221a;" horiz-adv-x="515" 
d="M315 -214h-86l-158 328l-48 -23l-33 70l124 58l144 -302l178 869h90z" />
    <glyph glyph-name="infinity" unicode="&#x221e;" horiz-adv-x="778" 
d="M681 260q0 37 -21 63t-61 26q-20 0 -40 -9t-38.5 -22.5t-35 -29.5t-29.5 -29q15 -14 31.5 -29t34.5 -27t38 -20t42 -8q38 0 58.5 24.5t20.5 60.5zM361 259q-14 13 -31 28.5t-36 29t-39.5 22.5t-40.5 9q-37 0 -57.5 -26.5t-20.5 -61.5q0 -38 22 -61.5t60 -23.5q19 0 39 8
t39 20.5t35.5 27.5t29.5 28zM754 263q0 -36 -11 -68t-31.5 -55.5t-50.5 -37t-68 -13.5q-30 0 -55.5 9t-48 23.5t-42.5 34t-39 40.5q-20 -21 -39.5 -40t-41 -34t-46.5 -23.5t-56 -8.5q-38 0 -68.5 13t-51.5 36t-32.5 54.5t-11.5 68.5q0 36 11 67t31.5 54t50 36.5t67.5 13.5
q31 0 57 -9.5t48.5 -25.5t42.5 -36.5t39 -42.5q18 22 38 42.5t42.5 36.5t48.5 26t57 10q37 0 66.5 -13.5t50.5 -36.5t32 -54t11 -67z" />
    <glyph glyph-name="integral" unicode="&#x222b;" horiz-adv-x="574" 
d="M442 723q0 -19 -12.5 -30.5t-31.5 -11.5q-18 0 -27 8.5t-14 19t-9 19t-13 8.5t-14.5 -8.5t-8 -21t-3 -28t-0.5 -28.5q0 -26 1 -49t1 -37v-568q0 -35 -4.5 -72t-18.5 -67.5t-40 -50t-69 -19.5q-13 0 -27.5 3t-27 10t-20.5 18.5t-8 28.5t12.5 29t29.5 12q18 0 26.5 -8.5
t13.5 -18.5t9 -18.5t12 -8.5q9 0 14.5 10.5t7.5 25t2.5 29.5t0.5 24q0 20 -1 37t-1 28q0 3 0.5 6t0.5 6v499q0 17 -0.5 36t-0.5 39q0 37 4 74.5t17.5 68t39.5 50t71 19.5q12 0 27 -3.5t28.5 -11t23 -19.5t9.5 -29z" />
    <glyph glyph-name="approxequal" unicode="&#x2248;" horiz-adv-x="666" 
d="M599 440q-3 -30 -12 -57.5t-25.5 -49.5t-41 -35t-58.5 -13q-31 0 -67.5 11t-72.5 25q-36 13 -68.5 24t-56.5 11q-31 0 -48.5 -23.5t-22.5 -50.5h-59q3 29 12.5 57t25.5 50t40.5 35.5t57.5 13.5q32 0 66.5 -10.5t69.5 -24.5q35 -13 69 -24t63 -11q32 0 48.5 21.5
t21.5 50.5h58zM599 240q-3 -30 -12 -57.5t-25.5 -49.5t-41 -35t-58.5 -13q-31 0 -67.5 11t-72.5 25q-36 13 -68.5 24t-56.5 11q-31 0 -48.5 -23.5t-22.5 -50.5h-59q3 29 12.5 57t25.5 50t40.5 35.5t57.5 13.5q32 0 66.5 -10.5t69.5 -24.5q35 -13 69 -24t63 -11
q32 0 48.5 21.5t21.5 50.5h58z" />
    <glyph glyph-name="notequal" unicode="&#x2260;" horiz-adv-x="666" 
d="M266 108l-77 -149l-73 38l58 111h-134v84h177l63 123h-240v84h284l77 149l74 -37l-59 -112h136v-84h-179l-64 -123h243v-84h-286z" />
    <glyph glyph-name="lessequal" unicode="&#x2264;" horiz-adv-x="666" 
d="M77 309v86l512 183v-89l-397 -137l397 -134v-88zM77 8v84h512v-84h-512z" />
    <glyph glyph-name="greaterequal" unicode="&#x2265;" horiz-adv-x="666" 
d="M77 130v88l397 134l-397 137v89l512 -183v-86zM77 8v84h512v-84h-512z" />
    <glyph glyph-name="lozenge" unicode="&#x25ca;" horiz-adv-x="593" 
d="M337 -35h-82l-173 391l173 391h82l174 -391zM296 661l-127 -305l127 -305l128 305z" />
    <glyph glyph-name="dotlessj" unicode="&#xf6be;" horiz-adv-x="227" 
d="M106 -62q-7 -39 -19 -72t-31 -56.5t-46.5 -36.5t-66.5 -13q-17 0 -39 5l12 78q7 -2 15 -3t14 -1q20 0 33.5 8.5t22.5 23t14 33.5t9 40l98 557h83l-99 -563v0z" />
    <glyph glyph-name="commaaccent" unicode="&#xf6c3;" horiz-adv-x="229" 
d="M21 -230h-65l86 185h74z" />
    <glyph glyph-name="uniF8FF" unicode="&#xf8ff;" horiz-adv-x="512" 
d="M222 117v67h56v-67h-56zM225 234l-2 17q0 56 13 81q7 13 18 27.5t28 31.5q16 15 26 26.5t15 21t7 18t2 17.5q0 36 -22.5 60.5t-53.5 24.5t-53.5 -22t-28.5 -73l-50 8q7 72 44 104.5t91 32.5t89 -35.5t35 -95.5q0 -32 -12.5 -58.5t-50.5 -61.5q-37 -33 -43 -52
q-6 -20 -6 -72h-46zM462 50v617h-412v-617h412zM512 718v-718h-512v718h512z" />
    <glyph glyph-name="fi" unicode="&#xfb01;" horiz-adv-x="476" 
d="M334 701q-5 2 -12.5 3t-15.5 1q-20 0 -34 -9.5t-24 -25t-16 -35t-10 -40.5l-16 -94h82l-11 -66h-82l-75 -435h-80l75 435h-65l11 66h65l17 94q7 39 19.5 72t32.5 56.5t47.5 37t63.5 13.5q22 0 40 -6zM363 0h-81l87 501h81zM486 658q0 -26 -16.5 -44.5t-41.5 -18.5
q-22 0 -34 14.5t-12 33.5q0 24 16 43.5t41 19.5q22 0 34.5 -13.5t12.5 -34.5z" />
    <glyph glyph-name="fl" unicode="&#xfb02;" horiz-adv-x="474" 
d="M334 701q-5 2 -12.5 3t-15.5 1q-20 0 -34 -9.5t-24 -25t-16 -35t-10 -40.5l-16 -94h82l-11 -66h-82l-75 -435h-80l75 435h-65l11 66h65l17 94q7 39 19.5 72t32.5 56.5t47.5 37t63.5 13.5q22 0 40 -6zM364 0h-82l131 756h82z" />
    </font>
</defs>
</svg>
